<svg xmlns="http://www.w3.org/2000/svg" xmlns:xlink="http://www.w3.org/1999/xlink" width="104" height="71" viewBox="0 0 104 71">
    <defs>
        <path id="a" d="M.58.344h29.076V40.8H.58z"/>
        <path id="c" d="M.293.536h13.779v41.848H.292z"/>
        <path id="e" d="M0 .326h41.474v54.152H0z"/>
    </defs>
    <g fill="none" fill-rule="evenodd">
        <path fill="#fff" fill-rule="nonzero" d="M41.298 43.574c3.908.346 10.784-9.843 7.271-10.437-2.968-.545-6.579 4.996-7.716 10.338.148.05.247.05.445.1M55 42.584l1.187.05-.148.296c-2.028 5.59-7.766 12.91-14.494 12.218-1.533-.198-3.215-.84-4.254-1.978-5.193-5.738 1.286-25.772 12.12-22.557 8.458 2.671.741 15.235-6.777 14.543-.644-.098-1.336-.247-1.98-.495-.444 1.88-.89 5.69.644 7.223 4.7 4.65 11.921-4.75 13.702-9.3"/>
        <g transform="translate(48 29.674)">
            <mask id="b" fill="#fff">
                <use xlink:href="#a"/>
            </mask>
            <path fill="#fff" fill-rule="nonzero" d="M12.689 29.136c-6.332 0-11.23 6.43-7.321 7.914 3.512.89 6.43-5.392 7.32-7.914m15.88-17.016h1.088a1.5 1.5 0 0 1-.198.494c-3.018 7.271-4.996 13.95-11.674 16.373-12.565 27.108-29.432-.643-3.908-2.67.594-2.079 1.088-3.91 1.484-5.64-.692 1.286-1.435 2.473-2.325 3.314-1.78 1.732-4.897 1.979-6.53.148-2.72-3.116 1.683-17.313 2.771-21.517.94-3.463 5.738-2.87 4.6 1.137C12.74 7.717 9.622 18.204 9.82 21.617c.099.742.445 1.533 1.236 1.434 2.029-.148 4.403-5.985 5.59-9.003.643-3.413 1.335-6.974 2.523-11.575 1.088-3.363 5.886-2.72 4.6 1.781-1.533 6.876-2.72 13.8-4.501 20.825 1.038-.395 1.929-.791 2.522-1.286 3.513-2.919 4.65-7.42 6.777-11.673" mask="url(#b)"/>
        </g>
        <g transform="translate(76.2 12.874)">
            <mask id="d" fill="#fff">
                <use xlink:href="#c"/>
            </mask>
            <path fill="#fff" fill-rule="nonzero" d="M7.836 2.554L2.99 31.49c-.396 2.276 2.72 2.82 3.314.297l7.717-28.74c.692-2.67-5.739-3.759-6.184-.494M3.632 35.498c4.303 0 2.275 8.113-1.781 6.727-2.869-1.038-1.484-6.777 1.78-6.727" mask="url(#d)"/>
        </g>
        <g transform="translate(4.8 .274)">
            <mask id="f" fill="#fff">
                <use xlink:href="#e"/>
            </mask>
            <path fill="#fff" fill-rule="nonzero" d="M17.587 31.923c2.427-.286 4.697-.89 6.812-1.812 2.114-.922 4.021-2.044 5.72-3.364 1.7-1.32 3.164-2.774 4.395-4.365 1.23-1.59 2.175-3.18 2.834-4.771.728-1.748 1.178-3.482 1.352-5.2.173-1.717.13-3.275-.13-4.675s-.71-2.576-1.351-3.53c-.643-.954-1.414-1.527-2.315-1.718-.59-.127-1.318-.102-2.184.072-.867.175-1.803.62-2.809 1.336-1.005.715-2.054 1.749-3.145 3.1-1.093 1.353-2.177 3.141-3.25 5.367-1.075 2.226-2.125 4.947-3.147 8.159-1.023 3.212-1.95 7.012-2.782 11.401m4.368 5.63c-.174-.095-.312-.126-.416-.095l-.208.095c-.416.318-.806.78-1.17 1.383a12.468 12.468 0 0 0-.988 2.1 37.083 37.083 0 0 0-.832 2.527c-.26.892-.494 1.782-.702 2.672a69.43 69.43 0 0 0-1.197 6.775h-.05c.068.7-.28 1.16-1.04 1.383-.488.127-.93.111-1.328-.048a5.567 5.567 0 0 1-.961-.477 1.212 1.212 0 0 1-.573-.858 67.7 67.7 0 0 1-.285-2.195c-.123-1.018-.209-2.32-.26-3.912-.052-1.59-.034-3.458.051-5.605.086-2.147.303-4.572.65-7.276-1.976-.19-4.004-.65-6.084-1.383-1.282-.508-2.41-1.05-3.38-1.622A11.861 11.861 0 0 1 .92 29.228c-.677-.684-.98-1.423-.91-2.219.035-.508.2-.922.494-1.24.295-.317.65-.548 1.066-.692a4.569 4.569 0 0 1 1.326-.238c.468-.016.893-.008 1.274.023.312.033.58.16.806.382.225.223.32.493.286.811-.07.446-.043.979.077 1.599.123.62.443 1.224.963 1.812.52.589 1.3 1.121 2.34 1.598 1.04.477 2.48.78 4.317.907.173-1.145.363-2.337.571-3.578.208-1.24.451-2.529.728-3.865 1.005-4.738 2.358-8.737 4.056-11.997 1.7-3.26 3.554-5.851 5.565-7.777C25.89 2.83 27.935 1.542 30.015.89c2.08-.651 4.006-.739 5.773-.262a6.47 6.47 0 0 1 3.016 1.765c.833.859 1.464 1.908 1.898 3.148.433 1.24.685 2.624.754 4.15.07 1.528-.07 3.095-.415 4.7a22.086 22.086 0 0 1-1.665 4.818 20.883 20.883 0 0 1-2.963 4.556 30.184 30.184 0 0 1-8.66 7.109c-3.31 1.813-6.821 2.879-10.53 3.196-.175.923-.347 2.235-.52 3.936-.175 1.702-.295 3.73-.364 6.082.242-1.05.554-2.114.936-3.196a17.82 17.82 0 0 1 1.325-2.934c.503-.873 1.084-1.614 1.743-2.218.658-.604 1.386-.954 2.184-1.05.45-.063.9-.063 1.352 0 .38.065.78.2 1.196.406.417.207.78.565 1.093 1.073.484.795.753 1.686.806 2.672a18.18 18.18 0 0 1-.078 2.91c-.036.318-.07.636-.104.954-.036.255-.079.533-.13.835-.053.302-.096.58-.13.835-.104.7-.192 1.36-.26 1.98a9.25 9.25 0 0 0-.053 1.67c.035.493.105.89.209 1.192.103.303.277.47.52.5.45.065.91-.197 1.377-.786.468-.589.911-1.288 1.327-2.099.416-.811.788-1.63 1.118-2.457.329-.827.563-1.432.701-1.814a.316.316 0 0 1 .235-.238.428.428 0 0 1 .338.048c.138.064.225.112.26.142.311.256.416.573.311.955-.069.286-.19.716-.363 1.288-.175.573-.4 1.201-.676 1.885a20.175 20.175 0 0 1-.988 2.075 12.26 12.26 0 0 1-1.3 1.933 6.223 6.223 0 0 1-1.612 1.407c-.59.35-1.232.507-1.925.477-1.006-.032-1.838-.398-2.496-1.098-.659-.7-1.144-1.645-1.456-2.838-.312-1.192-.45-2.6-.416-4.222.034-1.622.26-3.387.676-5.295.138-.827.104-1.337-.104-1.527" mask="url(#f)"/>
        </g>
        <g fill="#FFF" fill-rule="nonzero">
            <path d="M0 15.19c3.921.001 5.876 1.599 7.838 3.2 1.963 1.603 3.933 3.21 7.862 3.21 3.929 0 5.9-1.607 7.862-3.21 1.962-1.601 3.917-3.199 7.838-3.2 3.921.001 5.875 1.599 7.838 3.2 1.962 1.603 3.933 3.21 7.862 3.21 3.929 0 5.9-1.607 7.862-3.21 1.962-1.601 3.917-3.199 7.838-3.2 3.921.001 5.875 1.599 7.838 3.2 1.962 1.603 3.933 3.21 7.862 3.21 3.929 0 5.9-1.607 7.862-3.21 1.962-1.601 3.917-3.199 7.838-3.2V15c-3.929 0-5.9 1.607-7.862 3.21-1.962 1.601-3.917 3.199-7.838 3.2-3.922-.001-5.876-1.599-7.838-3.2C68.699 16.606 66.729 15 62.8 15c-3.93 0-5.9 1.607-7.862 3.21-1.963 1.601-3.917 3.199-7.838 3.2-3.921-.001-5.876-1.599-7.838-3.2C37.299 16.606 35.329 15 31.4 15c-3.929 0-5.9 1.607-7.862 3.21-1.962 1.601-3.917 3.199-7.838 3.2-3.921-.001-5.876-1.599-7.838-3.2C5.899 16.606 3.929 15 0 15v.19" opacity=".095"/>
            <path d="M.6 17.59c3.921.001 5.876 1.599 7.838 3.2C10.401 22.394 12.371 24 16.3 24c3.929 0 5.9-1.607 7.862-3.21 1.962-1.601 3.917-3.199 7.838-3.2 3.921.001 5.876 1.599 7.838 3.2C41.8 22.394 43.771 24 47.7 24c3.929 0 5.9-1.607 7.862-3.21 1.962-1.601 3.917-3.199 7.838-3.2 3.921.001 5.876 1.599 7.838 3.2C73.2 22.394 75.171 24 79.1 24c3.929 0 5.9-1.607 7.862-3.21 1.962-1.601 3.917-3.199 7.838-3.2v-.19c-3.929 0-5.9 1.607-7.862 3.21-1.962 1.601-3.917 3.199-7.838 3.2-3.921-.001-5.876-1.599-7.838-3.2-1.963-1.603-3.933-3.21-7.862-3.21-3.929 0-5.9 1.607-7.862 3.21-1.963 1.601-3.917 3.199-7.838 3.2-3.921-.001-5.876-1.599-7.838-3.2-1.963-1.603-3.933-3.21-7.862-3.21-3.929 0-5.9 1.607-7.862 3.21-1.962 1.601-3.917 3.199-7.838 3.2-3.921-.001-5.876-1.599-7.838-3.2C6.499 19.006 4.529 17.4.6 17.4v.19" opacity=".095"/>
            <path d="M.6 20.59c3.921.001 5.876 1.599 7.838 3.2C10.401 25.394 12.371 27 16.3 27c3.929 0 5.9-1.607 7.862-3.21 1.962-1.601 3.917-3.199 7.838-3.2 3.921.001 5.875 1.599 7.838 3.2C41.8 25.394 43.77 27 47.7 27c3.928 0 5.899-1.607 7.861-3.21 1.963-1.601 3.917-3.199 7.839-3.2 3.92.001 5.875 1.599 7.838 3.2C73.2 25.394 75.17 27 79.1 27c3.928 0 5.9-1.607 7.862-3.21 1.962-1.601 3.917-3.199 7.838-3.2v-.19c-3.929 0-5.9 1.607-7.862 3.21-1.962 1.601-3.917 3.199-7.838 3.2-3.921-.001-5.876-1.599-7.839-3.2-1.962-1.603-3.933-3.21-7.861-3.21-3.93 0-5.9 1.607-7.862 3.21-1.963 1.601-3.917 3.199-7.838 3.2-3.922-.001-5.876-1.599-7.838-3.2-1.963-1.603-3.933-3.21-7.862-3.21-3.929 0-5.9 1.607-7.862 3.21-1.963 1.601-3.917 3.199-7.838 3.2-3.921-.001-5.876-1.599-7.838-3.2C6.499 22.006 4.529 20.4.6 20.4v.19" opacity=".095"/>
            <path d="M2.4 23.59c3.921.001 5.876 1.599 7.838 3.2C12.201 28.394 14.171 30 18.1 30c3.929 0 5.9-1.607 7.862-3.21 1.962-1.601 3.917-3.199 7.838-3.2 3.921.001 5.875 1.599 7.838 3.2C43.6 28.394 45.571 30 49.5 30c3.928 0 5.899-1.607 7.862-3.21 1.962-1.601 3.917-3.199 7.838-3.2 3.921.001 5.875 1.599 7.838 3.2C75 28.394 76.971 30 80.9 30c3.929 0 5.9-1.607 7.862-3.21 1.962-1.601 3.917-3.199 7.838-3.2v-.19c-3.929 0-5.9 1.607-7.862 3.21-1.962 1.601-3.917 3.199-7.838 3.2-3.922-.001-5.876-1.599-7.838-3.2-1.963-1.603-3.933-3.21-7.862-3.21-3.93 0-5.9 1.607-7.862 3.21-1.963 1.601-3.917 3.199-7.838 3.2-3.921-.001-5.876-1.599-7.838-3.2-1.963-1.603-3.933-3.21-7.862-3.21-3.929 0-5.9 1.607-7.862 3.21-1.962 1.601-3.917 3.199-7.838 3.2-3.921-.001-5.876-1.599-7.838-3.2C8.299 25.006 6.329 23.4 2.4 23.4v.19" opacity=".095"/>
            <path d="M4.2 25.39c3.921.001 5.876 1.599 7.838 3.2 1.963 1.603 3.933 3.21 7.862 3.21 3.929 0 5.9-1.607 7.862-3.21 1.962-1.601 3.917-3.199 7.838-3.2 3.921.001 5.875 1.599 7.838 3.2 1.962 1.603 3.933 3.21 7.862 3.21 3.929 0 5.9-1.607 7.862-3.21 1.962-1.601 3.917-3.199 7.838-3.2 3.921.001 5.875 1.599 7.838 3.2 1.962 1.603 3.933 3.21 7.862 3.21 3.929 0 5.9-1.607 7.862-3.21 1.962-1.601 3.917-3.199 7.838-3.2v-.19c-3.929 0-5.9 1.607-7.862 3.21-1.962 1.601-3.917 3.199-7.838 3.2-3.921-.001-5.876-1.599-7.838-3.2-1.963-1.603-3.933-3.21-7.862-3.21-3.929 0-5.9 1.607-7.862 3.21-1.963 1.601-3.917 3.199-7.838 3.2-3.921-.001-5.876-1.599-7.838-3.2-1.963-1.603-3.933-3.21-7.862-3.21-3.929 0-5.9 1.607-7.862 3.21-1.962 1.601-3.917 3.199-7.838 3.2-3.921-.001-5.876-1.599-7.838-3.2-1.963-1.603-3.933-3.21-7.862-3.21v.19" opacity=".095"/>
            <path d="M4.8 27.19c3.921.001 5.876 1.599 7.838 3.2 1.963 1.603 3.933 3.21 7.862 3.21 3.929 0 5.9-1.607 7.862-3.21 1.962-1.601 3.917-3.199 7.838-3.2 3.921.001 5.876 1.599 7.838 3.2 1.963 1.603 3.933 3.21 7.862 3.21 3.929 0 5.9-1.607 7.862-3.21 1.962-1.601 3.917-3.199 7.838-3.2 3.921.001 5.876 1.599 7.838 3.2 1.962 1.603 3.933 3.21 7.862 3.21 3.929 0 5.9-1.607 7.862-3.21 1.962-1.601 3.917-3.199 7.838-3.2V27c-3.929 0-5.9 1.607-7.862 3.21-1.962 1.601-3.917 3.199-7.838 3.2-3.921-.001-5.876-1.599-7.838-3.2C73.499 28.606 71.529 27 67.6 27c-3.929 0-5.9 1.607-7.862 3.21-1.963 1.601-3.917 3.199-7.838 3.2-3.921-.001-5.876-1.599-7.838-3.2C42.099 28.606 40.129 27 36.2 27c-3.929 0-5.9 1.607-7.862 3.21-1.962 1.601-3.917 3.199-7.838 3.2-3.921-.001-5.876-1.599-7.838-3.2C10.699 28.606 8.729 27 4.8 27v.19" opacity=".095"/>
            <path d="M6.6 28.99c3.921.001 5.876 1.599 7.838 3.2 1.963 1.603 3.933 3.21 7.862 3.21 3.929 0 5.9-1.607 7.862-3.21 1.962-1.601 3.917-3.199 7.838-3.2 3.921.001 5.875 1.599 7.838 3.2C47.8 33.794 49.77 35.4 53.7 35.4c3.928 0 5.899-1.607 7.861-3.21 1.963-1.601 3.917-3.199 7.839-3.2 3.92.001 5.875 1.599 7.838 3.2C79.2 33.794 81.17 35.4 85.1 35.4c3.929 0 5.9-1.607 7.862-3.21 1.962-1.601 3.917-3.199 7.838-3.2v-.19c-3.929 0-5.9 1.607-7.862 3.21-1.962 1.601-3.917 3.199-7.838 3.2-3.922-.001-5.876-1.599-7.838-3.2-1.963-1.603-3.933-3.21-7.862-3.21-3.93 0-5.9 1.607-7.862 3.21-1.963 1.601-3.917 3.199-7.838 3.2-3.922-.001-5.876-1.599-7.838-3.2-1.963-1.603-3.933-3.21-7.862-3.21-3.929 0-5.9 1.607-7.862 3.21-1.962 1.601-3.917 3.199-7.838 3.2-3.921-.001-5.876-1.599-7.838-3.2-1.963-1.603-3.933-3.21-7.862-3.21v.19" opacity=".095"/>
            <path d="M6.6 31.39c3.921.001 5.876 1.599 7.838 3.2 1.963 1.603 3.933 3.21 7.862 3.21 3.929 0 5.9-1.607 7.862-3.21 1.962-1.601 3.917-3.199 7.838-3.2 3.921.001 5.875 1.599 7.838 3.2 1.962 1.603 3.933 3.21 7.862 3.21 3.929 0 5.899-1.607 7.862-3.21 1.962-1.601 3.917-3.199 7.838-3.2 3.921.001 5.875 1.599 7.838 3.2 1.962 1.603 3.933 3.21 7.862 3.21 3.929 0 5.9-1.607 7.862-3.21 1.962-1.601 3.917-3.199 7.838-3.2v-.19c-3.929 0-5.9 1.607-7.862 3.21-1.962 1.601-3.917 3.199-7.838 3.2-3.922-.001-5.876-1.599-7.838-3.2-1.963-1.603-3.933-3.21-7.862-3.21-3.93 0-5.9 1.607-7.862 3.21-1.963 1.601-3.917 3.199-7.838 3.2-3.921-.001-5.876-1.599-7.838-3.2-1.963-1.603-3.933-3.21-7.862-3.21-3.929 0-5.9 1.607-7.862 3.21-1.962 1.601-3.917 3.199-7.838 3.2-3.921-.001-5.876-1.599-7.838-3.2-1.963-1.603-3.933-3.21-7.862-3.21v.19" opacity=".095"/>
            <path d="M6.6 33.19c3.921.001 5.876 1.599 7.838 3.2 1.963 1.603 3.933 3.21 7.862 3.21 3.929 0 5.9-1.607 7.862-3.21 1.962-1.601 3.917-3.199 7.838-3.2 3.921.001 5.876 1.599 7.838 3.2 1.962 1.603 3.933 3.21 7.862 3.21 3.929 0 5.9-1.607 7.862-3.21 1.962-1.601 3.917-3.199 7.838-3.2 3.921.001 5.876 1.599 7.838 3.2 1.962 1.603 3.933 3.21 7.862 3.21 3.929 0 5.9-1.607 7.862-3.21 1.962-1.601 3.917-3.199 7.838-3.2V33c-3.929 0-5.9 1.607-7.862 3.21-1.962 1.601-3.917 3.199-7.838 3.2-3.921-.001-5.876-1.599-7.838-3.2C75.299 34.606 73.329 33 69.4 33c-3.929 0-5.9 1.607-7.862 3.21-1.963 1.601-3.917 3.199-7.838 3.2-3.921-.001-5.876-1.599-7.838-3.2C43.899 34.606 41.929 33 38 33c-3.929 0-5.9 1.607-7.862 3.21-1.962 1.601-3.917 3.199-7.838 3.2-3.921-.001-5.876-1.599-7.838-3.2C12.499 34.606 10.529 33 6.6 33v.19" opacity=".095"/>
            <path d="M6.6 34.39c3.921.001 5.876 1.599 7.838 3.2 1.963 1.603 3.933 3.21 7.862 3.21 3.929 0 5.9-1.607 7.862-3.21 1.962-1.601 3.917-3.199 7.838-3.2 3.921.001 5.875 1.599 7.838 3.2C47.8 39.194 49.77 40.8 53.7 40.8c3.928 0 5.899-1.607 7.861-3.21 1.963-1.601 3.917-3.199 7.839-3.2 3.92.001 5.875 1.599 7.838 3.2C79.2 39.194 81.17 40.8 85.1 40.8c3.928 0 5.9-1.607 7.862-3.21 1.962-1.601 3.917-3.199 7.838-3.2v-.19c-3.929 0-5.9 1.607-7.862 3.21-1.962 1.601-3.917 3.199-7.838 3.2-3.921-.001-5.876-1.599-7.839-3.2-1.962-1.603-3.933-3.21-7.861-3.21-3.93 0-5.9 1.607-7.862 3.21-1.963 1.601-3.917 3.199-7.838 3.2-3.922-.001-5.876-1.599-7.838-3.2-1.963-1.603-3.933-3.21-7.862-3.21-3.929 0-5.9 1.607-7.862 3.21-1.962 1.601-3.917 3.199-7.838 3.2-3.921-.001-5.876-1.599-7.838-3.2-1.963-1.603-3.933-3.21-7.862-3.21v.19" opacity=".095"/>
            <path d="M7.8 35.59c3.921.001 5.876 1.599 7.838 3.2C17.601 40.394 19.571 42 23.5 42c3.929 0 5.9-1.607 7.862-3.21 1.962-1.601 3.917-3.199 7.838-3.2 3.921.001 5.875 1.599 7.838 3.2C49 40.394 50.971 42 54.9 42c3.928 0 5.9-1.607 7.862-3.21 1.962-1.601 3.917-3.199 7.838-3.2 3.921.001 5.875 1.599 7.838 3.2C80.4 40.394 82.371 42 86.3 42c3.929 0 5.9-1.607 7.862-3.21 1.962-1.601 3.917-3.199 7.838-3.2v-.19c-3.929 0-5.9 1.607-7.862 3.21-1.962 1.601-3.917 3.199-7.838 3.2-3.922-.001-5.876-1.599-7.838-3.2-1.963-1.603-3.933-3.21-7.862-3.21-3.93 0-5.9 1.607-7.862 3.21-1.963 1.601-3.917 3.199-7.838 3.2-3.921-.001-5.876-1.599-7.838-3.2-1.963-1.603-3.933-3.21-7.862-3.21-3.929 0-5.9 1.607-7.862 3.21-1.962 1.601-3.917 3.199-7.838 3.2-3.921-.001-5.876-1.599-7.838-3.2-1.963-1.603-3.933-3.21-7.862-3.21v.19" opacity=".095"/>
            <path d="M7.8 36.79c3.921.001 5.876 1.599 7.838 3.2 1.963 1.603 3.933 3.21 7.862 3.21 3.929 0 5.9-1.607 7.862-3.21 1.962-1.601 3.917-3.199 7.838-3.2 3.921.001 5.876 1.599 7.838 3.2C49 41.594 50.971 43.2 54.9 43.2c3.929 0 5.9-1.607 7.862-3.21 1.962-1.601 3.917-3.199 7.838-3.2 3.921.001 5.875 1.599 7.838 3.2 1.962 1.603 3.933 3.21 7.862 3.21 3.929 0 5.9-1.607 7.862-3.21 1.962-1.601 3.917-3.199 7.838-3.2v-.19c-3.929 0-5.9 1.607-7.862 3.21-1.962 1.601-3.917 3.199-7.838 3.2-3.921-.001-5.876-1.599-7.838-3.2-1.963-1.603-3.933-3.21-7.862-3.21-3.929 0-5.9 1.607-7.862 3.21-1.963 1.601-3.917 3.199-7.838 3.2-3.921-.001-5.876-1.599-7.838-3.2-1.963-1.603-3.933-3.21-7.862-3.21-3.929 0-5.9 1.607-7.862 3.21-1.962 1.601-3.917 3.199-7.838 3.2-3.921-.001-5.876-1.599-7.838-3.2-1.963-1.603-3.933-3.21-7.862-3.21v.19" opacity=".095"/>
            <path d="M9 37.39c3.921.001 5.876 1.599 7.838 3.2 1.963 1.603 3.933 3.21 7.862 3.21 3.929 0 5.9-1.607 7.862-3.21 1.962-1.601 3.917-3.199 7.838-3.2 3.921.001 5.876 1.599 7.838 3.2 1.963 1.603 3.933 3.21 7.862 3.21 3.929 0 5.9-1.607 7.862-3.21 1.962-1.601 3.917-3.199 7.838-3.2 3.92.001 5.876 1.599 7.838 3.2 1.962 1.603 3.933 3.21 7.862 3.21 3.929 0 5.9-1.607 7.862-3.21 1.962-1.601 3.917-3.199 7.838-3.2v-.19c-3.929 0-5.9 1.607-7.862 3.21-1.962 1.601-3.917 3.199-7.838 3.2-3.921-.001-5.876-1.599-7.838-3.2-1.963-1.603-3.933-3.21-7.862-3.21-3.929 0-5.9 1.607-7.862 3.21-1.963 1.601-3.917 3.199-7.838 3.2-3.921-.001-5.876-1.599-7.838-3.2-1.963-1.603-3.933-3.21-7.862-3.21-3.929 0-5.9 1.607-7.862 3.21-1.962 1.601-3.917 3.199-7.838 3.2-3.921-.001-5.876-1.599-7.838-3.2C14.899 38.806 12.929 37.2 9 37.2v.19" opacity=".095"/>
            <path d="M9 38.59c3.921.001 5.876 1.599 7.838 3.2C18.801 43.394 20.771 45 24.7 45c3.929 0 5.9-1.607 7.862-3.21 1.962-1.601 3.917-3.199 7.838-3.2 3.921.001 5.875 1.599 7.838 3.2C50.2 43.394 52.171 45 56.1 45c3.928 0 5.899-1.607 7.862-3.21 1.962-1.601 3.916-3.199 7.838-3.2 3.921.001 5.875 1.599 7.838 3.2C81.601 43.394 83.571 45 87.5 45c3.929 0 5.9-1.607 7.862-3.21 1.962-1.601 3.917-3.199 7.838-3.2v-.19c-3.929 0-5.9 1.607-7.862 3.21-1.962 1.601-3.917 3.199-7.838 3.2-3.921-.001-5.876-1.599-7.838-3.2-1.963-1.603-3.933-3.21-7.862-3.21-3.93 0-5.9 1.607-7.862 3.21-1.963 1.601-3.917 3.199-7.838 3.2-3.921-.001-5.876-1.599-7.838-3.2-1.963-1.603-3.933-3.21-7.862-3.21-3.929 0-5.9 1.607-7.862 3.21-1.962 1.601-3.917 3.199-7.838 3.2-3.921-.001-5.876-1.599-7.838-3.2C14.899 40.006 12.929 38.4 9 38.4v.19" opacity=".095"/>
            <path d="M9 39.79c3.921.001 5.876 1.599 7.838 3.2 1.963 1.603 3.933 3.21 7.862 3.21 3.929 0 5.9-1.607 7.862-3.21 1.962-1.601 3.917-3.199 7.838-3.2 3.921.001 5.875 1.599 7.838 3.2 1.962 1.603 3.933 3.21 7.862 3.21 3.929 0 5.899-1.607 7.862-3.21 1.962-1.601 3.917-3.199 7.838-3.2 3.921.001 5.875 1.599 7.838 3.2 1.962 1.603 3.933 3.21 7.862 3.21 3.929 0 5.9-1.607 7.862-3.21 1.962-1.601 3.917-3.199 7.838-3.2v-.19c-3.929 0-5.9 1.607-7.862 3.21-1.962 1.601-3.917 3.199-7.838 3.2-3.922-.001-5.876-1.599-7.838-3.2-1.963-1.603-3.933-3.21-7.862-3.21-3.93 0-5.9 1.607-7.862 3.21-1.963 1.601-3.917 3.199-7.838 3.2-3.921-.001-5.876-1.599-7.838-3.2-1.963-1.603-3.933-3.21-7.862-3.21-3.929 0-5.9 1.607-7.862 3.21-1.962 1.601-3.917 3.199-7.838 3.2-3.921-.001-5.876-1.599-7.838-3.2C14.899 41.206 12.929 39.6 9 39.6v.19" opacity=".095"/>
            <path d="M9.6 40.39c3.921.001 5.876 1.599 7.838 3.2 1.963 1.603 3.933 3.21 7.862 3.21 3.929 0 5.9-1.607 7.862-3.21 1.962-1.601 3.917-3.199 7.838-3.2 3.921.001 5.876 1.599 7.838 3.2 1.962 1.603 3.933 3.21 7.862 3.21 3.929 0 5.9-1.607 7.862-3.21 1.962-1.601 3.917-3.199 7.838-3.2 3.92.001 5.876 1.599 7.838 3.2 1.962 1.603 3.933 3.21 7.862 3.21 3.929 0 5.9-1.607 7.862-3.21 1.962-1.601 3.917-3.199 7.838-3.2v-.19c-3.929 0-5.9 1.607-7.862 3.21-1.962 1.601-3.917 3.199-7.838 3.2-3.921-.001-5.876-1.599-7.838-3.2-1.963-1.603-3.933-3.21-7.862-3.21-3.929 0-5.9 1.607-7.862 3.21-1.963 1.601-3.917 3.199-7.838 3.2-3.921-.001-5.876-1.599-7.838-3.2-1.963-1.603-3.933-3.21-7.862-3.21-3.929 0-5.9 1.607-7.862 3.21-1.962 1.601-3.917 3.199-7.838 3.2-3.921-.001-5.876-1.599-7.838-3.2-1.963-1.603-3.933-3.21-7.862-3.21v.19" opacity=".095"/>
            <path d="M9 41.59c3.921.001 5.876 1.599 7.838 3.2C18.801 46.394 20.771 48 24.7 48c3.929 0 5.9-1.607 7.862-3.21 1.962-1.601 3.917-3.199 7.838-3.2 3.921.001 5.876 1.599 7.838 3.2C50.2 46.394 52.171 48 56.1 48c3.929 0 5.9-1.607 7.862-3.21 1.962-1.601 3.917-3.199 7.838-3.2 3.92.001 5.876 1.599 7.838 3.2C81.6 46.394 83.571 48 87.5 48c3.929 0 5.9-1.607 7.862-3.21 1.962-1.601 3.917-3.199 7.838-3.2v-.19c-3.929 0-5.9 1.607-7.862 3.21-1.962 1.601-3.917 3.199-7.838 3.2-3.921-.001-5.876-1.599-7.838-3.2-1.963-1.603-3.933-3.21-7.862-3.21-3.929 0-5.9 1.607-7.862 3.21-1.963 1.601-3.917 3.199-7.838 3.2-3.921-.001-5.876-1.599-7.838-3.2-1.963-1.603-3.933-3.21-7.862-3.21-3.929 0-5.9 1.607-7.862 3.21-1.962 1.601-3.917 3.199-7.838 3.2-3.921-.001-5.876-1.599-7.838-3.2C14.899 43.006 12.929 41.4 9 41.4v.19" opacity=".095"/>
            <path d="M9 42.79c3.921.001 5.876 1.599 7.838 3.2 1.963 1.603 3.933 3.21 7.862 3.21 3.929 0 5.9-1.607 7.862-3.21 1.962-1.601 3.917-3.199 7.838-3.2 3.921.001 5.876 1.599 7.838 3.2 1.962 1.603 3.933 3.21 7.862 3.21 3.929 0 5.9-1.607 7.862-3.21 1.962-1.601 3.917-3.199 7.838-3.2 3.92.001 5.876 1.599 7.838 3.2 1.962 1.603 3.933 3.21 7.862 3.21 3.929 0 5.9-1.607 7.862-3.21 1.962-1.601 3.917-3.199 7.838-3.2v-.19c-3.929 0-5.9 1.607-7.862 3.21-1.962 1.601-3.917 3.199-7.838 3.2-3.921-.001-5.876-1.599-7.838-3.2-1.963-1.603-3.933-3.21-7.862-3.21-3.929 0-5.9 1.607-7.862 3.21-1.963 1.601-3.917 3.199-7.838 3.2-3.921-.001-5.876-1.599-7.838-3.2-1.963-1.603-3.933-3.21-7.862-3.21-3.929 0-5.9 1.607-7.862 3.21-1.962 1.601-3.917 3.199-7.838 3.2-3.921-.001-5.876-1.599-7.838-3.2C14.899 44.206 12.929 42.6 9 42.6v.19" opacity=".095"/>
            <path d="M9 43.39c3.921.001 5.876 1.599 7.838 3.2 1.963 1.603 3.933 3.21 7.862 3.21 3.929 0 5.9-1.607 7.862-3.21 1.962-1.601 3.917-3.199 7.838-3.2 3.921.001 5.876 1.599 7.838 3.2 1.962 1.603 3.933 3.21 7.862 3.21 3.929 0 5.9-1.607 7.862-3.21 1.962-1.601 3.917-3.199 7.838-3.2 3.921.001 5.875 1.599 7.838 3.2 1.962 1.603 3.933 3.21 7.862 3.21 3.929 0 5.9-1.607 7.862-3.21 1.962-1.601 3.917-3.199 7.838-3.2v-.19c-3.929 0-5.9 1.607-7.862 3.21-1.962 1.601-3.917 3.199-7.838 3.2-3.922-.001-5.876-1.599-7.838-3.2-1.963-1.603-3.933-3.21-7.862-3.21-3.929 0-5.9 1.607-7.862 3.21-1.963 1.601-3.917 3.199-7.838 3.2-3.921-.001-5.876-1.599-7.838-3.2-1.963-1.603-3.933-3.21-7.862-3.21-3.929 0-5.9 1.607-7.862 3.21-1.962 1.601-3.917 3.199-7.838 3.2-3.921-.001-5.876-1.599-7.838-3.2C14.899 44.806 12.929 43.2 9 43.2v.19" opacity=".095"/>
            <path d="M7.8 43.99c3.921.001 5.876 1.599 7.838 3.2 1.963 1.603 3.933 3.21 7.862 3.21 3.929 0 5.9-1.607 7.862-3.21 1.962-1.601 3.917-3.199 7.838-3.2 3.921.001 5.875 1.599 7.838 3.2C49 48.794 50.971 50.4 54.9 50.4c3.928 0 5.9-1.607 7.862-3.21 1.962-1.601 3.917-3.199 7.838-3.2 3.921.001 5.875 1.599 7.838 3.2 1.962 1.603 3.933 3.21 7.862 3.21 3.929 0 5.9-1.607 7.862-3.21 1.962-1.601 3.917-3.199 7.838-3.2v-.19c-3.929 0-5.9 1.607-7.862 3.21-1.962 1.601-3.917 3.199-7.838 3.2-3.922-.001-5.876-1.599-7.838-3.2-1.963-1.603-3.933-3.21-7.862-3.21-3.93 0-5.9 1.607-7.862 3.21-1.963 1.601-3.917 3.199-7.838 3.2-3.921-.001-5.876-1.599-7.838-3.2-1.963-1.603-3.933-3.21-7.862-3.21-3.929 0-5.9 1.607-7.862 3.21-1.962 1.601-3.917 3.199-7.838 3.2-3.921-.001-5.876-1.599-7.838-3.2-1.963-1.603-3.933-3.21-7.862-3.21v.19" opacity=".095"/>
            <path d="M7.8 45.79c3.921.001 5.876 1.599 7.838 3.2 1.963 1.603 3.933 3.21 7.862 3.21 3.929 0 5.9-1.607 7.862-3.21 1.962-1.601 3.917-3.199 7.838-3.2 3.921.001 5.875 1.599 7.838 3.2C49 50.594 50.971 52.2 54.9 52.2c3.929 0 5.899-1.607 7.862-3.21 1.962-1.601 3.917-3.199 7.838-3.2 3.921.001 5.875 1.599 7.838 3.2 1.962 1.603 3.933 3.21 7.862 3.21 3.929 0 5.9-1.607 7.862-3.21 1.962-1.601 3.917-3.199 7.838-3.2v-.19c-3.929 0-5.9 1.607-7.862 3.21-1.962 1.601-3.917 3.199-7.838 3.2-3.922-.001-5.876-1.599-7.838-3.2-1.963-1.603-3.933-3.21-7.862-3.21-3.93 0-5.9 1.607-7.862 3.21-1.963 1.601-3.917 3.199-7.838 3.2-3.921-.001-5.876-1.599-7.838-3.2-1.963-1.603-3.933-3.21-7.862-3.21-3.929 0-5.9 1.607-7.862 3.21-1.962 1.601-3.917 3.199-7.838 3.2-3.921-.001-5.876-1.599-7.838-3.2-1.963-1.603-3.933-3.21-7.862-3.21v.19" opacity=".095"/>
            <path d="M7.8 46.39c3.921.001 5.876 1.599 7.838 3.2 1.963 1.603 3.933 3.21 7.862 3.21 3.929 0 5.9-1.607 7.862-3.21 1.962-1.601 3.917-3.199 7.838-3.2 3.921.001 5.875 1.599 7.838 3.2C49 51.194 50.971 52.8 54.9 52.8c3.928 0 5.899-1.607 7.862-3.21 1.962-1.601 3.917-3.199 7.838-3.2 3.921.001 5.875 1.599 7.838 3.2 1.962 1.603 3.933 3.21 7.862 3.21 3.929 0 5.9-1.607 7.862-3.21 1.962-1.601 3.917-3.199 7.838-3.2v-.19c-3.929 0-5.9 1.607-7.862 3.21-1.962 1.601-3.917 3.199-7.838 3.2-3.922-.001-5.876-1.599-7.838-3.2-1.963-1.603-3.933-3.21-7.862-3.21-3.93 0-5.9 1.607-7.862 3.21-1.963 1.601-3.917 3.199-7.838 3.2-3.921-.001-5.876-1.599-7.838-3.2-1.963-1.603-3.933-3.21-7.862-3.21-3.929 0-5.9 1.607-7.862 3.21-1.962 1.601-3.917 3.199-7.838 3.2-3.921-.001-5.876-1.599-7.838-3.2-1.963-1.603-3.933-3.21-7.862-3.21v.19" opacity=".095"/>
            <path d="M7.8 46.99c3.921.001 5.876 1.599 7.838 3.2 1.963 1.603 3.933 3.21 7.862 3.21 3.929 0 5.9-1.607 7.862-3.21 1.962-1.601 3.917-3.199 7.838-3.2 3.921.001 5.875 1.599 7.838 3.2C49 51.794 50.971 53.4 54.9 53.4c3.928 0 5.899-1.607 7.862-3.21 1.962-1.601 3.917-3.199 7.838-3.2 3.921.001 5.875 1.599 7.838 3.2 1.962 1.603 3.933 3.21 7.862 3.21 3.929 0 5.9-1.607 7.862-3.21 1.962-1.601 3.917-3.199 7.838-3.2v-.19c-3.929 0-5.9 1.607-7.862 3.21-1.962 1.601-3.917 3.199-7.838 3.2-3.922-.001-5.876-1.599-7.838-3.2-1.963-1.603-3.933-3.21-7.862-3.21-3.93 0-5.9 1.607-7.862 3.21-1.963 1.601-3.917 3.199-7.838 3.2-3.921-.001-5.876-1.599-7.838-3.2-1.963-1.603-3.933-3.21-7.862-3.21-3.929 0-5.9 1.607-7.862 3.21-1.962 1.601-3.917 3.199-7.838 3.2-3.921-.001-5.876-1.599-7.838-3.2-1.963-1.603-3.933-3.21-7.862-3.21v.19" opacity=".095"/>
            <path d="M6.6 48.19c3.921.001 5.876 1.599 7.838 3.2 1.963 1.603 3.933 3.21 7.862 3.21 3.929 0 5.9-1.607 7.862-3.21 1.962-1.601 3.917-3.199 7.838-3.2 3.921.001 5.875 1.599 7.838 3.2 1.962 1.603 3.933 3.21 7.862 3.21 3.928 0 5.899-1.607 7.861-3.21 1.963-1.601 3.917-3.199 7.839-3.2 3.92.001 5.875 1.599 7.838 3.2 1.962 1.603 3.933 3.21 7.862 3.21 3.929 0 5.9-1.607 7.862-3.21 1.962-1.601 3.917-3.199 7.838-3.2V48c-3.929 0-5.9 1.607-7.862 3.21-1.962 1.601-3.917 3.199-7.838 3.2-3.922-.001-5.876-1.599-7.838-3.2C75.299 49.606 73.329 48 69.4 48c-3.93 0-5.9 1.607-7.862 3.21-1.963 1.601-3.917 3.199-7.838 3.2-3.921-.001-5.876-1.599-7.838-3.2C43.899 49.606 41.929 48 38 48c-3.929 0-5.9 1.607-7.862 3.21-1.962 1.601-3.917 3.199-7.838 3.2-3.921-.001-5.876-1.599-7.838-3.2C12.499 49.606 10.529 48 6.6 48v.19" opacity=".095"/>
            <path d="M6.6 49.39c3.921.001 5.876 1.599 7.838 3.2 1.963 1.603 3.933 3.21 7.862 3.21 3.929 0 5.9-1.607 7.862-3.21 1.962-1.601 3.917-3.199 7.838-3.2 3.921.001 5.875 1.599 7.838 3.2C47.8 54.194 49.77 55.8 53.7 55.8c3.928 0 5.899-1.607 7.861-3.21 1.963-1.601 3.917-3.199 7.839-3.2 3.92.001 5.875 1.599 7.838 3.2 1.963 1.603 3.933 3.21 7.862 3.21 3.929 0 5.9-1.607 7.862-3.21 1.962-1.601 3.917-3.199 7.838-3.2v-.19c-3.929 0-5.9 1.607-7.862 3.21-1.962 1.601-3.917 3.199-7.838 3.2-3.922-.001-5.876-1.599-7.838-3.2-1.963-1.603-3.933-3.21-7.862-3.21-3.93 0-5.9 1.607-7.862 3.21-1.963 1.601-3.917 3.199-7.838 3.2-3.922-.001-5.876-1.599-7.838-3.2-1.963-1.603-3.933-3.21-7.862-3.21-3.929 0-5.9 1.607-7.862 3.21-1.962 1.601-3.917 3.199-7.838 3.2-3.921-.001-5.876-1.599-7.838-3.2-1.963-1.603-3.933-3.21-7.862-3.21v.19" opacity=".095"/>
            <path d="M6.6 49.99c3.921.001 5.876 1.599 7.838 3.2 1.963 1.603 3.933 3.21 7.862 3.21 3.929 0 5.9-1.607 7.862-3.21 1.962-1.601 3.917-3.199 7.838-3.2 3.921.001 5.875 1.599 7.838 3.2 1.962 1.603 3.933 3.21 7.862 3.21 3.928 0 5.899-1.607 7.861-3.21 1.963-1.601 3.917-3.199 7.839-3.2 3.92.001 5.875 1.599 7.838 3.2C79.2 54.794 81.17 56.4 85.1 56.4c3.928 0 5.9-1.607 7.862-3.21 1.962-1.601 3.917-3.199 7.838-3.2v-.19c-3.929 0-5.9 1.607-7.862 3.21-1.962 1.601-3.917 3.199-7.838 3.2-3.921-.001-5.876-1.599-7.839-3.2C75.3 51.406 73.33 49.8 69.4 49.8c-3.93 0-5.9 1.607-7.862 3.21-1.963 1.601-3.917 3.199-7.838 3.2-3.922-.001-5.876-1.599-7.838-3.2-1.963-1.603-3.933-3.21-7.862-3.21-3.929 0-5.9 1.607-7.862 3.21-1.962 1.601-3.917 3.199-7.838 3.2-3.921-.001-5.876-1.599-7.838-3.2-1.963-1.603-3.933-3.21-7.862-3.21v.19" opacity=".095"/>
            <path d="M6.6 51.19c3.921.001 5.876 1.599 7.838 3.2 1.963 1.603 3.933 3.21 7.862 3.21 3.929 0 5.9-1.607 7.862-3.21 1.962-1.601 3.917-3.199 7.838-3.2 3.921.001 5.875 1.599 7.838 3.2C47.8 55.994 49.77 57.6 53.7 57.6c3.928 0 5.899-1.607 7.861-3.21 1.963-1.601 3.917-3.199 7.839-3.2 3.92.001 5.875 1.599 7.838 3.2C79.2 55.994 81.17 57.6 85.1 57.6c3.928 0 5.9-1.607 7.862-3.21 1.962-1.601 3.917-3.199 7.838-3.2V51c-3.929 0-5.9 1.607-7.862 3.21-1.962 1.601-3.917 3.199-7.838 3.2-3.921-.001-5.876-1.599-7.839-3.2C75.3 52.606 73.33 51 69.4 51c-3.93 0-5.9 1.607-7.862 3.21-1.963 1.601-3.917 3.199-7.838 3.2-3.922-.001-5.876-1.599-7.838-3.2C43.899 52.606 41.929 51 38 51c-3.929 0-5.9 1.607-7.862 3.21-1.963 1.601-3.917 3.199-7.838 3.2-3.921-.001-5.876-1.599-7.838-3.2C12.499 52.606 10.529 51 6.6 51v.19" opacity=".095"/>
            <path d="M5.4 51.79c3.921.001 5.876 1.599 7.838 3.2 1.963 1.603 3.933 3.21 7.862 3.21 3.929 0 5.9-1.607 7.862-3.21 1.962-1.601 3.917-3.199 7.838-3.2 3.921.001 5.875 1.599 7.838 3.2C46.6 56.594 48.57 58.2 52.5 58.2c3.928 0 5.899-1.607 7.861-3.21 1.963-1.601 3.917-3.199 7.839-3.2 3.92.001 5.875 1.599 7.838 3.2C78 56.594 79.97 58.2 83.9 58.2c3.928 0 5.9-1.607 7.862-3.21 1.962-1.601 3.917-3.199 7.838-3.2v-.19c-3.929 0-5.9 1.607-7.862 3.21-1.962 1.601-3.917 3.199-7.838 3.2-3.921-.001-5.876-1.599-7.839-3.2C74.1 53.206 72.13 51.6 68.2 51.6c-3.93 0-5.9 1.607-7.862 3.21-1.963 1.601-3.917 3.199-7.838 3.2-3.922-.001-5.876-1.599-7.838-3.2-1.963-1.603-3.933-3.21-7.862-3.21-3.929 0-5.9 1.607-7.862 3.21-1.962 1.601-3.917 3.199-7.838 3.2-3.921-.001-5.876-1.599-7.838-3.2-1.963-1.603-3.933-3.21-7.862-3.21v.19" opacity=".095"/>
            <path d="M4.8 52.99c3.921.001 5.876 1.599 7.838 3.2 1.963 1.603 3.933 3.21 7.862 3.21 3.929 0 5.9-1.607 7.862-3.21 1.962-1.601 3.917-3.199 7.838-3.2 3.921.001 5.875 1.599 7.838 3.2C46 57.794 47.97 59.4 51.9 59.4c3.928 0 5.899-1.607 7.861-3.21 1.963-1.601 3.917-3.199 7.839-3.2 3.92.001 5.875 1.599 7.838 3.2C77.4 57.794 79.37 59.4 83.3 59.4c3.928 0 5.9-1.607 7.862-3.21 1.962-1.601 3.917-3.199 7.838-3.2v-.19c-3.929 0-5.9 1.607-7.862 3.21-1.962 1.601-3.917 3.199-7.838 3.2-3.921-.001-5.876-1.599-7.839-3.2-1.962-1.603-3.933-3.21-7.861-3.21-3.93 0-5.9 1.607-7.862 3.21-1.963 1.601-3.917 3.199-7.838 3.2-3.922-.001-5.876-1.599-7.838-3.2-1.963-1.603-3.933-3.21-7.862-3.21-3.929 0-5.9 1.607-7.862 3.21-1.962 1.601-3.917 3.199-7.838 3.2-3.921-.001-5.876-1.599-7.838-3.2-1.963-1.603-3.933-3.21-7.862-3.21v.19" opacity=".101"/>
        </g>
    </g>
</svg>
