<svg xmlns="http://www.w3.org/2000/svg" width="184" height="45" viewBox="0 0 184 45" fill="none">
  <path d="M0.554688 22.1687L23.955 0V7.84015L8.8304 22.1687L23.955 36.4973V44.3374L0.554688 22.1687Z" fill="#130A36"/>
  <path d="M51.3496 22.1687L27.9493 0V7.84015L43.0739 22.1687L27.9493 36.4973V44.3374L51.3496 22.1687Z" fill="#130A36"/>
  <ellipse cx="25.9526" cy="21.8984" rx="7.13424" ry="6.75875" fill="#130A36"/>
  <path d="M141.596 30.422C142.177 30.422 142.773 30.3807 143.384 30.2981C143.994 30.188 144.488 30.0779 144.866 29.9677V32.7348C144.459 32.9275 143.878 33.0789 143.122 33.189C142.366 33.3267 141.64 33.3955 140.942 33.3955C139.722 33.3955 138.588 33.2028 137.542 32.8174C136.525 32.4044 135.697 31.7023 135.057 30.7111C134.418 29.72 134.098 28.3296 134.098 26.54V13.6548H130.785V11.9202L134.142 10.4748L135.668 5.76672H137.934V10.8465H144.691V13.6548H137.934V26.4574C137.934 27.8064 138.269 28.8114 138.937 29.4722C139.635 30.1054 140.521 30.422 141.596 30.422Z" fill="#130A36"/>
  <path d="M125.073 10.8466V32.9827H121.237V10.8466H125.073ZM123.198 2.54553C123.78 2.54553 124.288 2.73826 124.724 3.12371C125.189 3.48164 125.422 4.05982 125.422 4.85826C125.422 5.62917 125.189 6.20735 124.724 6.5928C124.288 6.97826 123.78 7.17099 123.198 7.17099C122.559 7.17099 122.021 6.97826 121.586 6.5928C121.15 6.20735 120.932 5.62917 120.932 4.85826C120.932 4.05982 121.15 3.48164 121.586 3.12371C122.021 2.73826 122.559 2.54553 123.198 2.54553Z" fill="#130A36"/>
  <path d="M114.272 26.8705C114.272 28.3022 113.894 29.4998 113.139 30.4634C112.383 31.4271 111.308 32.1567 109.913 32.6523C108.518 33.1479 106.861 33.3957 104.943 33.3957C103.316 33.3957 101.906 33.2718 100.715 33.024C99.5524 32.7762 98.5207 32.432 97.6198 31.9915V28.6876C98.5498 29.1281 99.6686 29.5411 100.976 29.9266C102.313 30.2845 103.665 30.4634 105.031 30.4634C106.978 30.4634 108.387 30.1744 109.259 29.5962C110.131 28.9905 110.567 28.192 110.567 27.2009C110.567 26.6502 110.407 26.1546 110.087 25.7141C109.768 25.2736 109.186 24.8331 108.344 24.3925C107.53 23.952 106.353 23.4564 104.813 22.9058C103.301 22.3551 102.008 21.8045 100.933 21.2538C99.8575 20.7032 99.0293 20.0424 98.448 19.2715C97.8668 18.5006 97.5762 17.5094 97.5762 16.298C97.5762 14.4258 98.3754 12.9803 99.9738 11.9616C101.601 10.9429 103.723 10.4336 106.338 10.4336C107.762 10.4336 109.085 10.5713 110.305 10.8466C111.555 11.0944 112.717 11.4523 113.793 11.9203L112.485 14.8113C111.846 14.5359 111.163 14.3019 110.436 14.1092C109.739 13.8889 109.027 13.7237 108.3 13.6136C107.574 13.4759 106.832 13.4071 106.077 13.4071C104.507 13.4071 103.301 13.6549 102.459 14.1505C101.645 14.6185 101.238 15.2655 101.238 16.0915C101.238 16.6972 101.427 17.2203 101.805 17.6609C102.183 18.0738 102.807 18.4868 103.679 18.8998C104.58 19.2853 105.772 19.7533 107.254 20.304C108.736 20.8271 110 21.364 111.046 21.9146C112.093 22.4653 112.892 23.1398 113.444 23.9383C113.996 24.7092 114.272 25.6866 114.272 26.8705Z" fill="#130A36"/>
  <path d="M90.3367 10.8466V32.9827H86.5005V10.8466H90.3367ZM88.4622 2.54553C89.0434 2.54553 89.552 2.73826 89.9879 3.12371C90.4529 3.48164 90.6854 4.05982 90.6854 4.85826C90.6854 5.62917 90.4529 6.20735 89.9879 6.5928C89.552 6.97826 89.0434 7.17099 88.4622 7.17099C87.8228 7.17099 87.2851 6.97826 86.8492 6.5928C86.4133 6.20735 86.1953 5.62917 86.1953 4.85826C86.1953 4.05982 86.4133 3.48164 86.8492 3.12371C87.2851 2.73826 87.8228 2.54553 88.4622 2.54553Z" fill="#130A36"/>
  <path d="M68.1892 32.9826L59.3398 10.8466H63.4376L68.4072 23.8969C68.6397 24.5027 68.8867 25.1772 69.1483 25.9206C69.4098 26.6639 69.6423 27.3798 69.8458 28.0681C70.0492 28.7289 70.1945 29.2933 70.2817 29.7613H70.4561C70.5723 29.2933 70.7322 28.7151 70.9356 28.0268C71.1681 27.3385 71.4151 26.6227 71.6767 25.8793C71.9673 25.1359 72.2143 24.4751 72.4178 23.8969L77.3874 10.8466H81.4851L72.5921 32.9826H68.1892Z" fill="#130A36"/>
  <path d="M160.977 10.8466H165.074L170.131 23.4427C170.422 24.186 170.683 24.9019 170.916 25.5902C171.177 26.2785 171.41 26.953 171.613 27.6138C171.817 28.2471 171.977 28.8665 172.093 29.4723H172.267C172.442 28.7839 172.718 27.8891 173.095 26.7878C173.473 25.659 173.866 24.5302 174.272 23.4014L179.024 10.8466H183.165L173.095 36.0387C172.543 37.4154 171.889 38.613 171.134 39.6317C170.407 40.678 169.506 41.4764 168.431 42.0271C167.385 42.6052 166.106 42.8943 164.595 42.8943C163.897 42.8943 163.287 42.853 162.764 42.7704C162.241 42.7154 161.79 42.6465 161.412 42.5639V39.673C161.732 39.7281 162.11 39.7832 162.546 39.8382C163.011 39.8933 163.49 39.9208 163.984 39.9208C164.885 39.9208 165.656 39.7556 166.295 39.4252C166.963 39.1224 167.53 38.6681 167.995 38.0624C168.46 37.4842 168.852 36.7959 169.172 35.9974L170.393 33.0652L160.977 10.8466Z" fill="#5E2CED"/>
  <path d="M155.918 32.9827H152.082V1.5957H155.918V32.9827Z" fill="#5E2CED"/>
</svg>