<svg width="456" height="136" viewBox="0 0 456 136" fill="none" xmlns="http://www.w3.org/2000/svg">
<rect x="2" y="2" width="134" height="124" fill="white" stroke="black" stroke-width="4"/>
<rect x="161" y="2" width="134" height="125" fill="white" stroke="black" stroke-width="4"/>
<rect x="320" y="2" width="134" height="124" fill="white" stroke="black" stroke-width="4"/>
<path d="M68.5691 103.62C61.9424 103.62 56.4824 102.36 52.1891 99.84C47.8957 97.2267 45.5624 93.7733 45.1891 89.48L49.2491 88.36C49.2491 91.5333 51.0224 94.1933 54.5691 96.34C58.2091 98.3933 62.8757 99.42 68.5691 99.42C74.4491 99.42 79.2091 98.3467 82.8491 96.2C86.5824 94.0533 88.4491 91.3 88.4491 87.94C88.4491 84.7667 86.9091 82.2 83.8291 80.24C80.7491 78.28 76.5491 76.5533 71.2291 75.06L62.5491 72.54C50.9757 69.18 42.2491 64.9333 36.3691 59.8C30.4891 54.6667 27.5491 47.62 27.5491 38.66C27.5491 32.22 29.3224 26.5267 32.8691 21.58C36.5091 16.54 41.4091 12.5733 47.5691 9.67999C53.8224 6.78666 60.8691 5.33999 68.7091 5.33999C75.8024 5.33999 82.1957 6.50666 87.8891 8.84C93.6757 11.08 98.4357 14.3 102.169 18.5C105.996 22.7 108.422 27.6 109.449 33.2L105.389 34.32C104.549 29.3733 102.449 25.0333 99.0891 21.3C95.7291 17.5667 91.4357 14.6733 86.2091 12.62C80.9824 10.5667 75.1491 9.54 68.7091 9.54C61.6157 9.54 55.2691 10.8467 49.6691 13.46C44.1624 15.98 39.7757 19.4333 36.5091 23.82C33.3357 28.2067 31.7491 33.2467 31.7491 38.94C31.7491 46.5933 34.4091 52.7533 39.7291 57.42C45.1424 61.9933 53.1224 65.7267 63.6691 68.62L72.3491 71C78.7891 72.7733 83.7824 74.92 87.3291 77.44C90.8757 79.96 92.6491 83.3667 92.6491 87.66C92.6491 92.42 90.4557 96.2933 86.0691 99.28C81.6824 102.173 75.8491 103.62 68.5691 103.62ZM68.5691 112.86C59.7957 112.86 52.4224 110.947 46.4491 107.12C40.5691 103.2 37.1157 98.1133 36.0891 91.86L40.2891 90.74C41.0357 96.1533 43.9291 100.493 48.9691 103.76C54.1024 107.027 60.6357 108.66 68.5691 108.66C74.3557 108.66 79.4424 107.773 83.8291 106C88.2157 104.227 91.6224 101.753 94.0491 98.58C96.4757 95.4067 97.6891 91.7667 97.6891 87.66C97.6891 81.9667 95.5424 77.4867 91.2491 74.22C86.9557 70.86 81.0291 68.1533 73.4691 66.1L64.9291 63.72C55.8757 61.2 48.9224 58.0267 44.0691 54.2C39.2157 50.3733 36.7891 45.2867 36.7891 38.94C36.7891 34.18 38.1424 29.98 40.8491 26.34C43.6491 22.7 47.4757 19.8533 52.3291 17.8C57.1824 15.6533 62.6424 14.58 68.7091 14.58C74.4024 14.58 79.4891 15.4667 83.9691 17.24C88.5424 18.92 92.2757 21.3467 95.1691 24.52C98.0624 27.6933 99.8357 31.38 100.489 35.58L96.2891 36.7C95.6357 31.2867 92.7424 26.9467 87.6091 23.68C82.5691 20.4133 76.2691 18.78 68.7091 18.78C63.3891 18.78 58.6291 19.6667 54.4291 21.44C50.2291 23.12 46.9157 25.5 44.4891 28.58C42.1557 31.5667 40.9891 35.02 40.9891 38.94C40.9891 44.26 43.0891 48.46 47.2891 51.54C51.5824 54.62 57.7891 57.3267 65.9091 59.66L74.3091 62.04C82.9891 64.4667 89.7557 67.6867 94.6091 71.7C99.4624 75.62 101.889 80.94 101.889 87.66C101.889 92.6067 100.489 96.9933 97.6891 100.82C94.8891 104.553 90.9691 107.493 85.9291 109.64C80.9824 111.787 75.1957 112.86 68.5691 112.86ZM68.5691 122.1C61.2891 122.1 54.7091 120.98 48.8291 118.74C43.0424 116.407 38.2357 113.187 34.4091 109.08C30.6757 104.88 28.2491 99.9333 27.1291 94.24L31.1891 93.12C32.1224 98.16 34.2224 102.547 37.4891 106.28C40.8491 109.92 45.1891 112.767 50.5091 114.82C55.8291 116.873 61.8491 117.9 68.5691 117.9C76.2224 117.9 82.8957 116.64 88.5891 114.12C94.3757 111.507 98.8557 107.96 102.029 103.48C105.296 98.9067 106.929 93.6333 106.929 87.66C106.929 79.7267 104.176 73.38 98.6691 68.62C93.1624 63.86 85.4157 60.0333 75.4291 57.14L67.1691 54.76C60.3557 52.8 55.1291 50.6533 51.4891 48.32C47.8491 45.9867 46.0291 42.86 46.0291 38.94C46.0291 34.3667 48.1757 30.7267 52.4691 28.02C56.7624 25.22 62.1757 23.82 68.7091 23.82C75.0557 23.82 80.2824 25.1267 84.3891 27.74C88.4957 30.3533 90.8291 33.76 91.3891 37.96L87.3291 39.08C87.1424 35.8133 85.3224 33.1533 81.8691 31.1C78.5091 29.0467 74.1224 28.02 68.7091 28.02C63.5757 28.02 59.1891 29 55.5491 30.96C52.0024 32.92 50.2291 35.4867 50.2291 38.66C50.2291 41.5533 51.8624 43.8867 55.1291 45.66C58.4891 47.4333 62.8757 49.1133 68.2891 50.7L76.2691 53.08C87.5624 56.44 96.1957 60.8267 102.169 66.24C108.142 71.56 111.129 78.7933 111.129 87.94C111.129 94.5667 109.309 100.493 105.669 105.72C102.122 110.853 97.1291 114.867 90.6891 117.76C84.3424 120.653 76.9691 122.1 68.5691 122.1Z" fill="black"/>
<path d="M194.55 121L235.29 8.44H239.77L199.03 121H194.55ZM174.95 121L215.69 8.44H220.03L179.43 121H174.95ZM184.75 121L225.35 8.44H229.97L189.23 121H184.75ZM276.59 121L240.05 20.06L242.29 13.76L281.07 121H276.59ZM266.79 121L235.29 33.78L237.39 27.34L271.27 121H266.79ZM256.99 121L230.39 47.36L232.63 41.06L261.47 121H256.99ZM217.37 83.76L218.91 79.56H237.39L238.93 83.76H217.37ZM214.01 93.14L215.55 88.94H240.75L242.29 93.14H214.01ZM210.65 102.38L212.19 98.18H244.11L245.65 102.38H210.65Z" fill="black"/>
<path d="M348.837 120V7.44H353.037V120H348.837ZM330.357 120V7.44H334.557V120H330.357ZM339.597 120V7.44H343.797V120H339.597ZM439.417 120V7.44H443.617V120H439.417ZM420.937 120V7.44H425.137V120H420.937ZM430.177 120V7.44H434.377V120H430.177ZM392.237 55.04L389.717 51.26L415.897 13.32V20.74L392.237 55.04ZM397.837 79.26L358.077 22.42V15.28L400.497 75.62L397.837 79.26ZM397.977 63.16L395.457 59.38L415.897 30.26V37.54L397.977 63.16ZM392.237 87.52L358.077 38.8V31.38L394.757 83.74L392.237 87.52ZM403.577 71.14L401.057 67.5L415.897 46.36V53.64L403.577 71.14ZM386.637 95.5L358.077 54.9V47.48L389.157 91.86L386.637 95.5Z" fill="black"/>
</svg>
