<svg version="1.2" xmlns="http://www.w3.org/2000/svg" viewBox="0 0 800 1200" width="800" height="1200">
	<title>v915-mynt-006-e-ai</title>
	<defs>
		<clipPath clipPathUnits="userSpaceOnUse" id="cp1">
			<path d="m0 1200v-1200h544.26v1200z"/>
		</clipPath>
	</defs>
	<style>
		.s0 { fill: #2a303d } 
	</style>
	<g id="Graphic elements">
		<g id="&lt;Clip Group&gt;" clip-path="url(#cp1)">
			<g id="&lt;Group&gt;">
				<g id="&lt;Group&gt;">
					<path id="&lt;Path&gt;" class="s0" d="m463.4 62.3l-39.4 74.9-39.2 75.3c-6.5 12.5-13 25.1-19.4 37.7l-19.5 37.9-19.4 37.8-19.3 37.9-38.7 76-76.7 152.6-3.9 7.6 3.9 7.6 76.7 152.6 38.7 76 19.3 37.9 19.4 37.9c13 25.1 25.9 50.4 38.9 75.5l39.2 75.3 39.4 74.9 19.7 37.4 20 37.2 0.6-0.9-305.2-611.4 305.2-611.4-0.6-0.9-20 37.2z"/>
					<path id="&lt;Path&gt;" class="s0" d="m451.9 62.4l-39.4 74.9-39.1 75.4c-6.5 12.5-13 25.1-19.5 37.7l-19.4 37.9-19.4 37.8-19.3 38-38.6 76-76.8 152.6-3.7 7.3 3.7 7.3 76.8 152.6 38.6 76 19.3 38 19.4 37.8c13 25.2 25.9 50.5 38.9 75.7l39.1 75.3 39.4 74.9 19.7 37.5 19.9 37.2 0.6-0.9-305.2-611.4 305.2-611.4-0.6-0.9-19.9 37.2z"/>
					<path id="&lt;Path&gt;" class="s0" d="m440.4 62.5l-39.4 75-39 75.4c-13.1 25.1-25.9 50.4-38.9 75.6l-19.4 37.9-19.3 37.9-38.6 76.1-76.8 152.5-3.5 7.1 3.5 7.1 76.8 152.6 38.6 76 19.3 38 19.4 37.8c12.9 25.2 25.8 50.5 38.9 75.7l39 75.3 39.4 75 19.7 37.5 19.8 37.2 0.6-0.7-305.3-611.5 305.3-611.5-0.6-0.7-19.8 37.2z"/>
					<path id="&lt;Path&gt;" class="s0" d="m428.9 62.6l-39.3 75-39.1 75.4c-13 25.2-25.9 50.5-38.8 75.7l-19.4 37.9-19.3 38-38.6 76-76.8 152.6-3.4 6.8 3.4 6.8 76.8 152.6 38.6 76 19.3 38 19.4 37.9c12.9 25.2 25.8 50.5 38.8 75.7l39 75.4 39.4 75 19.6 37.6 19.9 37.2 0.5-0.7-305.3-611.5 305.3-611.5-0.5-0.7-19.9 37.2z"/>
					<path id="&lt;Path&gt;" class="s0" d="m417.4 62.6l-39.3 75.2-39 75.4c-13 25.2-25.9 50.5-38.8 75.7l-19.4 37.9-19.3 38-38.6 76.1-76.7 152.6-3.3 6.5 3.3 6.5 76.7 152.6 38.6 76.1 19.3 38 19.4 37.9c12.9 25.2 25.8 50.5 38.8 75.7l39 75.5 39.3 75.1 19.6 37.5 19.8 37.3 0.5-0.7-305.3-611.5 305.3-611.5-0.5-0.7-19.8 37.3z"/>
					<path id="&lt;Path&gt;" class="s0" d="m405.8 62.7l-39.2 75.2-38.9 75.5c-13 25.2-25.9 50.5-38.8 75.8l-19.4 37.9-19.3 38-38.6 76-76.7 152.7-3.1 6.2 3.1 6.2 76.7 152.7 38.6 76 19.3 38.1 19.3 37.9c13 25.2 25.9 50.5 38.8 75.7l39 75.5 39.2 75.2 19.7 37.5 19.7 37.4 0.6-0.7-305.4-611.5 305.4-611.5-0.6-0.7-19.7 37.4z"/>
					<path id="&lt;Path&gt;" class="s0" d="m394.3 62.8l-39.2 75.2-77.6 151.4-19.4 37.9-19.3 38-38.5 76.1-76.8 152.7-3 5.9 3 5.9 76.7 152.7 38.6 76.1 19.3 38 19.4 37.9 77.6 151.4 39.2 75.2 19.6 37.6 19.8 37.4 0.5-0.7-305.4-611.5 305.4-611.5-0.5-0.7-19.8 37.4z"/>
					<path id="&lt;Path&gt;" class="s0" d="m382.8 62.9l-39.1 75.3-77.6 151.5-19.4 37.8-19.3 38.1-38.5 76.1-76.7 152.6-2.9 5.7 2.9 5.7 76.7 152.6 38.5 76.1 19.3 38.1 19.4 37.9 77.6 151.4 39.1 75.3 19.6 37.6 19.7 37.5 0.5-0.7-305.4-611.5 305.4-611.5-0.5-0.7-19.7 37.5z"/>
					<path id="&lt;Path&gt;" class="s0" d="m371.3 63l-39.1 75.3-77.5 151.6-19.4 37.9-19.3 38-38.5 76.1-76.7 152.7-2.7 5.4 2.7 5.4 76.7 152.7 38.5 76.1 19.3 38 19.3 37.9 77.6 151.6 39.1 75.3 19.5 37.7 19.7 37.5 0.5-0.6-305.5-611.6 305.5-611.6-0.5-0.6-19.7 37.5z"/>
					<path id="&lt;Path&gt;" class="s0" d="m359.8 63.1l-39.1 75.4-77.5 151.6-19.3 37.9-19.3 38.1-38.5 76.1-76.7 152.7-2.5 5.1 2.5 5.1 76.7 152.7 38.5 76.2 19.3 38 19.3 37.9 77.5 151.6 39.1 75.4 19.5 37.7 19.7 37.5 0.4-0.5-305.5-611.6 305.5-611.6-0.4-0.5-19.7 37.5z"/>
					<path id="&lt;Path&gt;" class="s0" d="m348.3 63.2l-39 75.4-77.5 151.7-19.3 37.9-19.3 38.1-38.4 76.3-76.7 152.6-2.5 4.8 2.5 4.8 76.7 152.6 38.4 76.3 19.3 38.1 19.3 37.9 77.5 151.7 39 75.4 19.5 37.8 19.6 37.5 0.4-0.5-305.5-611.6 305.5-611.6-0.4-0.5-19.6 37.5z"/>
					<path id="&lt;Path&gt;" class="s0" d="m336.8 63.2l-39 75.6-77.4 151.7-19.3 38-19.2 38.1-38.4 76.3-76.8 152.6-2.3 4.5 2.3 4.5 76.8 152.6 38.3 76.3 19.3 38.1 19.3 38 77.4 151.7 38.9 75.6 19.5 37.7 19.6 37.6 0.4-0.5-305.5-611.6 305.5-611.6-0.4-0.5-19.6 37.6z"/>
					<path id="&lt;Path&gt;" class="s0" d="m325.2 63.3l-38.9 75.6-77.3 151.8-19.3 38-19.2 38.1-38.4 76.3-76.8 152.6-2.1 4.3 2.1 4.3 76.8 152.6 38.3 76.3 19.3 38.1 19.3 38 77.3 151.8 38.9 75.6 19.5 37.8 19.6 37.6 0.3-0.5-305.5-611.6 305.5-611.6-0.3-0.5-19.6 37.6z"/>
					<path id="&lt;Path&gt;" class="s0" d="m313.7 63.4l-38.9 75.6-77.2 152-19.3 37.9-19.2 38.2-38.4 76.3-76.8 152.6-2 4 2 4 76.8 152.6 38.4 76.3 19.1 38.2 19.4 38 77.2 151.9 38.9 75.6 19.5 37.8 19.5 37.7 0.3-0.5-305.5-611.6 305.5-611.6-0.3-0.5-19.5 37.7z"/>
					<path id="&lt;Path&gt;" class="s0" d="m302.2 63.5l-38.8 75.7-77.2 152-19.3 38-19.2 38.1-38.4 76.3-76.7 152.7-1.9 3.7 1.9 3.7 76.7 152.7 38.4 76.3 19.1 38.1 19.3 38 77.3 152 38.8 75.7 19.4 37.8 19.5 37.8 0.3-0.5-305.6-611.6 305.6-611.6-0.3-0.5-19.5 37.8z"/>
					<path id="&lt;Path&gt;" class="s0" d="m290.7 63.6l-38.8 75.7-77.2 152.1-19.2 38-19.2 38.2-38.4 76.3-76.7 152.7-1.7 3.4 1.7 3.4 76.7 152.7 38.4 76.3 19.1 38.2 19.3 38 77.2 152.1 38.8 75.7 19.4 37.9 19.5 37.7 0.3-0.3-305.7-611.7 305.7-611.7-0.3-0.3-19.5 37.7z"/>
					<path id="&lt;Path&gt;" class="s0" d="m279.2 63.7l-38.8 75.8-77.1 152.1-19.3 38-19.1 38.2-38.4 76.3-76.7 152.7-1.6 3.2 1.6 3.2 76.7 152.7 38.4 76.3 19.1 38.2 19.3 38 77.1 152.1 38.8 75.8 19.3 37.9 19.5 37.8 0.3-0.3-305.7-611.7 305.7-611.7-0.3-0.3-19.5 37.8z"/>
					<path id="&lt;Path&gt;" class="s0" d="m151.9 291.8l-19.3 38.1-19.1 38.1-38.4 76.4-76.6 152.7-1.5 2.9 1.5 2.9 76.6 152.7 38.4 76.4 19.1 38.1 19.3 38.1 77.1 152.2 77.4 151.6 0.3-0.3-305.7-611.7 305.7-611.7-0.3-0.3-77.4 151.6z"/>
					<path id="&lt;Path&gt;" class="s0" d="m140.5 292l-19.3 38.1-19.1 38.2-38.4 76.4-76.6 152.7-1.3 2.6 1.3 2.6 76.6 152.7 38.4 76.4 19.1 38.2 19.3 38.1 77 152.2 77.4 151.8 0.2-0.3-305.7-611.7 305.7-611.7-0.2-0.3-77.4 151.8z"/>
					<path id="&lt;Path&gt;" class="s0" d="m-21.9 599.3l305.4-611-0.2-0.3-77.3 151.9-76.9 152.4c-25.7 50.7-51.2 101.7-76.8 152.6l-74.2 148z"/>
					<path id="&lt;Path&gt;" class="s0" d="m-21.9 607.1l74.2 148 38.4 76.4 19.1 38.2 19.3 38 76.9 152.4 77.3 151.9 0.2-0.3-305.4-611z"/>
					<path id="&lt;Path&gt;" class="s0" d="m-21.9 576.1l293.8-587.8-0.2-0.3-77.2 152.1-76.8 152.4c-25.7 50.7-51.2 101.8-76.7 152.7l-62.9 125.3z"/>
					<path id="&lt;Path&gt;" class="s0" d="m-21.9 629.5l62.9 125.3 38.3 76.4 19.1 38.2 19.3 38.1 76.8 152.4 77.2 152.1 0.2-0.3-293.8-587.8z"/>
					<path id="&lt;Path&gt;" class="s0" d="m-21.9 552.9l282.2-564.7-0.1-0.2-77.1 152.2-76.7 152.7-128.3 255.3z"/>
					<path id="&lt;Path&gt;" class="s0" d="m-21.9 651.8l128.3 255.3 76.7 152.7 77.1 152.2 0.1-0.2-282.2-564.7z"/>
					<path id="&lt;Path&gt;" class="s0" d="m-21.9 529.6l270.6-541.4-0.1-0.1-77 152.2-76.7 152.8-116.8 232.7z"/>
					<path id="&lt;Path&gt;" class="s0" d="m-21.9 674.2l116.8 232.7 76.7 152.8 77 152.2 0.1-0.1-270.6-541.4z"/>
					<path id="&lt;Path&gt;" class="s0" d="m-21.9 506.4l259-518.2-0.1-0.1-76.9 152.4-76.6 152.7-105.4 210.2z"/>
					<path id="&lt;Path&gt;" class="s0" d="m-21.9 696.6l105.4 210.2 76.6 152.7 76.9 152.4 0.1-0.1-259-518.2z"/>
					<path id="&lt;Path&gt;" class="s0" d="m-21.9 483.2l247.4-495v-0.1l-76.8 152.5-76.6 152.8-94 187.5z"/>
					<path id="&lt;Path&gt;" class="s0" d="m-21.9 719.1l94 187.5 76.6 152.8 76.8 152.5v-0.1l-247.4-495z"/>
					<path id="&lt;Path&gt;" class="s0" d="m-21.9 459.9l235.9-471.7-0.1-0.1-235.8 470.4z"/>
					<path id="&lt;Path&gt;" class="s0" d="m-21.9 741.5l235.8 470.4 0.1-0.1-235.9-471.7z"/>
					<path id="&lt;Path&gt;" class="s0" d="m197.3 1201.5l5.2 10.4 0.1-0.1-5.2-10.3z"/>
					<path id="&lt;Path&gt;" class="s0" d="m192 1190.9l5.2 10.4 0.1-0.1-5.2-10.4z"/>
					<path id="&lt;Path&gt;" class="s0" d="m186.7 1180.3l5.2 10.3v-0.1l-5.1-10.3z"/>
					<path id="&lt;Path&gt;" class="s0" d="m186.6 1179.9l-5.2-10.4-0.1 0.1 5.2 10.4z"/>
					<path id="&lt;Path&gt;" class="s0" d="m181.3 1169.2l-5.2-10.3-0.1 0.1 5.2 10.4z"/>
					<path id="&lt;Path&gt;" class="s0" d="m176 1158.6l-5.2-10.4-0.1 0.2 5.2 10.3z"/>
					<path id="&lt;Path&gt;" class="s0" d="m165.3 1137.7l5.2 10.4 0.1-0.1-5.1-10.4z"/>
					<path id="&lt;Path&gt;" class="s0" d="m160 1127.1l5.2 10.4 0.1-0.2-5.2-10.4z"/>
					<path id="&lt;Path&gt;" class="s0" d="m154.7 1116.5l5.2 10.3 0.1-0.1-5.2-10.4z"/>
					<path id="&lt;Path&gt;" class="s0" d="m149.3 1105.8l5.2 10.4 0.2-0.2-5.2-10.3z"/>
					<path id="&lt;Path&gt;" class="s0" d="m144 1095.2l5.2 10.4 0.1-0.2-5.2-10.4z"/>
					<path id="&lt;Path&gt;" class="s0" d="m138.7 1084.6l5.2 10.3 0.1-0.2-5.2-10.3z"/>
					<path id="&lt;Path&gt;" class="s0" d="m133.3 1073.9l5.2 10.4 0.2-0.2-5.2-10.4z"/>
					<path id="&lt;Path&gt;" class="s0" d="m128 1063.3l5.2 10.4 0.2-0.3-5.2-10.3z"/>
					<path id="&lt;Path&gt;" class="s0" d="m122.7 1052.7l5.2 10.3 0.1-0.2-5.2-10.4z"/>
					<path id="&lt;Path&gt;" class="s0" d="m117.3 1042l5.2 10.4 0.2-0.2-5.2-10.4z"/>
					<path id="&lt;Path&gt;" class="s0" d="m112 1031.4l5.2 10.4 0.2-0.3-5.2-10.4z"/>
					<path id="&lt;Path&gt;" class="s0" d="m106.7 1020.8l5.2 10.3 0.2-0.2-5.2-10.4z"/>
					<path id="&lt;Path&gt;" class="s0" d="m101.3 1010.1l5.2 10.4 0.2-0.3-5.2-10.3z"/>
					<path id="&lt;Path&gt;" class="s0" d="m96 999.5l5.2 10.4 0.2-0.3-5.2-10.4z"/>
					<path id="&lt;Path&gt;" class="s0" d="m90.7 988.9l5.2 10.3 0.2-0.3-5.2-10.3z"/>
					<path id="&lt;Path&gt;" class="s0" d="m85.3 978.2l5.2 10.4 0.3-0.3-5.2-10.4z"/>
					<path id="&lt;Path&gt;" class="s0" d="m80 967.6l5.2 10.4 0.2-0.4-5.2-10.3z"/>
					<path id="&lt;Path&gt;" class="s0" d="m74.7 957l5.2 10.3 0.2-0.3-5.2-10.4z"/>
					<path id="&lt;Path&gt;" class="s0" d="m69.3 946.3l5.2 10.4 0.3-0.3-5.2-10.4z"/>
					<path id="&lt;Path&gt;" class="s0" d="m64 935.7l5.2 10.4 0.3-0.4-5.2-10.3z"/>
					<path id="&lt;Path&gt;" class="s0" d="m58.7 925.1l5.2 10.3 0.2-0.3-5.2-10.4z"/>
					<path id="&lt;Path&gt;" class="s0" d="m53.3 914.4l5.2 10.4 0.3-0.4-5.2-10.3z"/>
					<path id="&lt;Path&gt;" class="s0" d="m48 903.8l5.2 10.4 0.3-0.4-5.2-10.4z"/>
					<path id="&lt;Path&gt;" class="s0" d="m42.7 893.2l5.2 10.3 0.3-0.4-5.2-10.3z"/>
					<path id="&lt;Path&gt;" class="s0" d="m37.3 882.5l5.2 10.4 0.3-0.4-5.2-10.4z"/>
					<path id="&lt;Path&gt;" class="s0" d="m32 871.9l5.2 10.4 0.3-0.5-5.2-10.3z"/>
					<path id="&lt;Path&gt;" class="s0" d="m26.7 861.3l5.2 10.3 0.3-0.4-5.2-10.4z"/>
					<path id="&lt;Path&gt;" class="s0" d="m21.3 850.6l5.2 10.4 0.4-0.4-5.2-10.4z"/>
					<path id="&lt;Path&gt;" class="s0" d="m16 840l5.2 10.4 0.3-0.5-5.2-10.3z"/>
					<path id="&lt;Path&gt;" class="s0" d="m10.7 829.4l5.2 10.3 0.3-0.4-5.2-10.4z"/>
					<path id="&lt;Path&gt;" class="s0" d="m5.3 818.7l5.2 10.4 0.4-0.5-5.2-10.3z"/>
					<path id="&lt;Path&gt;" class="s0" d="m0 808.1l5.2 10.4 0.4-0.5-5.2-10.4z"/>
					<path id="&lt;Path&gt;" class="s0" d="m-5.3 797.5l5.2 10.3 0.3-0.5-5.2-10.3z"/>
					<path id="&lt;Path&gt;" class="s0" d="m-10.7 786.8l5.2 10.4 0.4-0.5-5.2-10.4z"/>
					<path id="&lt;Path&gt;" class="s0" d="m-16 776.2l5.2 10.4 0.4-0.6-5.2-10.3z"/>
					<path id="&lt;Path&gt;" class="s0" d="m-21.3 765.6l5.2 10.3 0.4-0.5-5.2-10.4z"/>
					<path id="&lt;Path&gt;" class="s0" d="m-15.7 424.6l-0.4-0.6-5.2 10.4 0.4 0.5z"/>
					<path id="&lt;Path&gt;" class="s0" d="m-10.4 413.9l-0.4-0.5-5.2 10.4 0.4 0.5z"/>
					<path id="&lt;Path&gt;" class="s0" d="m-5.1 403.3l-0.4-0.5-5.1 10.3 0.3 0.5z"/>
					<path id="&lt;Path&gt;" class="s0" d="m0.2 392.6l-0.3-0.5-5.2 10.4 0.4 0.5z"/>
					<path id="&lt;Path&gt;" class="s0" d="m5.6 382l-0.4-0.5-5.2 10.4 0.4 0.4z"/>
					<path id="&lt;Path&gt;" class="s0" d="m10.9 371.3l-0.4-0.4-5.1 10.3 0.3 0.5z"/>
					<path id="&lt;Path&gt;" class="s0" d="m16.2 360.7l-0.3-0.5-5.2 10.4 0.3 0.5z"/>
					<path id="&lt;Path&gt;" class="s0" d="m21.5 350.1l-0.3-0.5-5.2 10.4 0.4 0.4z"/>
					<path id="&lt;Path&gt;" class="s0" d="m26.9 339.4l-0.4-0.4-5.1 10.3 0.3 0.5z"/>
					<path id="&lt;Path&gt;" class="s0" d="m32.2 328.8l-0.3-0.5-5.2 10.4 0.3 0.4z"/>
					<path id="&lt;Path&gt;" class="s0" d="m37.5 318.1l-0.3-0.4-5.2 10.4 0.3 0.4z"/>
					<path id="&lt;Path&gt;" class="s0" d="m42.8 307.5l-0.3-0.4-5.1 10.3 0.3 0.4z"/>
					<path id="&lt;Path&gt;" class="s0" d="m48.2 296.8l-0.3-0.4-5.2 10.4 0.3 0.4z"/>
					<path id="&lt;Path&gt;" class="s0" d="m53.5 286.2l-0.3-0.4-5.2 10.4 0.3 0.3z"/>
					<path id="&lt;Path&gt;" class="s0" d="m58.8 275.5l-0.3-0.3-5.1 10.3 0.2 0.4z"/>
					<path id="&lt;Path&gt;" class="s0" d="m64.1 264.9l-0.2-0.4-5.2 10.4 0.3 0.4z"/>
					<path id="&lt;Path&gt;" class="s0" d="m69.5 254.3l-0.3-0.4-5.2 10.4 0.3 0.3z"/>
					<path id="&lt;Path&gt;" class="s0" d="m74.8 243.6l-0.3-0.3-5.1 10.3 0.2 0.4z"/>
					<path id="&lt;Path&gt;" class="s0" d="m80.1 233l-0.2-0.4-5.2 10.4 0.2 0.3z"/>
					<path id="&lt;Path&gt;" class="s0" d="m85.4 222.3l-0.2-0.3-5.2 10.4 0.3 0.3z"/>
					<path id="&lt;Path&gt;" class="s0" d="m90.8 211.7l-0.3-0.3-5.1 10.3 0.2 0.3z"/>
					<path id="&lt;Path&gt;" class="s0" d="m96.1 201l-0.2-0.3-5.2 10.4 0.2 0.3z"/>
					<path id="&lt;Path&gt;" class="s0" d="m101.4 190.4l-0.2-0.3-5.2 10.4 0.2 0.2z"/>
					<path id="&lt;Path&gt;" class="s0" d="m106.7 179.7l-0.2-0.2-5.1 10.3 0.2 0.3z"/>
					<path id="&lt;Path&gt;" class="s0" d="m112.1 169.1l-0.2-0.3-5.2 10.4 0.2 0.3z"/>
					<path id="&lt;Path&gt;" class="s0" d="m117.4 158.5l-0.2-0.3-5.2 10.4 0.2 0.2z"/>
					<path id="&lt;Path&gt;" class="s0" d="m122.7 147.8l-0.2-0.2-5.1 10.3 0.1 0.3z"/>
					<path id="&lt;Path&gt;" class="s0" d="m128 137.2l-0.1-0.3-5.2 10.4 0.2 0.2z"/>
					<path id="&lt;Path&gt;" class="s0" d="m133.4 126.5l-0.2-0.2-5.2 10.4 0.2 0.2z"/>
					<path id="&lt;Path&gt;" class="s0" d="m138.7 115.9l-0.2-0.2-5.1 10.3 0.1 0.2z"/>
					<path id="&lt;Path&gt;" class="s0" d="m144 105.2l-0.1-0.2-5.2 10.4 0.1 0.2z"/>
					<path id="&lt;Path&gt;" class="s0" d="m149.3 94.6l-0.1-0.2-5.2 10.4 0.2 0.2z"/>
					<path id="&lt;Path&gt;" class="s0" d="m154.7 83.9l-0.2-0.1-5.1 10.3 0.1 0.2z"/>
					<path id="&lt;Path&gt;" class="s0" d="m154.8 83.7l5.2-10.4-0.1-0.2-5.2 10.4z"/>
					<path id="&lt;Path&gt;" class="s0" d="m160.1 73l5.2-10.3-0.1-0.2-5.2 10.4z"/>
					<path id="&lt;Path&gt;" class="s0" d="m165.5 62.4l5.1-10.4-0.1-0.1-5.1 10.3z"/>
					<path id="&lt;Path&gt;" class="s0" d="m176 41.4l-0.1-0.2-5.2 10.4 0.1 0.1z"/>
					<path id="&lt;Path&gt;" class="s0" d="m181.2 30.6l-5.2 10.4 0.1 0.1 5.2-10.4z"/>
					<path id="&lt;Path&gt;" class="s0" d="m186.5 20l-5.1 10.3v0.1l5.2-10.3z"/>
					<path id="&lt;Path&gt;" class="s0" d="m186.8 19.8l5.1-10.4v-0.1l-5.2 10.4z"/>
					<path id="&lt;Path&gt;" class="s0" d="m197.3-1.2l-0.1-0.1-5.2 10.4 0.1 0.1z"/>
					<path id="&lt;Path&gt;" class="s0" d="m202.6-11.8l-0.1-0.1-5.1 10.3v0.1z"/>
					<path id="&lt;Path&gt;" class="s0" d="m186.1 1201.8l5.1 10.1v-0.1l-5-10.1z"/>
					<path id="&lt;Path&gt;" class="s0" d="m180.8 1191.2l5 10.1 0.1-0.1-5.1-10.1z"/>
					<path id="&lt;Path&gt;" class="s0" d="m175.4 1180.6l5.1 10 0.1-0.1-5.1-10z"/>
					<path id="&lt;Path&gt;" class="s0" d="m170.1 1169.9l5.1 10.1v-0.1l-5-10.1z"/>
					<path id="&lt;Path&gt;" class="s0" d="m164.8 1159.3l5 10.1 0.1-0.1-5-10.1z"/>
					<path id="&lt;Path&gt;" class="s0" d="m159.4 1148.7l5.1 10 0.1-0.1-5.1-10.1z"/>
					<path id="&lt;Path&gt;" class="s0" d="m154.1 1138l5 10.1 0.1-0.1-5-10.1z"/>
					<path id="&lt;Path&gt;" class="s0" d="m148.8 1127.4l5 10.1 0.1-0.2-5-10z"/>
					<path id="&lt;Path&gt;" class="s0" d="m148.6 1126.7l-5.1-10.1-0.1 0.2 5.1 10z"/>
					<path id="&lt;Path&gt;" class="s0" d="m143.3 1116l-5.1-10-0.1 0.1 5 10.1z"/>
					<path id="&lt;Path&gt;" class="s0" d="m137.9 1105.4l-5-10.1-0.1 0.2 5 10.1z"/>
					<path id="&lt;Path&gt;" class="s0" d="m132.6 1094.8l-5-10.1-0.2 0.2 5.1 10z"/>
					<path id="&lt;Path&gt;" class="s0" d="m127.3 1084.1l-5.1-10.1-0.1 0.3 5 10z"/>
					<path id="&lt;Path&gt;" class="s0" d="m116.7 1063.6l5.1 10.1 0.2-0.2-5.1-10.1z"/>
					<path id="&lt;Path&gt;" class="s0" d="m111.4 1053l5.1 10.1 0.1-0.3-5-10z"/>
					<path id="&lt;Path&gt;" class="s0" d="m106.1 1042.4l5 10 0.2-0.2-5-10.1z"/>
					<path id="&lt;Path&gt;" class="s0" d="m100.7 1031.7l5.1 10.1 0.2-0.3-5.1-10z"/>
					<path id="&lt;Path&gt;" class="s0" d="m95.4 1021.1l5.1 10.1 0.1-0.3-5-10.1z"/>
					<path id="&lt;Path&gt;" class="s0" d="m90.1 1010.5l5 10 0.2-0.2-5-10.1z"/>
					<path id="&lt;Path&gt;" class="s0" d="m84.7 999.8l5.1 10.1 0.2-0.3-5-10z"/>
					<path id="&lt;Path&gt;" class="s0" d="m79.4 989.2l5.1 10.1 0.2-0.3-5.1-10.1z"/>
					<path id="&lt;Path&gt;" class="s0" d="m74.1 978.6l5 10 0.2-0.3-5-10z"/>
					<path id="&lt;Path&gt;" class="s0" d="m68.7 967.9l5.1 10.1 0.2-0.3-5-10.1z"/>
					<path id="&lt;Path&gt;" class="s0" d="m63.4 957.3l5 10.1 0.3-0.3-5.1-10.1z"/>
					<path id="&lt;Path&gt;" class="s0" d="m58.1 946.7l5 10 0.3-0.3-5.1-10.1z"/>
					<path id="&lt;Path&gt;" class="s0" d="m52.7 936.1l5.1 10 0.2-0.3-5-10.1z"/>
					<path id="&lt;Path&gt;" class="s0" d="m47.4 925.4l5 10.1 0.3-0.4-5-10z"/>
					<path id="&lt;Path&gt;" class="s0" d="m42.1 914.8l5 10.1 0.3-0.4-5.1-10.1z"/>
					<path id="&lt;Path&gt;" class="s0" d="m36.7 904.2l5.1 10 0.2-0.4-5-10z"/>
					<path id="&lt;Path&gt;" class="s0" d="m31.4 893.5l5 10.1 0.3-0.4-5-10.1z"/>
					<path id="&lt;Path&gt;" class="s0" d="m26.1 882.9l5 10.1 0.3-0.4-5-10.1z"/>
					<path id="&lt;Path&gt;" class="s0" d="m20.7 872.3l5.1 10 0.3-0.4-5.1-10z"/>
					<path id="&lt;Path&gt;" class="s0" d="m15.4 861.6l5 10.1 0.3-0.4-5-10.1z"/>
					<path id="&lt;Path&gt;" class="s0" d="m10 851l5.1 10.1 0.3-0.5-5-10z"/>
					<path id="&lt;Path&gt;" class="s0" d="m4.7 840.4l5.1 10 0.3-0.4-5.1-10.1z"/>
					<path id="&lt;Path&gt;" class="s0" d="m-0.6 829.7l5 10.1 0.4-0.4-5.1-10.1z"/>
					<path id="&lt;Path&gt;" class="s0" d="m-6 819.1l5.1 10.1 0.3-0.5-5-10.1z"/>
					<path id="&lt;Path&gt;" class="s0" d="m-11.3 808.5l5.1 10 0.3-0.4-5-10.1z"/>
					<path id="&lt;Path&gt;" class="s0" d="m-16.6 797.9l5 10 0.4-0.5-5.1-10z"/>
					<path id="&lt;Path&gt;" class="s0" d="m-21.6 786.7l-0.3 0.5v0.1l5 10 0.4-0.5z"/>
					<path id="&lt;Path&gt;" class="s0" d="m-17.2 403.3l-4.7 9.4v1.1l5.1-10z"/>
					<path id="&lt;Path&gt;" class="s0" d="m-11.5 393.1l-0.3-0.5-5.1 10.1 0.4 0.5z"/>
					<path id="&lt;Path&gt;" class="s0" d="m-6.2 382.5l-0.3-0.5-5.1 10.1 0.4 0.4z"/>
					<path id="&lt;Path&gt;" class="s0" d="m-0.8 371.8l-0.4-0.4-5 10 0.3 0.5z"/>
					<path id="&lt;Path&gt;" class="s0" d="m4.5 361.2l-0.3-0.5-5.1 10.1 0.3 0.5z"/>
					<path id="&lt;Path&gt;" class="s0" d="m9.8 350.5l-0.3-0.4-5.1 10.1 0.4 0.4z"/>
					<path id="&lt;Path&gt;" class="s0" d="m15.1 339.9l-0.3-0.4-5 10 0.3 0.5z"/>
					<path id="&lt;Path&gt;" class="s0" d="m20.5 329.3l-0.3-0.5-5.1 10.1 0.3 0.4z"/>
					<path id="&lt;Path&gt;" class="s0" d="m25.8 318.6l-0.3-0.4-5.1 10.1 0.4 0.4z"/>
					<path id="&lt;Path&gt;" class="s0" d="m31.1 308l-0.3-0.4-5 10 0.3 0.4z"/>
					<path id="&lt;Path&gt;" class="s0" d="m36.5 297.3l-0.3-0.3-5.1 10 0.3 0.4z"/>
					<path id="&lt;Path&gt;" class="s0" d="m41.8 286.7l-0.3-0.4-5 10.1 0.2 0.4z"/>
					<path id="&lt;Path&gt;" class="s0" d="m47.1 276.1l-0.3-0.4-5 10 0.3 0.4z"/>
					<path id="&lt;Path&gt;" class="s0" d="m52.4 265.4l-0.2-0.3-5.1 10 0.3 0.4z"/>
					<path id="&lt;Path&gt;" class="s0" d="m57.8 254.8l-0.3-0.4-5 10.1 0.2 0.3z"/>
					<path id="&lt;Path&gt;" class="s0" d="m63.1 244.1l-0.3-0.3-5 10.1 0.2 0.3z"/>
					<path id="&lt;Path&gt;" class="s0" d="m68.4 233.5l-0.2-0.3-5.1 10 0.3 0.4z"/>
					<path id="&lt;Path&gt;" class="s0" d="m73.7 222.8l-0.2-0.3-5 10.1 0.2 0.3z"/>
					<path id="&lt;Path&gt;" class="s0" d="m79.1 212.2l-0.3-0.3-5 10.1 0.2 0.3z"/>
					<path id="&lt;Path&gt;" class="s0" d="m84.4 201.6l-0.2-0.3-5.1 10 0.3 0.3z"/>
					<path id="&lt;Path&gt;" class="s0" d="m89.7 190.9l-0.2-0.3-5 10.1 0.2 0.3z"/>
					<path id="&lt;Path&gt;" class="s0" d="m95 180.3l-0.1-0.3-5.1 10.1 0.2 0.2z"/>
					<path id="&lt;Path&gt;" class="s0" d="m100.4 169.6l-0.2-0.2-5.1 10 0.2 0.3z"/>
					<path id="&lt;Path&gt;" class="s0" d="m105.7 159l-0.2-0.3-5 10.1 0.2 0.3z"/>
					<path id="&lt;Path&gt;" class="s0" d="m106 158.4l5-10.1-0.1-0.2-5.1 10.1z"/>
					<path id="&lt;Path&gt;" class="s0" d="m111.3 147.8l5.1-10.1-0.2-0.2-5.1 10z"/>
					<path id="&lt;Path&gt;" class="s0" d="m116.6 137.1l5.1-10-0.2-0.2-5 10z"/>
					<path id="&lt;Path&gt;" class="s0" d="m122 126.5l5-10.1-0.1-0.2-5.1 10.1z"/>
					<path id="&lt;Path&gt;" class="s0" d="m127.3 115.9l5-10.1-0.1-0.2-5.1 10.1z"/>
					<path id="&lt;Path&gt;" class="s0" d="m132.6 105.2l5.1-10.1-0.2-0.1-5 10z"/>
					<path id="&lt;Path&gt;" class="s0" d="m143 84.5l-0.1-0.2-5.1 10.1 0.2 0.2z"/>
					<path id="&lt;Path&gt;" class="s0" d="m148.2 73.7l-5 10.1 0.1 0.1 5-10z"/>
					<path id="&lt;Path&gt;" class="s0" d="m153.5 63.1l-5 10 0.1 0.2 5-10.1z"/>
					<path id="&lt;Path&gt;" class="s0" d="m153.9 62.6l5.1-10-0.1-0.2-5.1 10.1z"/>
					<path id="&lt;Path&gt;" class="s0" d="m159.2 51.9l0.1 0.1 5-10.1-0.1-0.1z"/>
					<path id="&lt;Path&gt;" class="s0" d="m164.5 41.2l0.1 0.2 5-10.1-0.1-0.1z"/>
					<path id="&lt;Path&gt;" class="s0" d="m169.8 30.6l0.1 0.1 5.1-10.1-0.1-0.1z"/>
					<path id="&lt;Path&gt;" class="s0" d="m175.2 20.1l5.1-10.1-0.1-0.1-5 10.1z"/>
					<path id="&lt;Path&gt;" class="s0" d="m185.6-0.6l-0.1-0.1-5 10 0.1 0.1z"/>
					<path id="&lt;Path&gt;" class="s0" d="m190.9-11.3l-5.1 10 0.1 0.1z"/>
					<path id="&lt;Path&gt;" class="s0" d="m174.9 1202.1l4.9 9.8v-0.1l-4.9-9.8z"/>
					<path id="&lt;Path&gt;" class="s0" d="m169.5 1191.5l4.9 9.8 0.1-0.1-4.9-9.8z"/>
					<path id="&lt;Path&gt;" class="s0" d="m164.2 1180.9l4.9 9.7 0.1-0.1-4.9-9.7z"/>
					<path id="&lt;Path&gt;" class="s0" d="m158.9 1170.2l4.9 9.8v-0.1l-4.9-9.8z"/>
					<path id="&lt;Path&gt;" class="s0" d="m153.5 1159.6l4.9 9.8 0.1-0.1-4.9-9.8z"/>
					<path id="&lt;Path&gt;" class="s0" d="m153.2 1158.6l-4.9-9.8-0.1 0.2 4.9 9.7z"/>
					<path id="&lt;Path&gt;" class="s0" d="m147.9 1148l-4.9-9.8-0.1 0.1 4.9 9.8z"/>
					<path id="&lt;Path&gt;" class="s0" d="m142.5 1137.3l-4.9-9.7-0.1 0.1 4.9 9.8z"/>
					<path id="&lt;Path&gt;" class="s0" d="m137.2 1126.7l-4.9-9.8-0.1 0.2 4.9 9.8z"/>
					<path id="&lt;Path&gt;" class="s0" d="m131.9 1116.1l-4.9-9.8-0.2 0.2 4.9 9.7z"/>
					<path id="&lt;Path&gt;" class="s0" d="m121.5 1095.8l4.9 9.8 0.1-0.2-4.9-9.8z"/>
					<path id="&lt;Path&gt;" class="s0" d="m116.2 1085.2l4.9 9.8 0.1-0.2-4.9-9.8z"/>
					<path id="&lt;Path&gt;" class="s0" d="m110.8 1074.6l4.9 9.7 0.2-0.2-4.9-9.7z"/>
					<path id="&lt;Path&gt;" class="s0" d="m105.5 1063.9l4.9 9.8 0.2-0.2-4.9-9.8z"/>
					<path id="&lt;Path&gt;" class="s0" d="m100.2 1053.3l4.9 9.8 0.1-0.2-4.9-9.8z"/>
					<path id="&lt;Path&gt;" class="s0" d="m94.8 1042.7l4.9 9.8 0.2-0.3-4.9-9.8z"/>
					<path id="&lt;Path&gt;" class="s0" d="m89.5 1032.1l4.9 9.7 0.2-0.2-4.9-9.8z"/>
					<path id="&lt;Path&gt;" class="s0" d="m84.1 1021.4l5 9.8 0.1-0.2-4.9-9.8z"/>
					<path id="&lt;Path&gt;" class="s0" d="m78.8 1010.8l4.9 9.8 0.2-0.3-4.9-9.8z"/>
					<path id="&lt;Path&gt;" class="s0" d="m73.5 1000.2l4.9 9.7 0.2-0.2-4.9-9.8z"/>
					<path id="&lt;Path&gt;" class="s0" d="m68.1 989.5l4.9 9.8 0.3-0.3-4.9-9.7z"/>
					<path id="&lt;Path&gt;" class="s0" d="m62.8 978.9l4.9 9.8 0.2-0.3-4.9-9.8z"/>
					<path id="&lt;Path&gt;" class="s0" d="m57.5 968.3l4.9 9.8 0.2-0.3-4.9-9.8z"/>
					<path id="&lt;Path&gt;" class="s0" d="m52.1 957.7l4.9 9.7 0.3-0.3-4.9-9.8z"/>
					<path id="&lt;Path&gt;" class="s0" d="m46.8 947l4.9 9.8 0.2-0.3-4.9-9.8z"/>
					<path id="&lt;Path&gt;" class="s0" d="m41.5 936.4l4.9 9.8 0.2-0.4-4.9-9.7z"/>
					<path id="&lt;Path&gt;" class="s0" d="m36.1 925.8l4.9 9.7 0.3-0.3-4.9-9.8z"/>
					<path id="&lt;Path&gt;" class="s0" d="m30.8 915.1l4.9 9.8 0.3-0.3-4.9-9.8z"/>
					<path id="&lt;Path&gt;" class="s0" d="m25.4 904.5l5 9.8 0.2-0.4-4.9-9.8z"/>
					<path id="&lt;Path&gt;" class="s0" d="m20.1 893.9l4.9 9.8 0.3-0.4-4.9-9.8z"/>
					<path id="&lt;Path&gt;" class="s0" d="m14.8 883.3l4.9 9.7 0.3-0.4-4.9-9.7z"/>
					<path id="&lt;Path&gt;" class="s0" d="m9.4 872.6l4.9 9.8 0.3-0.4-4.9-9.8z"/>
					<path id="&lt;Path&gt;" class="s0" d="m4.1 862l4.9 9.8 0.3-0.4-4.9-9.8z"/>
					<path id="&lt;Path&gt;" class="s0" d="m-1.2 851.4l4.9 9.7 0.3-0.4-4.9-9.8z"/>
					<path id="&lt;Path&gt;" class="s0" d="m-6.6 840.7l4.9 9.8 0.3-0.4-4.9-9.8z"/>
					<path id="&lt;Path&gt;" class="s0" d="m-11.9 830.1l4.9 9.8 0.3-0.5-4.9-9.7z"/>
					<path id="&lt;Path&gt;" class="s0" d="m-17.3 819.5l5 9.8 0.3-0.5-4.9-9.8z"/>
					<path id="&lt;Path&gt;" class="s0" d="m-21.9 809v1.2l4.2 8.4 0.4-0.4z"/>
					<path id="&lt;Path&gt;" class="s0" d="m-21.9 391l4-8.1-0.3-0.4-3.7 7.3z"/>
					<path id="&lt;Path&gt;" class="s0" d="m-12.6 372.3l-0.3-0.4-4.9 9.7 0.3 0.5z"/>
					<path id="&lt;Path&gt;" class="s0" d="m-7.2 361.7l-0.4-0.5-4.9 9.8 0.4 0.5z"/>
					<path id="&lt;Path&gt;" class="s0" d="m-1.9 351l-0.3-0.4-4.9 9.8 0.3 0.4z"/>
					<path id="&lt;Path&gt;" class="s0" d="m3.4 340.4l-0.3-0.4-4.9 9.7 0.3 0.5z"/>
					<path id="&lt;Path&gt;" class="s0" d="m8.7 329.8l-0.3-0.5-4.9 9.8 0.3 0.4z"/>
					<path id="&lt;Path&gt;" class="s0" d="m14.1 319.1l-0.3-0.4-4.9 9.8 0.3 0.4z"/>
					<path id="&lt;Path&gt;" class="s0" d="m19.4 308.5l-0.3-0.4-4.9 9.8 0.3 0.4z"/>
					<path id="&lt;Path&gt;" class="s0" d="m24.7 297.8l-0.2-0.3-5 9.7 0.3 0.4z"/>
					<path id="&lt;Path&gt;" class="s0" d="m30.1 287.2l-0.3-0.4-4.9 9.8 0.3 0.4z"/>
					<path id="&lt;Path&gt;" class="s0" d="m35.4 276.6l-0.3-0.4-4.9 9.8 0.3 0.3z"/>
					<path id="&lt;Path&gt;" class="s0" d="m40.5 265.6l-4.9 9.7 0.2 0.4 4.9-9.8z"/>
					<path id="&lt;Path&gt;" class="s0" d="m45.8 254.9l-4.9 9.8 0.2 0.4 4.9-9.8z"/>
					<path id="&lt;Path&gt;" class="s0" d="m51.1 244.3l-4.9 9.8 0.3 0.3 4.9-9.8z"/>
					<path id="&lt;Path&gt;" class="s0" d="m56.5 233.7l-4.9 9.8 0.2 0.3 4.9-9.8z"/>
					<path id="&lt;Path&gt;" class="s0" d="m61.8 223.1l-4.9 9.7 0.2 0.3 4.9-9.7z"/>
					<path id="&lt;Path&gt;" class="s0" d="m67.1 212.4l-4.9 9.8 0.3 0.3 4.9-9.8z"/>
					<path id="&lt;Path&gt;" class="s0" d="m72.5 201.8l-4.9 9.8 0.2 0.3 4.9-9.8z"/>
					<path id="&lt;Path&gt;" class="s0" d="m77.8 191.2l-4.9 9.7 0.2 0.3 4.9-9.8z"/>
					<path id="&lt;Path&gt;" class="s0" d="m83.2 180.5l-4.9 9.8 0.2 0.3 4.9-9.8z"/>
					<path id="&lt;Path&gt;" class="s0" d="m88.5 169.9l-4.9 9.8 0.2 0.2 4.9-9.7z"/>
					<path id="&lt;Path&gt;" class="s0" d="m93.8 159.3l-4.9 9.8 0.2 0.2 4.9-9.8z"/>
					<path id="&lt;Path&gt;" class="s0" d="m99.2 148.7l-4.9 9.7 0.1 0.3 4.9-9.8z"/>
					<path id="&lt;Path&gt;" class="s0" d="m104.5 138l-4.9 9.8 0.2 0.2 4.9-9.8z"/>
					<path id="&lt;Path&gt;" class="s0" d="m105.1 137.4l4.9-9.8-0.2-0.2-4.9 9.8z"/>
					<path id="&lt;Path&gt;" class="s0" d="m110.4 126.8l4.9-9.8-0.1-0.2-4.9 9.7z"/>
					<path id="&lt;Path&gt;" class="s0" d="m115.6 115.9l0.2 0.2 4.9-9.8-0.2-0.2z"/>
					<path id="&lt;Path&gt;" class="s0" d="m120.9 105.3l0.2 0.2 4.9-9.8-0.1-0.2z"/>
					<path id="&lt;Path&gt;" class="s0" d="m126.3 94.7l0.1 0.1 4.9-9.7-0.1-0.2z"/>
					<path id="&lt;Path&gt;" class="s0" d="m131.6 84l0.1 0.2 4.9-9.8-0.1-0.1z"/>
					<path id="&lt;Path&gt;" class="s0" d="m137 73.4l0.1 0.2 4.9-9.8-0.1-0.2z"/>
					<path id="&lt;Path&gt;" class="s0" d="m142.4 62.9l4.9-9.8-0.1-0.1-4.9 9.8z"/>
					<path id="&lt;Path&gt;" class="s0" d="m147.7 52.3l4.9-9.8-0.1-0.1-4.9 9.7z"/>
					<path id="&lt;Path&gt;" class="s0" d="m153 41.5l0.1 0.1 4.9-9.7-0.1-0.2z"/>
					<path id="&lt;Path&gt;" class="s0" d="m158.3 30.9l0.1 0.1 4.9-9.8-0.1-0.1z"/>
					<path id="&lt;Path&gt;" class="s0" d="m163.7 20.4l4.9-9.8-0.1-0.1-4.9 9.8z"/>
					<path id="&lt;Path&gt;" class="s0" d="m173.9-0.1l-4.9 9.7v0.1z"/>
					<path id="&lt;Path&gt;" class="s0" d="m179.3-10.7l-0.1-0.1-4.9 9.8 0.1 0.1z"/>
					<path id="&lt;Path&gt;" class="s0" d="m179.8-11.8v-0.1l-0.1 0.3z"/>
					<path id="&lt;Path&gt;" class="s0" d="m163.6 1202.4l4.8 9.5 0.1-0.1-4.8-9.5z"/>
					<path id="&lt;Path&gt;" class="s0" d="m158.3 1191.8l4.8 9.5v-0.1l-4.7-9.5z"/>
					<path id="&lt;Path&gt;" class="s0" d="m153 1181.1l4.7 9.5 0.1-0.1-4.8-9.4z"/>
					<path id="&lt;Path&gt;" class="s0" d="m147.7 1170.4l-0.1 0.1 4.8 9.5 0.1-0.1z"/>
					<path id="&lt;Path&gt;" class="s0" d="m142.4 1159.8l-0.1 0.1 4.8 9.5v-0.1z"/>
					<path id="&lt;Path&gt;" class="s0" d="m141.8 1158.6l-4.8-9.5-0.1 0.2 4.8 9.5z"/>
					<path id="&lt;Path&gt;" class="s0" d="m136.5 1148l-4.8-9.5-0.1 0.1 4.8 9.5z"/>
					<path id="&lt;Path&gt;" class="s0" d="m131.1 1137.4l-4.7-9.5-0.1 0.1 4.7 9.5z"/>
					<path id="&lt;Path&gt;" class="s0" d="m125.8 1126.7l-4.7-9.5-0.2 0.2 4.8 9.5z"/>
					<path id="&lt;Path&gt;" class="s0" d="m120.5 1116.1l-4.8-9.5-0.1 0.2 4.8 9.4z"/>
					<path id="&lt;Path&gt;" class="s0" d="m115.1 1105.5l-4.7-9.5-0.1 0.1 4.7 9.5z"/>
					<path id="&lt;Path&gt;" class="s0" d="m109.8 1094.8l-4.7-9.5-0.2 0.2 4.8 9.5z"/>
					<path id="&lt;Path&gt;" class="s0" d="m99.6 1074.9l4.7 9.5 0.2-0.2-4.8-9.5z"/>
					<path id="&lt;Path&gt;" class="s0" d="m94.2 1064.3l4.8 9.4 0.2-0.2-4.8-9.5z"/>
					<path id="&lt;Path&gt;" class="s0" d="m88.9 1053.6l4.8 9.5 0.1-0.2-4.7-9.5z"/>
					<path id="&lt;Path&gt;" class="s0" d="m83.6 1043l4.7 9.5 0.2-0.2-4.8-9.5z"/>
					<path id="&lt;Path&gt;" class="s0" d="m83.2 1041.6l-4.8-9.5-0.2 0.3 4.8 9.5z"/>
					<path id="&lt;Path&gt;" class="s0" d="m77.8 1031l-4.7-9.5-0.2 0.3 4.8 9.4z"/>
					<path id="&lt;Path&gt;" class="s0" d="m72.5 1020.4l-4.8-9.5-0.2 0.2 4.8 9.5z"/>
					<path id="&lt;Path&gt;" class="s0" d="m67.2 1009.7l-4.8-9.5-0.2 0.3 4.8 9.5z"/>
					<path id="&lt;Path&gt;" class="s0" d="m61.8 999.1l-4.7-9.5-0.2 0.3 4.7 9.5z"/>
					<path id="&lt;Path&gt;" class="s0" d="m56.5 988.4l-4.7-9.4-0.3 0.2 4.8 9.5z"/>
					<path id="&lt;Path&gt;" class="s0" d="m51.2 977.8l-4.8-9.5-0.2 0.3 4.8 9.5z"/>
					<path id="&lt;Path&gt;" class="s0" d="m45.6 967.5l0.2-0.3-4.7-9.5-0.2 0.3z"/>
					<path id="&lt;Path&gt;" class="s0" d="m35.5 947.4l4.8 9.5 0.2-0.4-4.7-9.5z"/>
					<path id="&lt;Path&gt;" class="s0" d="m30.2 936.7l4.7 9.5 0.3-0.3-4.8-9.5z"/>
					<path id="&lt;Path&gt;" class="s0" d="m24.8 926.1l4.8 9.5 0.3-0.3-4.8-9.5z"/>
					<path id="&lt;Path&gt;" class="s0" d="m19.5 915.5l4.8 9.5 0.2-0.4-4.7-9.5z"/>
					<path id="&lt;Path&gt;" class="s0" d="m14.2 904.9l4.7 9.4 0.3-0.3-4.8-9.5z"/>
					<path id="&lt;Path&gt;" class="s0" d="m8.8 894.2l4.8 9.5 0.3-0.3-4.8-9.5z"/>
					<path id="&lt;Path&gt;" class="s0" d="m3.5 883.6l4.8 9.5 0.2-0.4-4.7-9.5z"/>
					<path id="&lt;Path&gt;" class="s0" d="m-1.9 873l4.8 9.5 0.3-0.4-4.8-9.5z"/>
					<path id="&lt;Path&gt;" class="s0" d="m-7.2 862.4l4.8 9.4 0.3-0.4-4.8-9.5z"/>
					<path id="&lt;Path&gt;" class="s0" d="m-12.5 851.7l4.7 9.5 0.3-0.4-4.7-9.5z"/>
					<path id="&lt;Path&gt;" class="s0" d="m-17.9 841.1l4.8 9.5 0.3-0.4-4.7-9.5z"/>
					<path id="&lt;Path&gt;" class="s0" d="m-21.9 832v1.1l3.5 6.9 0.3-0.5z"/>
					<path id="&lt;Path&gt;" class="s0" d="m-21.9 368l2.9-5.8-0.3-0.5-2.6 5.3z"/>
					<path id="&lt;Path&gt;" class="s0" d="m-13.9 351.1l-4.8 9.5 0.3 0.4 4.8-9.5z"/>
					<path id="&lt;Path&gt;" class="s0" d="m-8.6 340.5l-4.8 9.5 0.3 0.4 4.8-9.5z"/>
					<path id="&lt;Path&gt;" class="s0" d="m-3.3 329.8l-4.7 9.5 0.3 0.4 4.7-9.5z"/>
					<path id="&lt;Path&gt;" class="s0" d="m2.1 319.2l-4.8 9.5 0.3 0.4 4.8-9.5z"/>
					<path id="&lt;Path&gt;" class="s0" d="m7.4 308.6l-4.8 9.5 0.3 0.4 4.8-9.5z"/>
					<path id="&lt;Path&gt;" class="s0" d="m12.7 298l-4.7 9.5 0.3 0.3 4.7-9.5z"/>
					<path id="&lt;Path&gt;" class="s0" d="m18.1 287.3l-4.8 9.5 0.3 0.4 4.7-9.5z"/>
					<path id="&lt;Path&gt;" class="s0" d="m23.4 276.7l-4.7 9.5 0.2 0.4 4.8-9.5z"/>
					<path id="&lt;Path&gt;" class="s0" d="m28.8 266.1l-4.8 9.5 0.2 0.3 4.8-9.5z"/>
					<path id="&lt;Path&gt;" class="s0" d="m34.1 255.5l-4.8 9.4 0.3 0.4 4.7-9.5z"/>
					<path id="&lt;Path&gt;" class="s0" d="m39.4 244.8l-4.7 9.5 0.2 0.3 4.8-9.4z"/>
					<path id="&lt;Path&gt;" class="s0" d="m40.2 244l4.8-9.5-0.2-0.3-4.8 9.5z"/>
					<path id="&lt;Path&gt;" class="s0" d="m45.6 233.4l4.7-9.5-0.2-0.3-4.8 9.5z"/>
					<path id="&lt;Path&gt;" class="s0" d="m50.9 222.7l4.8-9.5-0.2-0.2-4.8 9.4z"/>
					<path id="&lt;Path&gt;" class="s0" d="m56.2 212.1l4.8-9.5-0.2-0.3-4.8 9.5z"/>
					<path id="&lt;Path&gt;" class="s0" d="m61.6 201.5l4.7-9.5-0.2-0.3-4.7 9.5z"/>
					<path id="&lt;Path&gt;" class="s0" d="m71.7 181.3l-0.2-0.2-4.8 9.5 0.2 0.2z"/>
					<path id="&lt;Path&gt;" class="s0" d="m76.8 170.5l-4.8 9.4 0.2 0.3 4.8-9.5z"/>
					<path id="&lt;Path&gt;" class="s0" d="m82.1 159.8l-4.7 9.5 0.2 0.3 4.7-9.5z"/>
					<path id="&lt;Path&gt;" class="s0" d="m82.9 158.9l4.7-9.5-0.1-0.2-4.8 9.5z"/>
					<path id="&lt;Path&gt;" class="s0" d="m88.2 148.3l4.8-9.5-0.2-0.2-4.7 9.5z"/>
					<path id="&lt;Path&gt;" class="s0" d="m93.5 137.6l4.8-9.5-0.1-0.2-4.8 9.5z"/>
					<path id="&lt;Path&gt;" class="s0" d="m98.9 127l4.7-9.5-0.1-0.2-4.8 9.5z"/>
					<path id="&lt;Path&gt;" class="s0" d="m104.1 116.2l0.1 0.2 4.8-9.5-0.2-0.2z"/>
					<path id="&lt;Path&gt;" class="s0" d="m109.4 105.6l0.1 0.1 4.8-9.5-0.1-0.1z"/>
					<path id="&lt;Path&gt;" class="s0" d="m114.7 94.9l0.2 0.2 4.7-9.5-0.1-0.2z"/>
					<path id="&lt;Path&gt;" class="s0" d="m120.2 84.5l4.8-9.5-0.1-0.2-4.8 9.5z"/>
					<path id="&lt;Path&gt;" class="s0" d="m125.5 73.8l4.8-9.5-0.1-0.1-4.8 9.5z"/>
					<path id="&lt;Path&gt;" class="s0" d="m130.9 63.2l4.7-9.5-0.1-0.1-4.7 9.4z"/>
					<path id="&lt;Path&gt;" class="s0" d="m136.2 52.5l4.8-9.4-0.1-0.2-4.8 9.5z"/>
					<path id="&lt;Path&gt;" class="s0" d="m141.4 41.8l0.1 0.1 4.8-9.5-0.1-0.1z"/>
					<path id="&lt;Path&gt;" class="s0" d="m146.8 31.2l0.1 0.1 4.7-9.5-0.1-0.1z"/>
					<path id="&lt;Path&gt;" class="s0" d="m152.1 20.5l0.1 0.1 4.7-9.5z"/>
					<path id="&lt;Path&gt;" class="s0" d="m162.3 0.5l-0.1-0.1-4.7 9.5v0.1z"/>
					<path id="&lt;Path&gt;" class="s0" d="m167.6-10.1v-0.1l-4.8 9.5 0.1 0.1z"/>
					<path id="&lt;Path&gt;" class="s0" d="m168.5-11.8l-0.1-0.1-0.3 0.6h0.1z"/>
					<path id="&lt;Path&gt;" class="s0" d="m152.4 1202.7l4.6 9.2 0.1-0.1-4.6-9.2z"/>
					<path id="&lt;Path&gt;" class="s0" d="m147.1 1192.1l4.6 9.2v-0.1l-4.6-9.2z"/>
					<path id="&lt;Path&gt;" class="s0" d="m141.7 1181.4l4.7 9.2-4.6-9.3z"/>
					<path id="&lt;Path&gt;" class="s0" d="m136.4 1170.8l4.6 9.2 0.1-0.1-4.6-9.2z"/>
					<path id="&lt;Path&gt;" class="s0" d="m131 1160.2l4.7 9.2v-0.1l-4.6-9.2z"/>
					<path id="&lt;Path&gt;" class="s0" d="m130.4 1158.6l-4.6-9.2-0.1 0.2 4.6 9.2z"/>
					<path id="&lt;Path&gt;" class="s0" d="m125.1 1148l-4.6-9.2-0.1 0.1 4.6 9.2z"/>
					<path id="&lt;Path&gt;" class="s0" d="m119.8 1137.4l-4.7-9.2-0.1 0.1 4.7 9.2z"/>
					<path id="&lt;Path&gt;" class="s0" d="m114.4 1126.7l-4.6-9.2-0.1 0.2 4.6 9.2z"/>
					<path id="&lt;Path&gt;" class="s0" d="m109.1 1116.1l-4.6-9.2-0.2 0.2 4.7 9.2z"/>
					<path id="&lt;Path&gt;" class="s0" d="m103.8 1105.5l-4.7-9.2-0.1 0.1 4.6 9.2z"/>
					<path id="&lt;Path&gt;" class="s0" d="m98.4 1094.8l-4.6-9.2-0.1 0.2 4.6 9.2z"/>
					<path id="&lt;Path&gt;" class="s0" d="m93.1 1084.2l-4.6-9.2-0.2 0.2 4.7 9.2z"/>
					<path id="&lt;Path&gt;" class="s0" d="m87.8 1073.6l-4.7-9.2-0.1 0.2 4.6 9.2z"/>
					<path id="&lt;Path&gt;" class="s0" d="m82.4 1062.9l-4.6-9.2-0.2 0.2 4.7 9.2z"/>
					<path id="&lt;Path&gt;" class="s0" d="m77.1 1052.3l-4.6-9.2-0.2 0.2 4.6 9.2z"/>
					<path id="&lt;Path&gt;" class="s0" d="m71.8 1041.7l-4.7-9.2-0.1 0.2 4.6 9.2z"/>
					<path id="&lt;Path&gt;" class="s0" d="m66.4 1031l-4.6-9.2-0.2 0.3 4.6 9.2z"/>
					<path id="&lt;Path&gt;" class="s0" d="m61.1 1020.4l-4.6-9.2-0.2 0.3 4.6 9.2z"/>
					<path id="&lt;Path&gt;" class="s0" d="m55.8 1009.8l-4.7-9.2-0.2 0.2 4.7 9.2z"/>
					<path id="&lt;Path&gt;" class="s0" d="m50.4 999.1l-4.6-9.2-0.2 0.3 4.6 9.2z"/>
					<path id="&lt;Path&gt;" class="s0" d="m45.1 988.5l-4.6-9.2-0.2 0.3 4.6 9.2z"/>
					<path id="&lt;Path&gt;" class="s0" d="m39.8 977.9l-4.7-9.2-0.2 0.3 4.6 9.2z"/>
					<path id="&lt;Path&gt;" class="s0" d="m34.4 967.2l-4.6-9.2-0.2 0.3 4.6 9.2z"/>
					<path id="&lt;Path&gt;" class="s0" d="m29.1 956.6l-4.6-9.2-0.3 0.3 4.7 9.2z"/>
					<path id="&lt;Path&gt;" class="s0" d="m18.9 937.1l4.6 9.2 0.3-0.3-4.7-9.2z"/>
					<path id="&lt;Path&gt;" class="s0" d="m13.6 926.5l4.6 9.2 0.2-0.4-4.6-9.2z"/>
					<path id="&lt;Path&gt;" class="s0" d="m13.1 924.7l-4.6-9.2-0.3 0.3 4.6 9.2z"/>
					<path id="&lt;Path&gt;" class="s0" d="m7.8 914.1l-4.7-9.2-0.2 0.3 4.6 9.2z"/>
					<path id="&lt;Path&gt;" class="s0" d="m2.4 903.4l-4.6-9.2-0.3 0.4 4.7 9.2z"/>
					<path id="&lt;Path&gt;" class="s0" d="m-2.9 892.8l-4.6-9.2-0.3 0.4 4.6 9.2z"/>
					<path id="&lt;Path&gt;" class="s0" d="m-8.2 882.2l-4.7-9.2-0.2 0.3 4.6 9.2z"/>
					<path id="&lt;Path&gt;" class="s0" d="m-13.6 871.5l-4.6-9.2-0.3 0.4 4.6 9.2z"/>
					<path id="&lt;Path&gt;" class="s0" d="m-21.9 854.9v1l2.7 5.4 0.3-0.4z"/>
					<path id="&lt;Path&gt;" class="s0" d="m-21.9 345.1l1.9-3.7-0.3-0.4-1.6 3.1z"/>
					<path id="&lt;Path&gt;" class="s0" d="m-19.3 339.9l4.6-9.2-0.3-0.4-4.6 9.2z"/>
					<path id="&lt;Path&gt;" class="s0" d="m-14 329.3l4.6-9.2-0.2-0.4-4.7 9.2z"/>
					<path id="&lt;Path&gt;" class="s0" d="m-8.7 318.7l4.7-9.2-0.3-0.4-4.6 9.2z"/>
					<path id="&lt;Path&gt;" class="s0" d="m-3.3 308l4.6-9.2-0.3-0.3-4.6 9.2z"/>
					<path id="&lt;Path&gt;" class="s0" d="m2 297.4l4.6-9.2-0.2-0.3-4.7 9.2z"/>
					<path id="&lt;Path&gt;" class="s0" d="m12 277.6l-0.3-0.4-4.6 9.2 0.2 0.4z"/>
					<path id="&lt;Path&gt;" class="s0" d="m17.1 266.6l-4.7 9.2 0.3 0.3 4.6-9.2z"/>
					<path id="&lt;Path&gt;" class="s0" d="m22.4 256l-4.6 9.2 0.2 0.3 4.6-9.2z"/>
					<path id="&lt;Path&gt;" class="s0" d="m23.3 254.9l4.7-9.2-0.3-0.3-4.6 9.2z"/>
					<path id="&lt;Path&gt;" class="s0" d="m28.7 244.2l4.6-9.2-0.2-0.3-4.7 9.2z"/>
					<path id="&lt;Path&gt;" class="s0" d="m34 233.6l4.6-9.2-0.2-0.3-4.6 9.2z"/>
					<path id="&lt;Path&gt;" class="s0" d="m39.3 223l4.7-9.2-0.2-0.3-4.7 9.2z"/>
					<path id="&lt;Path&gt;" class="s0" d="m44.7 212.3l4.6-9.2-0.2-0.2-4.6 9.2z"/>
					<path id="&lt;Path&gt;" class="s0" d="m49.8 201.4l0.2 0.3 4.6-9.2-0.2-0.3z"/>
					<path id="&lt;Path&gt;" class="s0" d="m55.1 190.8l0.2 0.3 4.7-9.2-0.2-0.3z"/>
					<path id="&lt;Path&gt;" class="s0" d="m60.5 180.2l0.2 0.2 4.6-9.2-0.2-0.2z"/>
					<path id="&lt;Path&gt;" class="s0" d="m65.8 169.6l0.2 0.2 4.6-9.2-0.1-0.2z"/>
					<path id="&lt;Path&gt;" class="s0" d="m71.3 159.2l4.7-9.2-0.2-0.3-4.6 9.2z"/>
					<path id="&lt;Path&gt;" class="s0" d="m76.7 148.5l4.6-9.2-0.2-0.2-4.6 9.2z"/>
					<path id="&lt;Path&gt;" class="s0" d="m81.9 137.7l0.1 0.2 4.6-9.2-0.1-0.2z"/>
					<path id="&lt;Path&gt;" class="s0" d="m87.2 127.1l0.1 0.2 4.7-9.2-0.2-0.2z"/>
					<path id="&lt;Path&gt;" class="s0" d="m92.5 116.4l0.2 0.2 4.6-9.2-0.1-0.2z"/>
					<path id="&lt;Path&gt;" class="s0" d="m97.9 105.8l0.1 0.2 4.6-9.2-0.1-0.2z"/>
					<path id="&lt;Path&gt;" class="s0" d="m103.2 95.2l0.1 0.2 4.7-9.2-0.2-0.2z"/>
					<path id="&lt;Path&gt;" class="s0" d="m108.7 84.7l4.6-9.2-0.1-0.1-4.6 9.2z"/>
					<path id="&lt;Path&gt;" class="s0" d="m114 74.1l4.6-9.2-0.1-0.2-4.6 9.2z"/>
					<path id="&lt;Path&gt;" class="s0" d="m119.2 63.3l0.1 0.2 4.6-9.3v-0.1z"/>
					<path id="&lt;Path&gt;" class="s0" d="m124.6 52.7l0.1 0.1 4.6-9.2-0.1-0.1z"/>
					<path id="&lt;Path&gt;" class="s0" d="m129.9 42.1l0.1 0.1 4.6-9.2-0.1-0.1z"/>
					<path id="&lt;Path&gt;" class="s0" d="m135.3 31.4v0.2l4.6-9.3v-0.1z"/>
					<path id="&lt;Path&gt;" class="s0" d="m140.6 20.8l0.1 0.1 4.6-9.2-0.1-0.1z"/>
					<path id="&lt;Path&gt;" class="s0" d="m150.6 1.1v-0.1l-4.7 9.2 0.1 0.1z"/>
					<path id="&lt;Path&gt;" class="s0" d="m155.9-9.6l-4.6 9.2v0.1z"/>
					<path id="&lt;Path&gt;" class="s0" d="m157.1-11.8l-0.1-0.1-0.4 0.9h0.1z"/>
					<path id="&lt;Path&gt;" class="s0" d="m141.2 1203l4.5 8.9v-0.1l-4.5-8.9z"/>
					<path id="&lt;Path&gt;" class="s0" d="m135.8 1192.3l4.5 9 0.1-0.1-4.5-8.9z"/>
					<path id="&lt;Path&gt;" class="s0" d="m130.5 1181.7l4.5 8.9-4.4-9z"/>
					<path id="&lt;Path&gt;" class="s0" d="m125.2 1171.1l4.4 8.9 0.1-0.1-4.5-8.9z"/>
					<path id="&lt;Path&gt;" class="s0" d="m119.8 1160.5l4.5 8.9 0.1-0.1-4.5-8.9z"/>
					<path id="&lt;Path&gt;" class="s0" d="m119 1158.7l-4.4-9-0.1 0.2 4.4 8.9z"/>
					<path id="&lt;Path&gt;" class="s0" d="m113.7 1148l-4.5-8.9-0.1 0.1 4.5 9z"/>
					<path id="&lt;Path&gt;" class="s0" d="m108.4 1137.4l-4.5-8.9-0.1 0.1 4.5 8.9z"/>
					<path id="&lt;Path&gt;" class="s0" d="m103 1126.8l-4.4-9-0.2 0.2 4.5 8.9z"/>
					<path id="&lt;Path&gt;" class="s0" d="m97.7 1116.1l-4.5-8.9-0.1 0.2 4.5 8.9z"/>
					<path id="&lt;Path&gt;" class="s0" d="m92.4 1105.5l-4.5-8.9-0.1 0.2 4.4 8.9z"/>
					<path id="&lt;Path&gt;" class="s0" d="m87 1094.9l-4.5-8.9-0.1 0.1 4.5 8.9z"/>
					<path id="&lt;Path&gt;" class="s0" d="m81.7 1084.2l-4.5-8.9-0.1 0.2 4.5 8.9z"/>
					<path id="&lt;Path&gt;" class="s0" d="m76.4 1073.6l-4.5-8.9-0.2 0.2 4.5 8.9z"/>
					<path id="&lt;Path&gt;" class="s0" d="m71 1063l-4.5-8.9-0.1 0.2 4.5 8.9z"/>
					<path id="&lt;Path&gt;" class="s0" d="m65.7 1052.3l-4.5-8.9-0.2 0.2 4.5 9z"/>
					<path id="&lt;Path&gt;" class="s0" d="m60.4 1041.7l-4.5-8.9-0.2 0.2 4.5 8.9z"/>
					<path id="&lt;Path&gt;" class="s0" d="m55 1031.1l-4.5-8.9-0.1 0.2 4.4 8.9z"/>
					<path id="&lt;Path&gt;" class="s0" d="m49.7 1020.5l-4.5-9-0.2 0.3 4.5 8.9z"/>
					<path id="&lt;Path&gt;" class="s0" d="m44.3 1009.8l-4.4-8.9-0.2 0.3 4.5 8.9z"/>
					<path id="&lt;Path&gt;" class="s0" d="m39 999.2l-4.5-8.9-0.2 0.2 4.5 8.9z"/>
					<path id="&lt;Path&gt;" class="s0" d="m33.7 988.6l-4.5-9-0.2 0.3 4.5 8.9z"/>
					<path id="&lt;Path&gt;" class="s0" d="m28.3 977.9l-4.4-8.9-0.2 0.3 4.4 8.9z"/>
					<path id="&lt;Path&gt;" class="s0" d="m23 967.3l-4.5-8.9-0.2 0.3 4.5 8.9z"/>
					<path id="&lt;Path&gt;" class="s0" d="m17.7 956.7l-4.5-9-0.2 0.3 4.5 9z"/>
					<path id="&lt;Path&gt;" class="s0" d="m12.3 946l-4.4-8.9-0.3 0.3 4.5 8.9z"/>
					<path id="&lt;Path&gt;" class="s0" d="m7 935.4l-4.5-8.9-0.2 0.3 4.5 8.9z"/>
					<path id="&lt;Path&gt;" class="s0" d="m1.7 924.8l-4.5-9-0.3 0.4 4.5 8.9z"/>
					<path id="&lt;Path&gt;" class="s0" d="m-3.7 914.1l-4.4-8.9-0.3 0.4 4.5 8.9z"/>
					<path id="&lt;Path&gt;" class="s0" d="m-9 903.5l-4.5-8.9-0.2 0.3 4.4 9z"/>
					<path id="&lt;Path&gt;" class="s0" d="m-14.3 892.9l-4.5-8.9-0.3 0.3 4.5 8.9z"/>
					<path id="&lt;Path&gt;" class="s0" d="m-21.9 877.8v0.9l2 3.9 0.2-0.4z"/>
					<path id="&lt;Path&gt;" class="s0" d="m-20.5 318.5l0.3 0.4 4.4-8.9-0.2-0.4z"/>
					<path id="&lt;Path&gt;" class="s0" d="m-15.2 307.9l0.3 0.4 4.5-9-0.3-0.3z"/>
					<path id="&lt;Path&gt;" class="s0" d="m-9.8 297.3l0.2 0.3 4.5-8.9-0.2-0.3z"/>
					<path id="&lt;Path&gt;" class="s0" d="m-4.5 286.7l0.3 0.3 4.4-8.9-0.2-0.4z"/>
					<path id="&lt;Path&gt;" class="s0" d="m0.9 276l0.2 0.4 4.5-9-0.3-0.3z"/>
					<path id="&lt;Path&gt;" class="s0" d="m6.2 265.4l0.2 0.3 4.5-8.9-0.2-0.3z"/>
					<path id="&lt;Path&gt;" class="s0" d="m11.8 255.1l4.5-8.9-0.3-0.3-4.5 8.9z"/>
					<path id="&lt;Path&gt;" class="s0" d="m17.1 244.5l4.5-9-0.2-0.2-4.5 8.9z"/>
					<path id="&lt;Path&gt;" class="s0" d="m22.2 233.5l0.2 0.3 4.5-8.9-0.2-0.3z"/>
					<path id="&lt;Path&gt;" class="s0" d="m27.6 222.9l0.2 0.3 4.5-8.9-0.2-0.3z"/>
					<path id="&lt;Path&gt;" class="s0" d="m32.9 212.3l0.2 0.3 4.5-8.9-0.2-0.3z"/>
					<path id="&lt;Path&gt;" class="s0" d="m38.3 201.7l0.1 0.2 4.5-8.9-0.2-0.2z"/>
					<path id="&lt;Path&gt;" class="s0" d="m43.6 191.1l0.2 0.2 4.5-8.9-0.2-0.3z"/>
					<path id="&lt;Path&gt;" class="s0" d="m48.9 180.4l0.2 0.3 4.5-8.9-0.2-0.3z"/>
					<path id="&lt;Path&gt;" class="s0" d="m54.5 170l4.4-8.9-0.1-0.2-4.5 8.9z"/>
					<path id="&lt;Path&gt;" class="s0" d="m59.6 159.2l0.2 0.2 4.5-8.9-0.2-0.2z"/>
					<path id="&lt;Path&gt;" class="s0" d="m65 148.6l0.1 0.2 4.5-8.9-0.2-0.2z"/>
					<path id="&lt;Path&gt;" class="s0" d="m70.3 137.9l0.2 0.2 4.4-8.9-0.1-0.2z"/>
					<path id="&lt;Path&gt;" class="s0" d="m75.6 127.3l0.2 0.2 4.5-8.9-0.2-0.2z"/>
					<path id="&lt;Path&gt;" class="s0" d="m81 116.7l0.1 0.2 4.5-8.9-0.1-0.2z"/>
					<path id="&lt;Path&gt;" class="s0" d="m86.5 106.3l4.4-9-0.1-0.1-4.5 8.9z"/>
					<path id="&lt;Path&gt;" class="s0" d="m91.8 95.6l4.5-8.9-0.1-0.2-4.5 9z"/>
					<path id="&lt;Path&gt;" class="s0" d="m97 84.8l0.1 0.2 4.5-8.9-0.1-0.2z"/>
					<path id="&lt;Path&gt;" class="s0" d="m102.4 74.2l0.1 0.2 4.4-9-0.1-0.1z"/>
					<path id="&lt;Path&gt;" class="s0" d="m107.7 63.6l0.1 0.1 4.5-8.9-0.1-0.1z"/>
					<path id="&lt;Path&gt;" class="s0" d="m113 53l0.1 0.1 4.5-8.9-0.1-0.1z"/>
					<path id="&lt;Path&gt;" class="s0" d="m118.4 42.4l0.1 0.1 4.4-9v-0.1z"/>
					<path id="&lt;Path&gt;" class="s0" d="m123.8 31.8l4.5-8.9-0.1-0.1-4.5 8.9z"/>
					<path id="&lt;Path&gt;" class="s0" d="m129.1 21.2l4.5-8.9-0.1-0.1-4.4 8.9z"/>
					<path id="&lt;Path&gt;" class="s0" d="m138.9 1.6l-4.5 8.9 0.1 0.1z"/>
					<path id="&lt;Path&gt;" class="s0" d="m144.3-9h-0.1l-4.4 8.9z"/>
					<path id="&lt;Path&gt;" class="s0" d="m145.7-11.8v-0.1l-0.6 1.1v0.1z"/>
					<path id="&lt;Path&gt;" class="s0" d="m129.9 1203.3l4.4 8.6v-0.1l-4.3-8.6z"/>
					<path id="&lt;Path&gt;" class="s0" d="m124.6 1192.6l4.3 8.7 0.1-0.1-4.3-8.6z"/>
					<path id="&lt;Path&gt;" class="s0" d="m119.3 1182l4.3 8.6h0.1l-4.4-8.7z"/>
					<path id="&lt;Path&gt;" class="s0" d="m113.9 1171.4l4.4 8.6v-0.1l-4.3-8.6z"/>
					<path id="&lt;Path&gt;" class="s0" d="m108.6 1160.8l4.3 8.6 0.1-0.1-4.4-8.6z"/>
					<path id="&lt;Path&gt;" class="s0" d="m107.6 1158.7l-4.3-8.7-0.1 0.2 4.4 8.6z"/>
					<path id="&lt;Path&gt;" class="s0" d="m102.3 1148l-4.3-8.6-0.1 0.1 4.3 8.7z"/>
					<path id="&lt;Path&gt;" class="s0" d="m97 1137.4l-4.4-8.6-0.1 0.1 4.4 8.6z"/>
					<path id="&lt;Path&gt;" class="s0" d="m91.6 1126.8l-4.3-8.6-0.1 0.1 4.3 8.6z"/>
					<path id="&lt;Path&gt;" class="s0" d="m86.3 1116.2l-4.3-8.7-0.1 0.2 4.3 8.6z"/>
					<path id="&lt;Path&gt;" class="s0" d="m81 1105.5l-4.4-8.6-0.1 0.2 4.3 8.6z"/>
					<path id="&lt;Path&gt;" class="s0" d="m75.6 1094.9l-4.3-8.6-0.1 0.1 4.3 8.7z"/>
					<path id="&lt;Path&gt;" class="s0" d="m70.3 1084.3l-4.3-8.7-0.2 0.2 4.4 8.6z"/>
					<path id="&lt;Path&gt;" class="s0" d="m65 1073.6l-4.4-8.6-0.1 0.2 4.3 8.6z"/>
					<path id="&lt;Path&gt;" class="s0" d="m59.6 1063l-4.3-8.6-0.2 0.2 4.4 8.6z"/>
					<path id="&lt;Path&gt;" class="s0" d="m54.3 1052.4l-4.4-8.6-0.1 0.2 4.3 8.6z"/>
					<path id="&lt;Path&gt;" class="s0" d="m48.9 1041.8l-4.3-8.7-0.2 0.2 4.4 8.7z"/>
					<path id="&lt;Path&gt;" class="s0" d="m43.6 1031.1l-4.3-8.6-0.2 0.2 4.3 8.7z"/>
					<path id="&lt;Path&gt;" class="s0" d="m38.3 1020.5l-4.4-8.6-0.1 0.2 4.3 8.6z"/>
					<path id="&lt;Path&gt;" class="s0" d="m32.9 1009.9l-4.3-8.7-0.2 0.3 4.4 8.6z"/>
					<path id="&lt;Path&gt;" class="s0" d="m27.6 999.2l-4.3-8.6-0.2 0.3 4.3 8.6z"/>
					<path id="&lt;Path&gt;" class="s0" d="m22.3 988.6l-4.4-8.6-0.2 0.2 4.4 8.7z"/>
					<path id="&lt;Path&gt;" class="s0" d="m16.9 978l-4.3-8.7-0.2 0.3 4.3 8.7z"/>
					<path id="&lt;Path&gt;" class="s0" d="m11.6 967.4l-4.3-8.7-0.3 0.3 4.4 8.6z"/>
					<path id="&lt;Path&gt;" class="s0" d="m6.3 956.7l-4.4-8.6-0.2 0.3 4.3 8.6z"/>
					<path id="&lt;Path&gt;" class="s0" d="m0.9 946.1l-4.3-8.6-0.2 0.3 4.3 8.6z"/>
					<path id="&lt;Path&gt;" class="s0" d="m-4.4 935.5l-4.4-8.7-0.2 0.3 4.4 8.7z"/>
					<path id="&lt;Path&gt;" class="s0" d="m-9.8 924.8l-4.3-8.6-0.2 0.3 4.3 8.7z"/>
					<path id="&lt;Path&gt;" class="s0" d="m-15.1 914.2l-4.3-8.6-0.3 0.3 4.4 8.6z"/>
					<path id="&lt;Path&gt;" class="s0" d="m-21.9 900.6v0.9l1.2 2.4 0.3-0.3z"/>
					<path id="&lt;Path&gt;" class="s0" d="m-21.1 297.8l4.3-8.6-0.2-0.3-4.4 8.6z"/>
					<path id="&lt;Path&gt;" class="s0" d="m-15.8 287.2l4.3-8.6-0.2-0.3-4.3 8.6z"/>
					<path id="&lt;Path&gt;" class="s0" d="m-10.7 276.3l0.2 0.3 4.4-8.7-0.3-0.3z"/>
					<path id="&lt;Path&gt;" class="s0" d="m-5.4 265.6l0.3 0.4 4.3-8.7-0.2-0.3z"/>
					<path id="&lt;Path&gt;" class="s0" d="m0 255l0.2 0.3 4.3-8.6-0.2-0.3z"/>
					<path id="&lt;Path&gt;" class="s0" d="m5.3 244.4l0.2 0.3 4.4-8.6-0.2-0.3z"/>
					<path id="&lt;Path&gt;" class="s0" d="m10.7 233.8l0.2 0.3 4.3-8.7-0.2-0.2z"/>
					<path id="&lt;Path&gt;" class="s0" d="m16 223.2l0.2 0.2 4.4-8.6-0.2-0.3z"/>
					<path id="&lt;Path&gt;" class="s0" d="m21.4 212.5l0.2 0.3 4.3-8.6-0.2-0.3z"/>
					<path id="&lt;Path&gt;" class="s0" d="m26.9 202.2l4.3-8.7-0.2-0.2-4.3 8.6z"/>
					<path id="&lt;Path&gt;" class="s0" d="m32.2 191.5l4.4-8.6-0.2-0.2-4.4 8.6z"/>
					<path id="&lt;Path&gt;" class="s0" d="m37.4 180.7l0.2 0.2 4.3-8.6-0.2-0.2z"/>
					<path id="&lt;Path&gt;" class="s0" d="m42.7 170.1l0.2 0.2 4.3-8.6-0.1-0.3z"/>
					<path id="&lt;Path&gt;" class="s0" d="m48.1 159.4l0.1 0.3 4.4-8.7-0.2-0.2z"/>
					<path id="&lt;Path&gt;" class="s0" d="m53.4 148.8l0.2 0.2 4.3-8.6-0.1-0.2z"/>
					<path id="&lt;Path&gt;" class="s0" d="m58.8 138.2l0.1 0.2 4.3-8.6-0.1-0.2z"/>
					<path id="&lt;Path&gt;" class="s0" d="m64.1 127.6l0.1 0.2 4.4-8.7-0.2-0.1z"/>
					<path id="&lt;Path&gt;" class="s0" d="m69.5 117l0.1 0.1 4.3-8.6-0.1-0.2z"/>
					<path id="&lt;Path&gt;" class="s0" d="m74.9 106.5l4.4-8.6-0.2-0.2-4.3 8.6z"/>
					<path id="&lt;Path&gt;" class="s0" d="m80.3 95.9l4.3-8.6-0.1-0.2-4.4 8.6z"/>
					<path id="&lt;Path&gt;" class="s0" d="m85.5 85.1l0.1 0.2 4.3-8.7-0.1-0.1z"/>
					<path id="&lt;Path&gt;" class="s0" d="m90.8 74.5l0.1 0.1 4.4-8.6-0.1-0.1z"/>
					<path id="&lt;Path&gt;" class="s0" d="m96.2 63.9l0.1 0.1 4.3-8.6-0.1-0.2z"/>
					<path id="&lt;Path&gt;" class="s0" d="m101.5 53.2l0.1 0.2 4.3-8.7v-0.1z"/>
					<path id="&lt;Path&gt;" class="s0" d="m106.9 42.6v0.1l4.4-8.6-0.1-0.1z"/>
					<path id="&lt;Path&gt;" class="s0" d="m112.3 32.1l4.3-8.6-0.1-0.1-4.3 8.6z"/>
					<path id="&lt;Path&gt;" class="s0" d="m117.6 21.5l4.3-8.7-4.4 8.6z"/>
					<path id="&lt;Path&gt;" class="s0" d="m122.9 10.9l4.4-8.7-0.1-0.1-4.3 8.7z"/>
					<path id="&lt;Path&gt;" class="s0" d="m132.6-8.4v-0.1l-4.4 8.7h0.1z"/>
					<path id="&lt;Path&gt;" class="s0" d="m134.3-11.8v-0.1l-0.7 1.4v0.1z"/>
					<path id="&lt;Path&gt;" class="s0" d="m118.7 1203.5l4.2 8.4 0.1-0.1-4.2-8.3z"/>
					<path id="&lt;Path&gt;" class="s0" d="m113.4 1192.9l4.2 8.4v-0.1l-4.2-8.4z"/>
					<path id="&lt;Path&gt;" class="s0" d="m108 1182.3l4.2 8.3h0.1l-4.2-8.4z"/>
					<path id="&lt;Path&gt;" class="s0" d="m102.7 1171.7l4.2 8.3v-0.1l-4.2-8.3z"/>
					<path id="&lt;Path&gt;" class="s0" d="m97.3 1161.1l4.2 8.3 0.1-0.1-4.2-8.3z"/>
					<path id="&lt;Path&gt;" class="s0" d="m92.1 1150.3l-0.1 0.2 4.2 8.3 0.1-0.1z"/>
					<path id="&lt;Path&gt;" class="s0" d="m86.7 1139.7l-0.1 0.1 4.2 8.4 0.1-0.1z"/>
					<path id="&lt;Path&gt;" class="s0" d="m85.6 1137.4l-4.2-8.3-0.1 0.1 4.2 8.4z"/>
					<path id="&lt;Path&gt;" class="s0" d="m80.2 1126.8l-4.1-8.3-0.2 0.1 4.2 8.3z"/>
					<path id="&lt;Path&gt;" class="s0" d="m74.9 1116.2l-4.2-8.4-0.1 0.2 4.2 8.3z"/>
					<path id="&lt;Path&gt;" class="s0" d="m69.6 1105.6l-4.2-8.4-0.1 0.2 4.2 8.3z"/>
					<path id="&lt;Path&gt;" class="s0" d="m64.2 1094.9l-4.2-8.3-0.1 0.2 4.2 8.3z"/>
					<path id="&lt;Path&gt;" class="s0" d="m58.9 1084.3l-4.2-8.3-0.1 0.1 4.2 8.4z"/>
					<path id="&lt;Path&gt;" class="s0" d="m53.6 1073.7l-4.2-8.4-0.2 0.2 4.2 8.4z"/>
					<path id="&lt;Path&gt;" class="s0" d="m48.2 1063.1l-4.2-8.4-0.1 0.2 4.2 8.3z"/>
					<path id="&lt;Path&gt;" class="s0" d="m42.9 1052.4l-4.2-8.3-0.2 0.2 4.2 8.3z"/>
					<path id="&lt;Path&gt;" class="s0" d="m37.5 1041.8l-4.2-8.3-0.1 0.2 4.2 8.3z"/>
					<path id="&lt;Path&gt;" class="s0" d="m32.2 1031.2l-4.2-8.4-0.2 0.2 4.2 8.4z"/>
					<path id="&lt;Path&gt;" class="s0" d="m26.9 1020.5l-4.2-8.3-0.2 0.2 4.2 8.4z"/>
					<path id="&lt;Path&gt;" class="s0" d="m21.5 1009.9l-4.2-8.3-0.1 0.2 4.2 8.4z"/>
					<path id="&lt;Path&gt;" class="s0" d="m16.2 999.3l-4.2-8.4-0.2 0.3 4.2 8.3z"/>
					<path id="&lt;Path&gt;" class="s0" d="m10.8 988.7l-4.1-8.4-0.2 0.3 4.2 8.3z"/>
					<path id="&lt;Path&gt;" class="s0" d="m5.5 978l-4.2-8.3-0.2 0.3 4.2 8.3z"/>
					<path id="&lt;Path&gt;" class="s0" d="m0.2 967.4l-4.2-8.3-0.2 0.2 4.2 8.4z"/>
					<path id="&lt;Path&gt;" class="s0" d="m-5.2 956.8l-4.2-8.4-0.2 0.3 4.2 8.4z"/>
					<path id="&lt;Path&gt;" class="s0" d="m-10.5 946.2l-4.2-8.4-0.2 0.3 4.2 8.4z"/>
					<path id="&lt;Path&gt;" class="s0" d="m-15.8 935.5l-4.2-8.3-0.3 0.3 4.2 8.3z"/>
					<path id="&lt;Path&gt;" class="s0" d="m-21.9 276.6l4.1-8.1-0.3-0.3-3.8 7.6z"/>
					<path id="&lt;Path&gt;" class="s0" d="m-16.9 265.9l0.2 0.3 4.2-8.4-0.2-0.3z"/>
					<path id="&lt;Path&gt;" class="s0" d="m-11.6 255.3l0.2 0.2 4.2-8.3-0.2-0.3z"/>
					<path id="&lt;Path&gt;" class="s0" d="m-6.2 244.6l0.2 0.3 4.2-8.3-0.2-0.3z"/>
					<path id="&lt;Path&gt;" class="s0" d="m-0.9 234l0.2 0.3 4.2-8.4-0.2-0.2z"/>
					<path id="&lt;Path&gt;" class="s0" d="m4.5 223.4l0.2 0.3 4.1-8.4-0.1-0.2z"/>
					<path id="&lt;Path&gt;" class="s0" d="m9.8 212.8l0.2 0.2 4.2-8.3-0.2-0.3z"/>
					<path id="&lt;Path&gt;" class="s0" d="m15.3 202.4l4.2-8.3-0.2-0.3-4.2 8.4z"/>
					<path id="&lt;Path&gt;" class="s0" d="m20.7 191.8l4.2-8.4-0.2-0.2-4.2 8.4z"/>
					<path id="&lt;Path&gt;" class="s0" d="m25.8 180.9l0.2 0.3 4.2-8.4-0.2-0.2z"/>
					<path id="&lt;Path&gt;" class="s0" d="m31.2 170.3l0.1 0.2 4.2-8.3-0.1-0.2z"/>
					<path id="&lt;Path&gt;" class="s0" d="m36.5 159.7l0.2 0.2 4.2-8.3-0.2-0.2z"/>
					<path id="&lt;Path&gt;" class="s0" d="m41.9 149.1l0.1 0.2 4.2-8.4-0.1-0.2z"/>
					<path id="&lt;Path&gt;" class="s0" d="m47.2 138.5l0.2 0.2 4.2-8.4-0.2-0.2z"/>
					<path id="&lt;Path&gt;" class="s0" d="m52.6 127.8l0.1 0.2 4.2-8.3-0.1-0.2z"/>
					<path id="&lt;Path&gt;" class="s0" d="m57.9 117.2l0.1 0.2 4.2-8.3-0.1-0.2z"/>
					<path id="&lt;Path&gt;" class="s0" d="m63.4 106.8l4.2-8.4-0.1-0.1-4.2 8.3z"/>
					<path id="&lt;Path&gt;" class="s0" d="m68.7 96.1l4.2-8.3-0.1-0.1-4.2 8.3z"/>
					<path id="&lt;Path&gt;" class="s0" d="m73.9 85.4l0.2 0.1 4.1-8.3-0.1-0.2z"/>
					<path id="&lt;Path&gt;" class="s0" d="m79.3 74.8l0.1 0.1 4.2-8.4-0.1-0.1z"/>
					<path id="&lt;Path&gt;" class="s0" d="m84.6 64.1l0.1 0.2 4.2-8.4-0.1-0.1z"/>
					<path id="&lt;Path&gt;" class="s0" d="m90 53.5l0.1 0.1 4.2-8.3-0.1-0.1z"/>
					<path id="&lt;Path&gt;" class="s0" d="m95.3 42.9l0.1 0.1 4.2-8.3-0.1-0.1z"/>
					<path id="&lt;Path&gt;" class="s0" d="m100.7 32.4l4.2-8.4-4.2 8.3z"/>
					<path id="&lt;Path&gt;" class="s0" d="m106.1 21.8l4.2-8.4-0.1-0.1-4.2 8.4z"/>
					<path id="&lt;Path&gt;" class="s0" d="m111.4 11.1l4.2-8.3v-0.1l-4.2 8.4z"/>
					<path id="&lt;Path&gt;" class="s0" d="m121-7.8l-0.1-0.1-4.2 8.3 0.1 0.1z"/>
					<path id="&lt;Path&gt;" class="s0" d="m123-11.8l-0.1-0.1-0.8 1.7v0.1z"/>
					<path id="&lt;Path&gt;" class="s0" d="m107.5 1203.8l4 8.1 0.1-0.1-4.1-8z"/>
					<path id="&lt;Path&gt;" class="s0" d="m102.1 1193.2l4.1 8.1v-0.1l-4-8.1z"/>
					<path id="&lt;Path&gt;" class="s0" d="m96.8 1182.6l4 8.1 0.1-0.1-4.1-8.1z"/>
					<path id="&lt;Path&gt;" class="s0" d="m91.4 1172l4.1 8h0.1l-4.1-8.1z"/>
					<path id="&lt;Path&gt;" class="s0" d="m86.1 1161.4l4 8 0.1-0.1-4-8z"/>
					<path id="&lt;Path&gt;" class="s0" d="m80.7 1150.8l4.1 8 0.1-0.1-4.1-8.1z"/>
					<path id="&lt;Path&gt;" class="s0" d="m75.4 1140.1l4.1 8.1v-0.1l-4-8.1z"/>
					<path id="&lt;Path&gt;" class="s0" d="m74.2 1137.5l-4.1-8.1v0.1l4 8.1z"/>
					<path id="&lt;Path&gt;" class="s0" d="m68.9 1126.8l-4.1-8-0.1 0.1 4.1 8.1z"/>
					<path id="&lt;Path&gt;" class="s0" d="m63.5 1116.2l-4-8.1-0.1 0.2 4 8z"/>
					<path id="&lt;Path&gt;" class="s0" d="m58.2 1105.6l-4.1-8.1-0.1 0.2 4.1 8z"/>
					<path id="&lt;Path&gt;" class="s0" d="m52.8 1095l-4-8.1-0.1 0.2 4 8z"/>
					<path id="&lt;Path&gt;" class="s0" d="m47.5 1084.3l-4.1-8-0.1 0.1 4.1 8.1z"/>
					<path id="&lt;Path&gt;" class="s0" d="m42.2 1073.7l-4.1-8-0.1 0.1 4 8.1z"/>
					<path id="&lt;Path&gt;" class="s0" d="m36.8 1063.1l-4-8.1-0.2 0.2 4.1 8.1z"/>
					<path id="&lt;Path&gt;" class="s0" d="m31.5 1052.5l-4.1-8.1-0.1 0.2 4 8.1z"/>
					<path id="&lt;Path&gt;" class="s0" d="m26.1 1041.8l-4-8-0.2 0.2 4.1 8z"/>
					<path id="&lt;Path&gt;" class="s0" d="m20.8 1031.2l-4.1-8-0.1 0.2 4 8z"/>
					<path id="&lt;Path&gt;" class="s0" d="m15.5 1020.6l-4.1-8.1-0.2 0.3 4.1 8z"/>
					<path id="&lt;Path&gt;" class="s0" d="m10.1 1010l-4-8.1-0.2 0.2 4 8.1z"/>
					<path id="&lt;Path&gt;" class="s0" d="m4.8 999.3l-4.1-8-0.2 0.2 4.1 8.1z"/>
					<path id="&lt;Path&gt;" class="s0" d="m-0.6 988.7l-4-8-0.2 0.2 4.1 8.1z"/>
					<path id="&lt;Path&gt;" class="s0" d="m-5.9 978.1l-4.1-8.1-0.2 0.3 4.1 8.1z"/>
					<path id="&lt;Path&gt;" class="s0" d="m-11.2 967.5l-4.1-8.1-0.2 0.3 4.1 8z"/>
					<path id="&lt;Path&gt;" class="s0" d="m-16.6 956.8l-4-8-0.2 0.3 4 8z"/>
					<path id="&lt;Path&gt;" class="s0" d="m-21.9 253.7l3-6-0.2-0.3-2.8 5.7z"/>
					<path id="&lt;Path&gt;" class="s0" d="m-17.8 244.9l0.2 0.2 4.1-8-0.2-0.3z"/>
					<path id="&lt;Path&gt;" class="s0" d="m-12.4 234.3l0.2 0.2 4-8-0.2-0.3z"/>
					<path id="&lt;Path&gt;" class="s0" d="m-6.9 223.9l4-8.1-0.1-0.2-4.1 8z"/>
					<path id="&lt;Path&gt;" class="s0" d="m-1.6 213.3l4.1-8.1-0.2-0.2-4.1 8z"/>
					<path id="&lt;Path&gt;" class="s0" d="m3.8 202.7l4-8.1-0.1-0.2-4.1 8z"/>
					<path id="&lt;Path&gt;" class="s0" d="m9.1 192l4.1-8-0.2-0.3-4.1 8.1z"/>
					<path id="&lt;Path&gt;" class="s0" d="m14.3 181.2l0.2 0.2 4-8.1-0.2-0.2z"/>
					<path id="&lt;Path&gt;" class="s0" d="m19.6 170.6l0.2 0.2 4-8.1-0.1-0.2z"/>
					<path id="&lt;Path&gt;" class="s0" d="m25 160l0.1 0.2 4.1-8.1-0.2-0.2z"/>
					<path id="&lt;Path&gt;" class="s0" d="m30.3 149.3l0.2 0.2 4-8-0.1-0.2z"/>
					<path id="&lt;Path&gt;" class="s0" d="m35.7 138.7l0.1 0.2 4.1-8.1-0.2-0.1z"/>
					<path id="&lt;Path&gt;" class="s0" d="m41.2 128.3l4-8.1-0.1-0.1-4.1 8z"/>
					<path id="&lt;Path&gt;" class="s0" d="m46.5 117.7l4-8.1-0.1-0.2-4 8.1z"/>
					<path id="&lt;Path&gt;" class="s0" d="m51.8 107l4.1-8-0.1-0.2-4.1 8.1z"/>
					<path id="&lt;Path&gt;" class="s0" d="m57.2 96.4l4-8-0.1-0.2-4 8.1z"/>
					<path id="&lt;Path&gt;" class="s0" d="m62.4 85.6l0.1 0.2 4.1-8.1-0.1-0.1z"/>
					<path id="&lt;Path&gt;" class="s0" d="m67.8 75l0.1 0.2 4-8.1-0.1-0.1z"/>
					<path id="&lt;Path&gt;" class="s0" d="m73.1 64.4l0.1 0.1 4-8v-0.1z"/>
					<path id="&lt;Path&gt;" class="s0" d="m78.5 53.8v0.1l4.1-8-0.1-0.2z"/>
					<path id="&lt;Path&gt;" class="s0" d="m83.8 43.2l0.1 0.1 4-8.1v-0.1z"/>
					<path id="&lt;Path&gt;" class="s0" d="m89.2 32.7l4.1-8.1-0.1-0.1-4.1 8.1z"/>
					<path id="&lt;Path&gt;" class="s0" d="m94.6 22l4-8-0.1-0.1-4 8.1z"/>
					<path id="&lt;Path&gt;" class="s0" d="m99.9 11.4l4-8v-0.1l-4.1 8z"/>
					<path id="&lt;Path&gt;" class="s0" d="m109.3-7.3h-0.1l-4 8v0.1z"/>
					<path id="&lt;Path&gt;" class="s0" d="m111.6-11.8l-0.1-0.1-1 2 0.1 0.1z"/>
					<path id="&lt;Path&gt;" class="s0" d="m96.2 1204.1l4 7.8v-0.1l-3.9-7.7z"/>
					<path id="&lt;Path&gt;" class="s0" d="m90.9 1193.5l3.9 7.8 0.1-0.1-3.9-7.8z"/>
					<path id="&lt;Path&gt;" class="s0" d="m85.6 1182.9l3.9 7.8v-0.1l-3.9-7.8z"/>
					<path id="&lt;Path&gt;" class="s0" d="m80.2 1172.3l3.9 7.7h0.1l-3.9-7.8z"/>
					<path id="&lt;Path&gt;" class="s0" d="m74.9 1161.7l3.9 7.7v-0.1l-3.9-7.7z"/>
					<path id="&lt;Path&gt;" class="s0" d="m69.5 1151.1l3.9 7.7 0.1-0.1-3.9-7.8z"/>
					<path id="&lt;Path&gt;" class="s0" d="m64.2 1140.4l3.9 7.8 0.1-0.1-4-7.8z"/>
					<path id="&lt;Path&gt;" class="s0" d="m62.8 1137.5l-3.9-7.8-0.1 0.1 3.9 7.8z"/>
					<path id="&lt;Path&gt;" class="s0" d="m57.5 1126.9l-3.9-7.8-0.1 0.1 3.9 7.8z"/>
					<path id="&lt;Path&gt;" class="s0" d="m52.1 1116.2l-3.9-7.7-0.1 0.1 3.9 7.8z"/>
					<path id="&lt;Path&gt;" class="s0" d="m46.8 1105.6l-3.9-7.8-0.1 0.2 3.9 7.8z"/>
					<path id="&lt;Path&gt;" class="s0" d="m41.4 1095l-3.9-7.8-0.1 0.2 3.9 7.7z"/>
					<path id="&lt;Path&gt;" class="s0" d="m36.1 1084.4l-3.9-7.8-0.1 0.2 3.9 7.7z"/>
					<path id="&lt;Path&gt;" class="s0" d="m30.8 1073.7l-4-7.7-0.1 0.1 3.9 7.8z"/>
					<path id="&lt;Path&gt;" class="s0" d="m25.4 1063.1l-3.9-7.8-0.1 0.2 3.9 7.8z"/>
					<path id="&lt;Path&gt;" class="s0" d="m20.1 1052.5l-3.9-7.8-0.2 0.2 3.9 7.8z"/>
					<path id="&lt;Path&gt;" class="s0" d="m14.7 1041.9l-3.9-7.8-0.1 0.2 3.9 7.8z"/>
					<path id="&lt;Path&gt;" class="s0" d="m9.4 1031.3l-3.9-7.8-0.2 0.2 3.9 7.8z"/>
					<path id="&lt;Path&gt;" class="s0" d="m4 1020.6l-3.9-7.7-0.1 0.2 3.9 7.8z"/>
					<path id="&lt;Path&gt;" class="s0" d="m-1.3 1010l-3.9-7.8-0.2 0.3 3.9 7.7z"/>
					<path id="&lt;Path&gt;" class="s0" d="m-6.6 999.4l-3.9-7.8-0.2 0.3 3.9 7.7z"/>
					<path id="&lt;Path&gt;" class="s0" d="m-12 988.8l-3.9-7.8-0.2 0.2 3.9 7.8z"/>
					<path id="&lt;Path&gt;" class="s0" d="m-17.3 978.2l-3.9-7.8-0.2 0.2 3.9 7.8z"/>
					<path id="&lt;Path&gt;" class="s0" d="m-21.9 231l2-4-0.2-0.3-1.8 3.6z"/>
					<path id="&lt;Path&gt;" class="s0" d="m-18.5 224.1l3.9-7.7-0.1-0.3-4 7.8z"/>
					<path id="&lt;Path&gt;" class="s0" d="m-13.1 213.5l3.9-7.8-0.2-0.2-3.9 7.8z"/>
					<path id="&lt;Path&gt;" class="s0" d="m-8 202.7l0.2 0.2 3.9-7.8-0.1-0.2z"/>
					<path id="&lt;Path&gt;" class="s0" d="m-2.6 192l0.2 0.3 3.9-7.8-0.2-0.2z"/>
					<path id="&lt;Path&gt;" class="s0" d="m2.7 181.4l0.2 0.2 3.9-7.7-0.1-0.2z"/>
					<path id="&lt;Path&gt;" class="s0" d="m8.1 170.8l0.1 0.2 3.9-7.7-0.1-0.2z"/>
					<path id="&lt;Path&gt;" class="s0" d="m13.4 160.2l0.2 0.2 3.9-7.8-0.2-0.2z"/>
					<path id="&lt;Path&gt;" class="s0" d="m18.8 149.6l0.1 0.2 3.9-7.8-0.1-0.2z"/>
					<path id="&lt;Path&gt;" class="s0" d="m24.1 139l0.2 0.2 3.9-7.8-0.2-0.2z"/>
					<path id="&lt;Path&gt;" class="s0" d="m29.6 128.5l3.9-7.7-0.1-0.2-3.9 7.8z"/>
					<path id="&lt;Path&gt;" class="s0" d="m34.9 117.9l4-7.8-0.2-0.1-3.9 7.8z"/>
					<path id="&lt;Path&gt;" class="s0" d="m40.2 107.1l0.1 0.2 3.9-7.8-0.1-0.1z"/>
					<path id="&lt;Path&gt;" class="s0" d="m45.5 96.5l0.1 0.2 3.9-7.8-0.1-0.1z"/>
					<path id="&lt;Path&gt;" class="s0" d="m50.9 85.9l0.1 0.2 3.9-7.8-0.1-0.2z"/>
					<path id="&lt;Path&gt;" class="s0" d="m56.2 75.3l0.1 0.1 3.9-7.7-0.1-0.2z"/>
					<path id="&lt;Path&gt;" class="s0" d="m61.6 64.7l0.1 0.1 3.9-7.8-0.1-0.1z"/>
					<path id="&lt;Path&gt;" class="s0" d="m66.9 54.1l0.1 0.1 3.9-7.8-0.1-0.1z"/>
					<path id="&lt;Path&gt;" class="s0" d="m72.3 43.5v0.1l4-7.8-0.1-0.1z"/>
					<path id="&lt;Path&gt;" class="s0" d="m77.7 32.9l3.9-7.7-0.1-0.1-3.9 7.8z"/>
					<path id="&lt;Path&gt;" class="s0" d="m83 22.3l3.9-7.7v-0.1l-3.9 7.7z"/>
					<path id="&lt;Path&gt;" class="s0" d="m88.4 11.7l3.9-7.8h-0.1l-3.9 7.7z"/>
					<path id="&lt;Path&gt;" class="s0" d="m97.6-6.7v-0.1l-3.9 7.8v0.1z"/>
					<path id="&lt;Path&gt;" class="s0" d="m100.2-11.8v-0.1l-1.2 2.3 0.1 0.1z"/>
					<path id="&lt;Path&gt;" class="s0" d="m85 1204.4l3.8 7.5v-0.1l-3.7-7.5z"/>
					<path id="&lt;Path&gt;" class="s0" d="m79.7 1193.8l3.7 7.5 0.1-0.1-3.8-7.5z"/>
					<path id="&lt;Path&gt;" class="s0" d="m74.3 1183.2l3.8 7.5v-0.1l-3.7-7.5z"/>
					<path id="&lt;Path&gt;" class="s0" d="m69 1172.6l3.7 7.4h0.1l-3.8-7.5z"/>
					<path id="&lt;Path&gt;" class="s0" d="m63.6 1162l3.8 7.4 0.1-0.1-3.8-7.4z"/>
					<path id="&lt;Path&gt;" class="s0" d="m58.3 1151.3l3.7 7.5 0.1-0.1-3.8-7.5z"/>
					<path id="&lt;Path&gt;" class="s0" d="m52.9 1140.7l3.8 7.5 0.1-0.1-3.8-7.5z"/>
					<path id="&lt;Path&gt;" class="s0" d="m51.4 1137.5l-3.7-7.5-0.1 0.1 3.7 7.5z"/>
					<path id="&lt;Path&gt;" class="s0" d="m46.1 1126.9l-3.8-7.5-0.1 0.1 3.8 7.5z"/>
					<path id="&lt;Path&gt;" class="s0" d="m40.7 1116.3l-3.7-7.5-0.1 0.1 3.7 7.5z"/>
					<path id="&lt;Path&gt;" class="s0" d="m35.4 1105.6l-3.8-7.5-0.1 0.2 3.8 7.5z"/>
					<path id="&lt;Path&gt;" class="s0" d="m30 1095l-3.7-7.5-0.1 0.2 3.7 7.5z"/>
					<path id="&lt;Path&gt;" class="s0" d="m24.7 1084.4l-3.8-7.5-0.1 0.2 3.8 7.5z"/>
					<path id="&lt;Path&gt;" class="s0" d="m19.4 1073.8l-3.8-7.5-0.1 0.2 3.7 7.4z"/>
					<path id="&lt;Path&gt;" class="s0" d="m14 1063.2l-3.8-7.5-0.1 0.2 3.8 7.4z"/>
					<path id="&lt;Path&gt;" class="s0" d="m8.7 1052.5l-3.8-7.4-0.1 0.1 3.7 7.5z"/>
					<path id="&lt;Path&gt;" class="s0" d="m3.3 1041.9l-3.7-7.5-0.2 0.2 3.8 7.5z"/>
					<path id="&lt;Path&gt;" class="s0" d="m-2 1031.3l-3.8-7.5-0.1 0.2 3.7 7.5z"/>
					<path id="&lt;Path&gt;" class="s0" d="m-7.4 1020.7l-3.7-7.5-0.2 0.2 3.8 7.5z"/>
					<path id="&lt;Path&gt;" class="s0" d="m-12.7 1010.1l-3.8-7.5-0.1 0.2 3.7 7.5z"/>
					<path id="&lt;Path&gt;" class="s0" d="m-21.8 992l-0.1 0.1v0.2l3.7 7.4 0.1-0.3z"/>
					<path id="&lt;Path&gt;" class="s0" d="m-19.5 202.9l0.2 0.2 3.7-7.5-0.1-0.2z"/>
					<path id="&lt;Path&gt;" class="s0" d="m-14.2 192.3l0.2 0.2 3.8-7.5-0.2-0.2z"/>
					<path id="&lt;Path&gt;" class="s0" d="m-8.8 181.7l0.1 0.2 3.8-7.5-0.1-0.2z"/>
					<path id="&lt;Path&gt;" class="s0" d="m-3.5 171.1l0.2 0.2 3.8-7.5-0.2-0.2z"/>
					<path id="&lt;Path&gt;" class="s0" d="m1.9 160.5l0.1 0.2 3.8-7.5-0.1-0.2z"/>
					<path id="&lt;Path&gt;" class="s0" d="m7.2 149.8l0.2 0.2 3.7-7.5-0.1-0.1z"/>
					<path id="&lt;Path&gt;" class="s0" d="m12.6 139.2l0.1 0.2 3.8-7.5-0.1-0.1z"/>
					<path id="&lt;Path&gt;" class="s0" d="m18.1 128.8l3.7-7.5-0.1-0.2-3.8 7.5z"/>
					<path id="&lt;Path&gt;" class="s0" d="m23.4 118.2l3.8-7.5-0.1-0.2-3.8 7.5z"/>
					<path id="&lt;Path&gt;" class="s0" d="m28.6 107.4l0.1 0.2 3.8-7.5-0.1-0.2z"/>
					<path id="&lt;Path&gt;" class="s0" d="m34 96.8l0.1 0.1 3.8-7.4-0.1-0.2z"/>
					<path id="&lt;Path&gt;" class="s0" d="m39.3 86.2l0.1 0.1 3.8-7.5-0.1-0.1z"/>
					<path id="&lt;Path&gt;" class="s0" d="m44.7 75.6l0.1 0.1 3.7-7.5v-0.1z"/>
					<path id="&lt;Path&gt;" class="s0" d="m50 65l0.1 0.1 3.8-7.5-0.1-0.1z"/>
					<path id="&lt;Path&gt;" class="s0" d="m55.4 54.4l0.1 0.1 3.7-7.5v-0.1z"/>
					<path id="&lt;Path&gt;" class="s0" d="m60.7 43.7l0.1 0.1 3.8-7.4-0.1-0.1z"/>
					<path id="&lt;Path&gt;" class="s0" d="m66.2 33.2l3.7-7.5-3.8 7.4z"/>
					<path id="&lt;Path&gt;" class="s0" d="m71.5 22.6l3.8-7.5-0.1-0.1-3.8 7.5z"/>
					<path id="&lt;Path&gt;" class="s0" d="m76.8 12l3.8-7.5v-0.1l-3.8 7.5z"/>
					<path id="&lt;Path&gt;" class="s0" d="m86-6.1l-0.1-0.1-3.8 7.5 0.1 0.1z"/>
					<path id="&lt;Path&gt;" class="s0" d="m88.8-11.8v-0.1l-1.3 2.6z"/>
					<path id="&lt;Path&gt;" class="s0" d="m73.8 1204.7l3.6 7.2 0.1-0.1-3.7-7.2z"/>
					<path id="&lt;Path&gt;" class="s0" d="m68.4 1194.1l3.7 7.2v-0.1l-3.6-7.2z"/>
					<path id="&lt;Path&gt;" class="s0" d="m63.1 1183.5l3.6 7.2 0.1-0.1-3.7-7.2z"/>
					<path id="&lt;Path&gt;" class="s0" d="m57.7 1172.9l3.7 7.2v-0.1l-3.6-7.2z"/>
					<path id="&lt;Path&gt;" class="s0" d="m52.4 1162.3l3.6 7.1h0.1l-3.7-7.2z"/>
					<path id="&lt;Path&gt;" class="s0" d="m47 1151.6l3.7 7.2v-0.1l-3.6-7.2z"/>
					<path id="&lt;Path&gt;" class="s0" d="m41.7 1141l3.6 7.2 0.1-0.1-3.6-7.2z"/>
					<path id="&lt;Path&gt;" class="s0" d="m36.3 1130.4l3.6 7.2 0.1-0.1-3.6-7.2z"/>
					<path id="&lt;Path&gt;" class="s0" d="m31 1119.8l3.6 7.2 0.1-0.1-3.6-7.2z"/>
					<path id="&lt;Path&gt;" class="s0" d="m29.3 1116.3l-3.6-7.2-0.1 0.1 3.6 7.2z"/>
					<path id="&lt;Path&gt;" class="s0" d="m24 1105.7l-3.6-7.2-0.1 0.1 3.6 7.2z"/>
					<path id="&lt;Path&gt;" class="s0" d="m18.6 1095l-3.6-7.2-0.1 0.2 3.6 7.2z"/>
					<path id="&lt;Path&gt;" class="s0" d="m13.3 1084.4l-3.6-7.2-0.1 0.2 3.6 7.2z"/>
					<path id="&lt;Path&gt;" class="s0" d="m8 1073.8l-3.7-7.2-0.1 0.2 3.6 7.2z"/>
					<path id="&lt;Path&gt;" class="s0" d="m2.6 1063.2l-3.6-7.2-0.1 0.2 3.6 7.2z"/>
					<path id="&lt;Path&gt;" class="s0" d="m-2.7 1052.6l-3.7-7.2-0.1 0.2 3.6 7.2z"/>
					<path id="&lt;Path&gt;" class="s0" d="m-8.1 1042l-3.6-7.2-0.1 0.2 3.6 7.1z"/>
					<path id="&lt;Path&gt;" class="s0" d="m-13.4 1031.3l-3.7-7.2-0.1 0.2 3.6 7.2z"/>
					<path id="&lt;Path&gt;" class="s0" d="m-21.9 1014.5v0.5l3 5.9 0.1-0.2z"/>
					<path id="&lt;Path&gt;" class="s0" d="m-20.4 181.9l0.2 0.2 3.6-7.2-0.1-0.2z"/>
					<path id="&lt;Path&gt;" class="s0" d="m-15 171.3l0.1 0.2 3.7-7.2-0.2-0.2z"/>
					<path id="&lt;Path&gt;" class="s0" d="m-9.7 160.7l0.2 0.2 3.6-7.2-0.1-0.2z"/>
					<path id="&lt;Path&gt;" class="s0" d="m-4.2 150.3l3.6-7.2-0.1-0.2-3.6 7.2z"/>
					<path id="&lt;Path&gt;" class="s0" d="m1.2 139.7l3.6-7.2-0.1-0.2-3.7 7.2z"/>
					<path id="&lt;Path&gt;" class="s0" d="m6.4 128.9l0.1 0.1 3.6-7.2-0.1-0.1z"/>
					<path id="&lt;Path&gt;" class="s0" d="m11.7 118.3l0.2 0.1 3.6-7.2-0.1-0.1z"/>
					<path id="&lt;Path&gt;" class="s0" d="m17.1 107.7l0.1 0.1 3.6-7.2-0.1-0.1z"/>
					<path id="&lt;Path&gt;" class="s0" d="m22.5 97.1l0.1 0.1 3.6-7.2-0.1-0.1z"/>
					<path id="&lt;Path&gt;" class="s0" d="m27.8 86.5l0.1 0.1 3.6-7.2-0.1-0.1z"/>
					<path id="&lt;Path&gt;" class="s0" d="m33.2 75.8v0.2l3.7-7.2-0.1-0.1z"/>
					<path id="&lt;Path&gt;" class="s0" d="m38.5 65.2l0.1 0.2 3.6-7.2-0.1-0.2z"/>
					<path id="&lt;Path&gt;" class="s0" d="m43.9 54.7l3.7-7.2-0.1-0.1-3.6 7.2z"/>
					<path id="&lt;Path&gt;" class="s0" d="m49.3 44.1l3.6-7.2-0.1-0.1-3.6 7.2z"/>
					<path id="&lt;Path&gt;" class="s0" d="m54.6 33.5l3.7-7.2-0.1-0.1-3.6 7.2z"/>
					<path id="&lt;Path&gt;" class="s0" d="m60 22.9l3.6-7.2-0.1-0.1-3.6 7.2z"/>
					<path id="&lt;Path&gt;" class="s0" d="m65.3 12.3l3.6-7.2v-0.1l-3.6 7.2z"/>
					<path id="&lt;Path&gt;" class="s0" d="m74.3-5.5l-0.1-0.1-3.6 7.2 0.1 0.1z"/>
					<path id="&lt;Path&gt;" class="s0" d="m77.5-11.8l-0.1-0.1-1.4 2.9z"/>
					<path id="&lt;Path&gt;" class="s0" d="m62.6 1205l3.4 6.9 0.1-0.1-3.5-6.9z"/>
					<path id="&lt;Path&gt;" class="s0" d="m57.2 1194.4l3.5 6.9v-0.1l-3.5-6.9z"/>
					<path id="&lt;Path&gt;" class="s0" d="m51.8 1183.8l3.5 6.9 0.1-0.1-3.5-6.9z"/>
					<path id="&lt;Path&gt;" class="s0" d="m46.5 1173.2l3.5 6.9v-0.1l-3.5-6.9z"/>
					<path id="&lt;Path&gt;" class="s0" d="m41.1 1162.5l3.5 7 0.1-0.1-3.5-6.9z"/>
					<path id="&lt;Path&gt;" class="s0" d="m35.8 1151.9l3.5 6.9-3.4-7z"/>
					<path id="&lt;Path&gt;" class="s0" d="m30.4 1141.3l3.5 6.9 0.1-0.1-3.5-6.9z"/>
					<path id="&lt;Path&gt;" class="s0" d="m25.1 1130.7l3.5 6.9v-0.1l-3.4-6.9z"/>
					<path id="&lt;Path&gt;" class="s0" d="m19.7 1120.1l3.5 6.9 0.1-0.1-3.5-6.9z"/>
					<path id="&lt;Path&gt;" class="s0" d="m17.9 1116.3l-3.4-6.9-0.1 0.1 3.5 6.9z"/>
					<path id="&lt;Path&gt;" class="s0" d="m12.6 1105.7l-3.5-6.9-0.1 0.1 3.5 6.9z"/>
					<path id="&lt;Path&gt;" class="s0" d="m7.3 1095.1l-3.5-6.9-0.1 0.1 3.4 6.9z"/>
					<path id="&lt;Path&gt;" class="s0" d="m1.9 1084.5l-3.5-7-0.1 0.2 3.5 6.9z"/>
					<path id="&lt;Path&gt;" class="s0" d="m-3.4 1073.8l-3.5-6.9-0.1 0.2 3.4 6.9z"/>
					<path id="&lt;Path&gt;" class="s0" d="m-8.8 1063.2l-3.5-6.9-0.1 0.2 3.5 6.9z"/>
					<path id="&lt;Path&gt;" class="s0" d="m-14.1 1052.6l-3.5-6.9-0.2 0.2 3.5 6.9z"/>
					<path id="&lt;Path&gt;" class="s0" d="m-21.9 1037.2v0.4l2.3 4.6 0.1-0.2z"/>
					<path id="&lt;Path&gt;" class="s0" d="m-21.1 161.1l3.5-6.9-0.1-0.1-3.5 6.9z"/>
					<path id="&lt;Path&gt;" class="s0" d="m-15.7 150.5l3.5-6.9-0.2-0.1-3.5 6.9z"/>
					<path id="&lt;Path&gt;" class="s0" d="m-10.4 139.9l3.5-6.9-0.1-0.2-3.5 7z"/>
					<path id="&lt;Path&gt;" class="s0" d="m-5.1 129.1l0.1 0.2 3.5-6.9-0.2-0.2z"/>
					<path id="&lt;Path&gt;" class="s0" d="m0.2 118.5l0.1 0.2 3.5-6.9-0.1-0.2z"/>
					<path id="&lt;Path&gt;" class="s0" d="m5.6 107.9l0.1 0.2 3.4-6.9-0.1-0.2z"/>
					<path id="&lt;Path&gt;" class="s0" d="m10.9 97.3l0.1 0.2 3.5-6.9-0.1-0.2z"/>
					<path id="&lt;Path&gt;" class="s0" d="m16.3 86.7l0.1 0.1 3.4-6.9v-0.1z"/>
					<path id="&lt;Path&gt;" class="s0" d="m21.6 76.1l0.1 0.1 3.5-6.9-0.1-0.1z"/>
					<path id="&lt;Path&gt;" class="s0" d="m27 65.5l0.1 0.1 3.4-6.9v-0.1z"/>
					<path id="&lt;Path&gt;" class="s0" d="m32.4 55l3.5-6.9-0.1-0.1-3.5 6.9z"/>
					<path id="&lt;Path&gt;" class="s0" d="m37.8 44.4l3.4-6.9v-0.1l-3.5 6.9z"/>
					<path id="&lt;Path&gt;" class="s0" d="m43.1 33.8l3.5-6.9-0.1-0.1-3.5 6.9z"/>
					<path id="&lt;Path&gt;" class="s0" d="m48.4 23.2l3.5-6.9v-0.1l-3.5 6.9z"/>
					<path id="&lt;Path&gt;" class="s0" d="m53.8 12.6l3.5-7h-0.1l-3.5 6.9z"/>
					<path id="&lt;Path&gt;" class="s0" d="m62.6-5l-3.5 6.9z"/>
					<path id="&lt;Path&gt;" class="s0" d="m66.1-11.8l-0.1-0.1-1.6 3.2h0.1z"/>
					<path id="&lt;Path&gt;" class="s0" d="m51.3 1205.3l3.4 6.6v-0.1l-3.3-6.6z"/>
					<path id="&lt;Path&gt;" class="s0" d="m46 1194.7l3.3 6.6 0.1-0.1-3.4-6.6z"/>
					<path id="&lt;Path&gt;" class="s0" d="m40.6 1184l3.4 6.7v-0.1l-3.3-6.6z"/>
					<path id="&lt;Path&gt;" class="s0" d="m35.3 1173.4l3.3 6.7 0.1-0.1-3.4-6.6z"/>
					<path id="&lt;Path&gt;" class="s0" d="m29.9 1162.8l3.3 6.7 0.1-0.1-3.3-6.6z"/>
					<path id="&lt;Path&gt;" class="s0" d="m24.5 1152.2l3.4 6.7 0.1-0.1-3.4-6.7z"/>
					<path id="&lt;Path&gt;" class="s0" d="m19.2 1141.6l3.3 6.7 0.1-0.1-3.3-6.7z"/>
					<path id="&lt;Path&gt;" class="s0" d="m13.8 1131l3.4 6.7 0.1-0.2-3.4-6.6z"/>
					<path id="&lt;Path&gt;" class="s0" d="m8.5 1120.4l3.3 6.6 0.1-0.1-3.3-6.6z"/>
					<path id="&lt;Path&gt;" class="s0" d="m6.6 1116.3l-3.4-6.6-0.1 0.1 3.4 6.6z"/>
					<path id="&lt;Path&gt;" class="s0" d="m1.2 1105.7l-3.3-6.6-0.1 0.1 3.3 6.6z"/>
					<path id="&lt;Path&gt;" class="s0" d="m-4.1 1095.1l-3.4-6.6-0.1 0.1 3.4 6.6z"/>
					<path id="&lt;Path&gt;" class="s0" d="m-9.5 1084.5l-3.3-6.6-0.1 0.1 3.3 6.6z"/>
					<path id="&lt;Path&gt;" class="s0" d="m-14.8 1073.9l-3.4-6.6-0.1 0.1 3.3 6.6z"/>
					<path id="&lt;Path&gt;" class="s0" d="m-21.9 1059.9v0.4l1.6 3.1 0.1-0.1z"/>
					<path id="&lt;Path&gt;" class="s0" d="m-21.9 140.1l3.3-6.6-0.1-0.1-3.2 6.3z"/>
					<path id="&lt;Path&gt;" class="s0" d="m-16.7 129.4l0.1 0.2 3.4-6.7-0.1-0.1z"/>
					<path id="&lt;Path&gt;" class="s0" d="m-11.3 118.8l0.1 0.1 3.3-6.6-0.1-0.1z"/>
					<path id="&lt;Path&gt;" class="s0" d="m-6 108.2l0.1 0.1 3.4-6.6-0.1-0.1z"/>
					<path id="&lt;Path&gt;" class="s0" d="m-0.6 97.6l0.1 0.1 3.3-6.6-0.1-0.1z"/>
					<path id="&lt;Path&gt;" class="s0" d="m4.7 87l0.1 0.1 3.4-6.6-0.1-0.1z"/>
					<path id="&lt;Path&gt;" class="s0" d="m10.1 76.4l0.1 0.1 3.3-6.6-0.1-0.1z"/>
					<path id="&lt;Path&gt;" class="s0" d="m15.4 65.8l0.1 0.1 3.4-6.6-0.1-0.1z"/>
					<path id="&lt;Path&gt;" class="s0" d="m20.9 55.3l3.3-6.6-0.1-0.1-3.3 6.6z"/>
					<path id="&lt;Path&gt;" class="s0" d="m26.2 44.7l3.4-6.7h-0.1l-3.3 6.6z"/>
					<path id="&lt;Path&gt;" class="s0" d="m31.6 34.1l3.3-6.7-3.4 6.6z"/>
					<path id="&lt;Path&gt;" class="s0" d="m36.9 23.4l3.4-6.6-0.1-0.1-3.3 6.7z"/>
					<path id="&lt;Path&gt;" class="s0" d="m42.3 12.8l3.3-6.6v-0.1l-3.4 6.7z"/>
					<path id="&lt;Path&gt;" class="s0" d="m51-4.4l-0.1-0.1-3.3 6.7z"/>
					<path id="&lt;Path&gt;" class="s0" d="m54.7-11.8v-0.1l-1.8 3.5h0.1z"/>
					<path id="&lt;Path&gt;" class="s0" d="m40.1 1205.5l3.2 6.4v-0.1l-3.2-6.3z"/>
					<path id="&lt;Path&gt;" class="s0" d="m34.7 1194.9l3.2 6.4 0.1-0.1-3.2-6.3z"/>
					<path id="&lt;Path&gt;" class="s0" d="m29.4 1184.3l3.2 6.4v-0.1l-3.2-6.3z"/>
					<path id="&lt;Path&gt;" class="s0" d="m24 1173.7l3.2 6.4 0.1-0.1-3.2-6.3z"/>
					<path id="&lt;Path&gt;" class="s0" d="m18.7 1163.1l3.2 6.4v-0.1l-3.2-6.3z"/>
					<path id="&lt;Path&gt;" class="s0" d="m13.3 1152.5l3.2 6.4 0.1-0.1-3.2-6.4z"/>
					<path id="&lt;Path&gt;" class="s0" d="m7.9 1141.9l3.2 6.4 0.1-0.1-3.2-6.4z"/>
					<path id="&lt;Path&gt;" class="s0" d="m2.6 1131.3l3.2 6.4 0.1-0.1-3.2-6.4z"/>
					<path id="&lt;Path&gt;" class="s0" d="m-2.8 1120.7l3.2 6.4 0.1-0.1-3.2-6.4z"/>
					<path id="&lt;Path&gt;" class="s0" d="m-8 1110l-0.1 0.1 3.2 6.4 0.1-0.2z"/>
					<path id="&lt;Path&gt;" class="s0" d="m-13.4 1099.4l-0.1 0.1 3.2 6.4 0.1-0.2z"/>
					<path id="&lt;Path&gt;" class="s0" d="m-15.5 1095.1l-3.2-6.3-0.1 0.1 3.2 6.4z"/>
					<path id="&lt;Path&gt;" class="s0" d="m-21.9 117.5l2.3-4.6-0.1-0.2-2.2 4.5z"/>
					<path id="&lt;Path&gt;" class="s0" d="m-17.5 108.5l0.1 0.1 3.2-6.3-0.1-0.2z"/>
					<path id="&lt;Path&gt;" class="s0" d="m-12.2 97.9l0.1 0.1 3.2-6.4-0.1-0.1z"/>
					<path id="&lt;Path&gt;" class="s0" d="m-6.8 87.3l0.1 0.1 3.2-6.4-0.1-0.1z"/>
					<path id="&lt;Path&gt;" class="s0" d="m-1.4 76.7v0.1l3.2-6.4v-0.1z"/>
					<path id="&lt;Path&gt;" class="s0" d="m3.9 66.1l0.1 0.1 3.2-6.4-0.1-0.1z"/>
					<path id="&lt;Path&gt;" class="s0" d="m9.3 55.6l3.2-6.4v-0.1l-3.2 6.4z"/>
					<path id="&lt;Path&gt;" class="s0" d="m14.7 44.9l3.2-6.3-0.1-0.1-3.2 6.4z"/>
					<path id="&lt;Path&gt;" class="s0" d="m20 34.3l3.2-6.3v-0.1l-3.2 6.4z"/>
					<path id="&lt;Path&gt;" class="s0" d="m25.4 23.7l3.2-6.3-0.1-0.1-3.2 6.4z"/>
					<path id="&lt;Path&gt;" class="s0" d="m30.7 13.1l3.2-6.3v-0.1l-3.2 6.4z"/>
					<path id="&lt;Path&gt;" class="s0" d="m39.3-3.8v-0.1l-3.3 6.4h0.1z"/>
					<path id="&lt;Path&gt;" class="s0" d="m43.3-11.8v-0.1l-1.9 3.7v0.1z"/>
					<path id="&lt;Path&gt;" class="s0" d="m28.9 1205.8l3 6.1v-0.1l-3-6z"/>
					<path id="&lt;Path&gt;" class="s0" d="m23.5 1195.2l3.1 6.1v-0.1l-3.1-6z"/>
					<path id="&lt;Path&gt;" class="s0" d="m18.1 1184.6l3.1 6.1v-0.1l-3-6z"/>
					<path id="&lt;Path&gt;" class="s0" d="m12.8 1174l3 6.1 0.1-0.1-3.1-6z"/>
					<path id="&lt;Path&gt;" class="s0" d="m7.4 1163.4l3.1 6.1v-0.1l-3-6.1z"/>
					<path id="&lt;Path&gt;" class="s0" d="m2.1 1152.8l3 6.1 0.1-0.1-3.1-6.1z"/>
					<path id="&lt;Path&gt;" class="s0" d="m-3.3 1142.2l3.1 6.1v-0.1l-3-6.1z"/>
					<path id="&lt;Path&gt;" class="s0" d="m-8.7 1131.6l3.1 6.1 0.1-0.1-3.1-6.1z"/>
					<path id="&lt;Path&gt;" class="s0" d="m-14 1121l3 6.1 0.1-0.1-3-6.1z"/>
					<path id="&lt;Path&gt;" class="s0" d="m-19.4 1110.4l3.1 6.1 0.1-0.1-3.1-6.1z"/>
					<path id="&lt;Path&gt;" class="s0" d="m-18.3 87.5v0.1l3.1-6-0.1-0.1z"/>
					<path id="&lt;Path&gt;" class="s0" d="m-13 76.9l0.1 0.1 3.1-6-0.1-0.1z"/>
					<path id="&lt;Path&gt;" class="s0" d="m-7.6 66.3v0.1l3.1-6-0.1-0.1z"/>
					<path id="&lt;Path&gt;" class="s0" d="m-2.2 55.8l3.1-6-0.1-0.1-3.1 6z"/>
					<path id="&lt;Path&gt;" class="s0" d="m3.2 45.2l3-6v-0.1l-3.1 6z"/>
					<path id="&lt;Path&gt;" class="s0" d="m8.5 34.6l3.1-6-0.1-0.1-3 6z"/>
					<path id="&lt;Path&gt;" class="s0" d="m13.9 24l3-6v-0.1l-3.1 6z"/>
					<path id="&lt;Path&gt;" class="s0" d="m19.2 13.4l3.1-6.1h-0.1l-3 6z"/>
					<path id="&lt;Path&gt;" class="s0" d="m27.6-3.3l-3.1 6 0.1 0.1z"/>
					<path id="&lt;Path&gt;" class="s0" d="m31.9-11.8v-0.1l-2 4v0.1z"/>
					<path id="&lt;Path&gt;" class="s0" d="m17.6 1206.1l2.9 5.8 0.1-0.1-2.9-5.7z"/>
					<path id="&lt;Path&gt;" class="s0" d="m12.3 1195.5l2.9 5.8v-0.1l-2.9-5.7z"/>
					<path id="&lt;Path&gt;" class="s0" d="m6.9 1184.9l2.9 5.8 0.1-0.1-3-5.7z"/>
					<path id="&lt;Path&gt;" class="s0" d="m1.5 1174.3l3 5.8v-0.1l-2.9-5.8z"/>
					<path id="&lt;Path&gt;" class="s0" d="m-3.8 1163.7l2.9 5.8 0.1-0.1-3-5.8z"/>
					<path id="&lt;Path&gt;" class="s0" d="m-9.2 1153.1l2.9 5.8 0.1-0.1-2.9-5.8z"/>
					<path id="&lt;Path&gt;" class="s0" d="m-14.5 1142.5l2.9 5.8v-0.1l-2.9-5.8z"/>
					<path id="&lt;Path&gt;" class="s0" d="m-19.9 1131.9l2.9 5.8 0.1-0.1-2.9-5.8z"/>
					<path id="&lt;Path&gt;" class="s0" d="m-19.1 66.7l2.9-5.8v-0.1l-3 5.8z"/>
					<path id="&lt;Path&gt;" class="s0" d="m-13.7 56.1l2.9-5.8-0.1-0.1-2.9 5.8z"/>
					<path id="&lt;Path&gt;" class="s0" d="m-8.4 45.5l2.9-5.8v-0.1l-2.9 5.8z"/>
					<path id="&lt;Path&gt;" class="s0" d="m-3 34.9l2.9-5.8h-0.1l-2.9 5.7z"/>
					<path id="&lt;Path&gt;" class="s0" d="m2.3 24.3l2.9-5.8-2.9 5.7z"/>
					<path id="&lt;Path&gt;" class="s0" d="m7.7 13.7l2.9-5.8-3 5.7z"/>
					<path id="&lt;Path&gt;" class="s0" d="m16-2.7h-0.1l-2.9 5.7v0.1z"/>
					<path id="&lt;Path&gt;" class="s0" d="m20.6-11.8l-0.1-0.1-2.1 4.3v0.1z"/>
					<path id="&lt;Path&gt;" class="s0" d="m6.4 1206.4l2.8 5.5v-0.1l-2.8-5.5z"/>
					<path id="&lt;Path&gt;" class="s0" d="m1 1195.8l2.8 5.5v-0.1l-2.7-5.5z"/>
					<path id="&lt;Path&gt;" class="s0" d="m-4.3 1185.2l2.7 5.5 0.1-0.1-2.8-5.5z"/>
					<path id="&lt;Path&gt;" class="s0" d="m-9.7 1174.6l2.8 5.5v-0.1l-2.7-5.5z"/>
					<path id="&lt;Path&gt;" class="s0" d="m-15.1 1164l2.8 5.5 0.1-0.1-2.8-5.5z"/>
					<path id="&lt;Path&gt;" class="s0" d="m-20.4 1153.4l2.8 5.5v-0.1l-2.8-5.5z"/>
					<path id="&lt;Path&gt;" class="s0" d="m-19.9 45.8l2.8-5.5-0.1-0.1-2.8 5.5z"/>
					<path id="&lt;Path&gt;" class="s0" d="m-14.6 35.2l2.8-5.5v-0.1l-2.8 5.5z"/>
					<path id="&lt;Path&gt;" class="s0" d="m-9.2 24.6l2.8-5.5-0.1-0.1-2.7 5.5z"/>
					<path id="&lt;Path&gt;" class="s0" d="m-3.8 14l2.7-5.5v-0.1l-2.8 5.5z"/>
					<path id="&lt;Path&gt;" class="s0" d="m4.3-2.1v-0.1l-2.8 5.5v0.1z"/>
					<path id="&lt;Path&gt;" class="s0" d="m9.2-11.8v-0.1l-2.4 4.6 0.1 0.1z"/>
					<path id="&lt;Path&gt;" class="s0" d="m-4.8 1206.7l2.6 5.2v-0.1l-2.6-5.2z"/>
					<path id="&lt;Path&gt;" class="s0" d="m-10.2 1196.1l2.6 5.2 0.1-0.1-2.7-5.2z"/>
					<path id="&lt;Path&gt;" class="s0" d="m-15.6 1185.5l2.7 5.2v-0.1l-2.6-5.2z"/>
					<path id="&lt;Path&gt;" class="s0" d="m-20.9 1174.9l2.6 5.2v-0.1l-2.6-5.2z"/>
					<path id="&lt;Path&gt;" class="s0" d="m-20.7 24.8l2.6-5.1v-0.1l-2.7 5.2z"/>
					<path id="&lt;Path&gt;" class="s0" d="m-15.4 14.2l2.7-5.1-0.1-0.1-2.6 5.2z"/>
					<path id="&lt;Path&gt;" class="s0" d="m-7.4-1.5v-0.1l-2.6 5.2v0.1z"/>
					<path id="&lt;Path&gt;" class="s0" d="m-2.2-11.8v-0.1l-2.5 4.9 0.1 0.1z"/>
					<path id="&lt;Path&gt;" class="s0" d="m-16.1 1207l2.5 4.9v-0.1l-2.4-4.9z"/>
					<path id="&lt;Path&gt;" class="s0" d="m-21.4 1196.4l2.5 4.9v-0.1l-2.5-4.9z"/>
					<path id="&lt;Path&gt;" class="s0" d="m-19-1h-0.1l-2.5 4.9h0.1z"/>
					<path id="&lt;Path&gt;" class="s0" d="m-13.7-11.6l-2.5 4.9z"/>
				</g>
			</g>
		</g>
	</g>
</svg>