<svg width="406" height="132" viewBox="0 0 406 132" fill="none" xmlns="http://www.w3.org/2000/svg">
  <path d="M68.5691 98.62C61.9424 98.62 56.4824 97.36 52.1891 94.84C47.8957 92.2267 45.5624 88.7733 45.1891 84.48L49.2491 83.36C49.2491 86.5333 51.0224 89.1933 54.5691 91.34C58.2091 93.3933 62.8757 94.42 68.5691 94.42C74.4491 94.42 79.2091 93.3467 82.8491 91.2C86.5824 89.0533 88.4491 86.3 88.4491 82.94C88.4491 79.7667 86.9091 77.2 83.8291 75.24C80.7491 73.28 76.5491 71.5533 71.2291 70.06L62.5491 67.54C50.9757 64.18 42.2491 59.9333 36.3691 54.8C30.4891 49.6667 27.5491 42.62 27.5491 33.66C27.5491 27.22 29.3224 21.5267 32.8691 16.58C36.5091 11.54 41.4091 7.57333 47.5691 4.67999C53.8224 1.78666 60.8691 0.339991 68.7091 0.339991C75.8024 0.339991 82.1957 1.50666 87.8891 3.84C93.6757 6.07999 98.4357 9.3 102.169 13.5C105.996 17.7 108.422 22.6 109.449 28.2L105.389 29.32C104.549 24.3733 102.449 20.0333 99.0891 16.3C95.7291 12.5667 91.4357 9.67333 86.2091 7.62C80.9824 5.56666 75.1491 4.54 68.7091 4.54C61.6157 4.54 55.2691 5.84666 49.6691 8.45999C44.1624 10.98 39.7757 14.4333 36.5091 18.82C33.3357 23.2067 31.7491 28.2467 31.7491 33.94C31.7491 41.5933 34.4091 47.7533 39.7291 52.42C45.1424 56.9933 53.1224 60.7267 63.6691 63.62L72.3491 66C78.7891 67.7733 83.7824 69.92 87.3291 72.44C90.8757 74.96 92.6491 78.3667 92.6491 82.66C92.6491 87.42 90.4557 91.2933 86.0691 94.28C81.6824 97.1733 75.8491 98.62 68.5691 98.62ZM68.5691 107.86C59.7957 107.86 52.4224 105.947 46.4491 102.12C40.5691 98.2 37.1157 93.1133 36.0891 86.86L40.2891 85.74C41.0357 91.1533 43.9291 95.4933 48.9691 98.76C54.1024 102.027 60.6357 103.66 68.5691 103.66C74.3557 103.66 79.4424 102.773 83.8291 101C88.2157 99.2267 91.6224 96.7533 94.0491 93.58C96.4757 90.4067 97.6891 86.7667 97.6891 82.66C97.6891 76.9667 95.5424 72.4867 91.2491 69.22C86.9557 65.86 81.0291 63.1533 73.4691 61.1L64.9291 58.72C55.8757 56.2 48.9224 53.0267 44.0691 49.2C39.2157 45.3733 36.7891 40.2867 36.7891 33.94C36.7891 29.18 38.1424 24.98 40.8491 21.34C43.6491 17.7 47.4757 14.8533 52.3291 12.8C57.1824 10.6533 62.6424 9.58 68.7091 9.58C74.4024 9.58 79.4891 10.4667 83.9691 12.24C88.5424 13.92 92.2757 16.3467 95.1691 19.52C98.0624 22.6933 99.8357 26.38 100.489 30.58L96.2891 31.7C95.6357 26.2867 92.7424 21.9467 87.6091 18.68C82.5691 15.4133 76.2691 13.78 68.7091 13.78C63.3891 13.78 58.6291 14.6667 54.4291 16.44C50.2291 18.12 46.9157 20.5 44.4891 23.58C42.1557 26.5667 40.9891 30.02 40.9891 33.94C40.9891 39.26 43.0891 43.46 47.2891 46.54C51.5824 49.62 57.7891 52.3267 65.9091 54.66L74.3091 57.04C82.9891 59.4667 89.7557 62.6867 94.6091 66.7C99.4624 70.62 101.889 75.94 101.889 82.66C101.889 87.6067 100.489 91.9933 97.6891 95.82C94.8891 99.5533 90.9691 102.493 85.9291 104.64C80.9824 106.787 75.1957 107.86 68.5691 107.86ZM68.5691 117.1C61.2891 117.1 54.7091 115.98 48.8291 113.74C43.0424 111.407 38.2357 108.187 34.4091 104.08C30.6757 99.88 28.2491 94.9333 27.1291 89.24L31.1891 88.12C32.1224 93.16 34.2224 97.5467 37.4891 101.28C40.8491 104.92 45.1891 107.767 50.5091 109.82C55.8291 111.873 61.8491 112.9 68.5691 112.9C76.2224 112.9 82.8957 111.64 88.5891 109.12C94.3757 106.507 98.8557 102.96 102.029 98.48C105.296 93.9067 106.929 88.6333 106.929 82.66C106.929 74.7267 104.176 68.38 98.6691 63.62C93.1624 58.86 85.4157 55.0333 75.4291 52.14L67.1691 49.76C60.3557 47.8 55.1291 45.6533 51.4891 43.32C47.8491 40.9867 46.0291 37.86 46.0291 33.94C46.0291 29.3667 48.1757 25.7267 52.4691 23.02C56.7624 20.22 62.1757 18.82 68.7091 18.82C75.0557 18.82 80.2824 20.1267 84.3891 22.74C88.4957 25.3533 90.8291 28.76 91.3891 32.96L87.3291 34.08C87.1424 30.8133 85.3224 28.1533 81.8691 26.1C78.5091 24.0467 74.1224 23.02 68.7091 23.02C63.5757 23.02 59.1891 24 55.5491 25.96C52.0024 27.92 50.2291 30.4867 50.2291 33.66C50.2291 36.5533 51.8624 38.8867 55.1291 40.66C58.4891 42.4333 62.8757 44.1133 68.2891 45.7L76.2691 48.08C87.5624 51.44 96.1957 55.8267 102.169 61.24C108.142 66.56 111.129 73.7933 111.129 82.94C111.129 89.5667 109.309 95.4933 105.669 100.72C102.122 105.853 97.1291 109.867 90.6891 112.76C84.3424 115.653 76.9691 117.1 68.5691 117.1Z" fill="black"/>
  <path d="M160.55 117L201.29 4.44H205.77L165.03 117H160.55ZM140.95 117L181.69 4.44H186.03L145.43 117H140.95ZM150.75 117L191.35 4.44H195.97L155.23 117H150.75ZM242.59 117L206.05 16.06L208.29 9.76L247.07 117H242.59ZM232.79 117L201.29 29.78L203.39 23.34L237.27 117H232.79ZM222.99 117L196.39 43.36L198.63 37.06L227.47 117H222.99ZM183.37 79.76L184.91 75.56H203.39L204.93 79.76H183.37ZM180.01 89.14L181.55 84.94H206.75L208.29 89.14H180.01ZM176.65 98.38L178.19 94.18H210.11L211.65 98.38H176.65Z" fill="black"/>
  <path d="M298.837 116V3.44H303.037V116H298.837ZM280.357 116V3.44H284.557V116H280.357ZM289.597 116V3.44H293.797V116H289.597ZM389.417 116V3.44H393.617V116H389.417ZM370.937 116V3.44H375.137V116H370.937ZM380.177 116V3.44H384.377V116H380.177ZM342.237 51.04L339.717 47.26L365.897 9.32V16.74L342.237 51.04ZM347.837 75.26L308.077 18.42V11.28L350.497 71.62L347.837 75.26ZM347.977 59.16L345.457 55.38L365.897 26.26V33.54L347.977 59.16ZM342.237 83.52L308.077 34.8V27.38L344.757 79.74L342.237 83.52ZM353.577 67.14L351.057 63.5L365.897 42.36V49.64L353.577 67.14ZM336.637 91.5L308.077 50.9V43.48L339.157 87.86L336.637 91.5Z" fill="black"/>
</svg>
