<svg width="512" height="512" viewBox="0 0 200 200" fill="none" xmlns="http://www.w3.org/2000/svg">
  <!-- A Letter (slash design) - centered and scaled to fill viewport -->
  <g transform="translate(-36, 38) scale(0.95)">
    <path d="M60.55 117L101.29 4.44H105.77L65.03 117H60.55ZM40.95 117L81.69 4.44H86.03L45.43 117H40.95ZM50.75 117L91.35 4.44H95.97L55.23 117H50.75ZM142.59 117L106.05 16.06L108.29 9.76L147.07 117H142.59ZM132.79 117L101.29 29.78L103.39 23.34L137.27 117H132.79ZM122.99 117L96.39 43.36L98.63 37.06L127.47 117H122.99ZM83.37 79.76L84.91 75.56H103.39L104.93 79.76H83.37ZM80.01 89.14L81.55 84.94H106.75L108.29 89.14H80.01ZM76.65 98.38L78.19 94.18H110.11L111.65 98.38H76.65Z" fill="black"/>
  </g>
</svg>